FiraSansMM.ufo
<glyph name="exclam" format="1">
  <advance width="234"/>
  <unicode hex="0021"/>
  <outline>
    <contour>
      <point x="116" y="680" type="line"/>
      <point x="118" y="680" type="line"/>
      <point x="118" y="188" type="line"/>
      <point x="116" y="188" type="line"/>
    </contour>
    <contour>
      <point x="117" y="11" type="qcurve" smooth="yes"/>
      <point x="120" y="11"/>
      <point x="124" y="7"/>
      <point x="124" y="4" type="qcurve" smooth="yes"/>
      <point x="124" y="1"/>
      <point x="120" y="-3"/>
      <point x="117" y="-3" type="qcurve" smooth="yes"/>
      <point x="114" y="-3"/>
      <point x="110" y="1"/>
      <point x="110" y="4" type="qcurve" smooth="yes"/>
      <point x="110" y="7"/>
      <point x="114" y="11"/>
    </contour>
  </outline>
</glyph>
<glyph name="numbersign" format="1">
  <advance width="479"/>
  <unicode hex="0023"/>
  <outline>
    <contour>
      <point x="464" y="468" type="line"/>
      <point x="464" y="466" type="line"/>
      <point x="377" y="466" type="line"/>
      <point x="344" y="216" type="line"/>
      <point x="427" y="216" type="line"/>
      <point x="427" y="214" type="line"/>
      <point x="344" y="214" type="line"/>
      <point x="316" y="0" type="line"/>
      <point x="314" y="0" type="line"/>
      <point x="342" y="214" type="line"/>
      <point x="110" y="214" type="line"/>
      <point x="82" y="0" type="line"/>
      <point x="80" y="0" type="line"/>
      <point x="108" y="214" type="line"/>
      <point x="15" y="214" type="line"/>
      <point x="15" y="216" type="line"/>
      <point x="108" y="216" type="line"/>
      <point x="141" y="466" type="line"/>
      <point x="52" y="466" type="line"/>
      <point x="52" y="468" type="line"/>
      <point x="142" y="468" type="line"/>
      <point x="167" y="662" type="line"/>
      <point x="169" y="662" type="line"/>
      <point x="144" y="468" type="line"/>
      <point x="376" y="468" type="line"/>
      <point x="401" y="662" type="line"/>
      <point x="403" y="662" type="line"/>
      <point x="378" y="468" type="line"/>
    </contour>
    <contour>
      <point x="110" y="216" type="line"/>
      <point x="342" y="216" type="line"/>
      <point x="375" y="466" type="line"/>
      <point x="143" y="466" type="line"/>
    </contour>
  </outline>
</glyph>
<glyph name="dollar" format="1">
  <advance width="528"/>
  <unicode hex="0024"/>
  <outline>
    <contour>
      <point x="254" y="-8" type="line"/>
      <point x="256" y="-8" type="line"/>
      <point x="256" y="-144" type="line"/>
      <point x="254" y="-144" type="line"/>
    </contour>
    <contour>
      <point x="259" y="805" type="line"/>
      <point x="261" y="805" type="line"/>
      <point x="261" y="669" type="line"/>
      <point x="259" y="669" type="line"/>
    </contour>
    <contour>
      <point x="256" y="669" type="qcurve" smooth="yes"/>
      <point x="317" y="669"/>
      <point x="393" y="634"/>
      <point x="424" y="607" type="qcurve"/>
      <point x="423" y="605" type="line"/>
      <point x="392" y="633"/>
      <point x="315" y="667"/>
      <point x="256" y="667" type="qcurve" smooth="yes"/>
      <point x="180" y="667"/>
      <point x="89" y="583"/>
      <point x="89" y="521" type="qcurve" smooth="yes"/>
      <point x="89" y="479"/>
      <point x="121" y="423"/>
      <point x="197" y="381"/>
      <point x="264" y="359" type="qcurve" smooth="yes"/>
      <point x="327" y="339"/>
      <point x="408" y="294"/>
      <point x="448" y="226"/>
      <point x="448" y="173" type="qcurve" smooth="yes"/>
      <point x="448" y="120"/>
      <point x="400" y="37"/>
      <point x="313" y="-9"/>
      <point x="254" y="-9" type="qcurve" smooth="yes"/>
      <point x="187" y="-9"/>
      <point x="101" y="33"/>
      <point x="65" y="67" type="qcurve"/>
      <point x="66" y="69" type="line"/>
      <point x="102" y="35"/>
      <point x="187" y="-7"/>
      <point x="254" y="-7" type="qcurve" smooth="yes"/>
      <point x="312" y="-7"/>
      <point x="398" y="39"/>
      <point x="446" y="120"/>
      <point x="446" y="173" type="qcurve" smooth="yes"/>
      <point x="446" y="226"/>
      <point x="406" y="292"/>
      <point x="325" y="337"/>
      <point x="263" y="357" type="qcurve" smooth="yes"/>
      <point x="197" y="379"/>
      <point x="120" y="421"/>
      <point x="87" y="478"/>
      <point x="87" y="521" type="qcurve" smooth="yes"/>
      <point x="87" y="563"/>
      <point x="129" y="630"/>
      <point x="205" y="669"/>
    </contour>
  </outline>
</glyph>
<glyph name="percent" format="1">
  <advance width="745"/>
  <unicode hex="0025"/>
  <outline>
    <contour>
      <point x="145" y="-9" type="line"/>
      <point x="601" y="690" type="line"/>
      <point x="603" y="690" type="line"/>
      <point x="147" y="-9" type="line"/>
    </contour>
    <contour>
      <point x="194" y="668" type="qcurve" smooth="yes"/>
      <point x="156" y="668"/>
      <point x="101" y="632"/>
      <point x="72" y="565"/>
      <point x="72" y="517" type="qcurve" smooth="yes"/>
      <point x="72" y="472"/>
      <point x="101" y="405"/>
      <point x="156" y="368"/>
      <point x="194" y="368" type="qcurve" smooth="yes"/>
      <point x="233" y="368"/>
      <point x="287" y="406"/>
      <point x="316" y="474"/>
      <point x="316" y="520" type="qcurve" smooth="yes"/>
      <point x="316" y="568"/>
      <point x="286" y="634"/>
      <point x="232" y="668"/>
    </contour>
    <contour>
      <point x="194" y="670" type="qcurve" smooth="yes"/>
      <point x="233" y="670"/>
      <point x="288" y="635"/>
      <point x="318" y="568"/>
      <point x="318" y="520" type="qcurve" smooth="yes"/>
      <point x="318" y="474"/>
      <point x="289" y="405"/>
      <point x="234" y="366"/>
      <point x="194" y="366" type="qcurve" smooth="yes"/>
      <point x="155" y="366"/>
      <point x="99" y="404"/>
      <point x="70" y="472"/>
      <point x="70" y="517" type="qcurve" smooth="yes"/>
      <point x="70" y="565"/>
      <point x="99" y="634"/>
      <point x="155" y="670"/>
    </contour>
    <contour>
      <point x="551" y="293" type="qcurve" smooth="yes"/>
      <point x="513" y="293"/>
      <point x="458" y="258"/>
      <point x="429" y="190"/>
      <point x="429" y="142" type="qcurve" smooth="yes"/>
      <point x="429" y="97"/>
      <point x="458" y="30"/>
      <point x="513" y="-7"/>
      <point x="551" y="-7" type="qcurve" smooth="yes"/>
      <point x="590" y="-7"/>
      <point x="644" y="31"/>
      <point x="673" y="99"/>
      <point x="673" y="145" type="qcurve" smooth="yes"/>
      <point x="673" y="193"/>
      <point x="643" y="259"/>
      <point x="589" y="293"/>
    </contour>
    <contour>
      <point x="551" y="295" type="qcurve" smooth="yes"/>
      <point x="590" y="295"/>
      <point x="645" y="260"/>
      <point x="675" y="193"/>
      <point x="675" y="145" type="qcurve" smooth="yes"/>
      <point x="675" y="99"/>
      <point x="646" y="30"/>
      <point x="591" y="-9"/>
      <point x="551" y="-9" type="qcurve" smooth="yes"/>
      <point x="512" y="-9"/>
      <point x="456" y="29"/>
      <point x="427" y="97"/>
      <point x="427" y="142" type="qcurve" smooth="yes"/>
      <point x="427" y="190"/>
      <point x="456" y="259"/>
      <point x="511" y="295"/>
    </contour>
  </outline>
</glyph>
<glyph name="ampersand" format="1">
  <advance width="734"/>
  <unicode hex="0026"/>
  <outline>
    <contour>
      <point x="306" y="691" type="qcurve" smooth="yes"/>
      <point x="347" y="691"/>
      <point x="409" y="654"/>
      <point x="444" y="591"/>
      <point x="444" y="550" type="qcurve" smooth="yes"/>
      <point x="444" y="506"/>
      <point x="402" y="443"/>
      <point x="326" y="391"/>
      <point x="274" y="361" type="qcurve"/>
      <point x="532" y="116" type="line"/>
      <point x="561" y="171"/>
      <point x="592" y="280"/>
      <point x="604" y="347" type="qcurve"/>
      <point x="606" y="347" type="line"/>
      <point x="594" y="280"/>
      <point x="562" y="169"/>
      <point x="533" y="115" type="qcurve"/>
      <point x="654" y="0" type="line"/>
      <point x="652" y="-1" type="line"/>
      <point x="532" y="114" type="line"/>
      <point x="495" y="54"/>
      <point x="385" y="-9"/>
      <point x="310" y="-9" type="qcurve" smooth="yes"/>
      <point x="253" y="-9"/>
      <point x="167" y="35"/>
      <point x="119" y="110"/>
      <point x="119" y="158" type="qcurve" smooth="yes"/>
      <point x="119" y="228"/>
      <point x="195" y="321"/>
      <point x="270" y="361" type="qcurve"/>
      <point x="230" y="399"/>
      <point x="183" y="455"/>
      <point x="163" y="511"/>
      <point x="163" y="549" type="qcurve" smooth="yes"/>
      <point x="163" y="590"/>
      <point x="200" y="654"/>
      <point x="266" y="691"/>
    </contour>
    <contour>
      <point x="531" y="115" type="qcurve"/>
      <point x="272" y="360" type="line"/>
      <point x="197" y="320"/>
      <point x="121" y="228"/>
      <point x="121" y="158" type="qcurve" smooth="yes"/>
      <point x="121" y="111"/>
      <point x="168" y="36"/>
      <point x="253" y="-7"/>
      <point x="310" y="-7" type="qcurve" smooth="yes"/>
      <point x="385" y="-7"/>
      <point x="493" y="55"/>
    </contour>
    <contour>
      <point x="306" y="689" type="qcurve" smooth="yes"/>
      <point x="245" y="689"/>
      <point x="165" y="611"/>
      <point x="165" y="549" type="qcurve" smooth="yes"/>
      <point x="166" y="511"/>
      <point x="185" y="456"/>
      <point x="232" y="400"/>
      <point x="272" y="362" type="qcurve"/>
      <point x="325" y="392"/>
      <point x="401" y="445"/>
      <point x="442" y="507"/>
      <point x="442" y="550" type="qcurve" smooth="yes"/>
      <point x="442" y="610"/>
      <point x="368" y="689"/>
    </contour>
  </outline>
</glyph>
<glyph name="parenleft" format="1">
  <advance width="329"/>
  <unicode hex="0028"/>
  <outline>
    <contour>
      <point x="247" y="825" type="qcurve"/>
      <point x="249" y="824" type="line"/>
      <point x="216" y="775"/>
      <point x="155" y="678"/>
      <point x="109" y="568"/>
      <point x="82" y="435"/>
      <point x="82" y="350" type="qcurve" smooth="yes"/>
      <point x="82" y="265"/>
      <point x="109" y="132"/>
      <point x="155" y="22"/>
      <point x="216" y="-75"/>
      <point x="249" y="-124" type="qcurve"/>
      <point x="247" y="-125" type="line"/>
      <point x="213" y="-76"/>
      <point x="153" y="22"/>
      <point x="107" y="132"/>
      <point x="80" y="265"/>
      <point x="80" y="350" type="qcurve" smooth="yes"/>
      <point x="80" y="435"/>
      <point x="107" y="568"/>
      <point x="153" y="678"/>
      <point x="213" y="776"/>
    </contour>
  </outline>
</glyph>
<glyph name="parenright" format="1">
  <advance width="329"/>
  <unicode hex="0029"/>
  <outline>
    <contour>
      <point x="80" y="824" type="qcurve"/>
      <point x="82" y="825" type="line"/>
      <point x="116" y="776"/>
      <point x="176" y="678"/>
      <point x="222" y="568"/>
      <point x="249" y="435"/>
      <point x="249" y="350" type="qcurve" smooth="yes"/>
      <point x="249" y="265"/>
      <point x="222" y="132"/>
      <point x="176" y="22"/>
      <point x="116" y="-76"/>
      <point x="82" y="-125" type="qcurve"/>
      <point x="80" y="-124" type="line"/>
      <point x="113" y="-75"/>
      <point x="174" y="22"/>
      <point x="220" y="132"/>
      <point x="247" y="265"/>
      <point x="247" y="350" type="qcurve" smooth="yes"/>
      <point x="247" y="435"/>
      <point x="220" y="568"/>
      <point x="174" y="678"/>
      <point x="113" y="775"/>
    </contour>
  </outline>
</glyph>
<glyph name="comma" format="1">
  <advance width="120"/>
  <unicode hex="002C"/>
  <outline>
    <contour>
      <point x="60" y="10" type="qcurve" smooth="yes"/>
      <point x="63" y="10"/>
      <point x="67" y="6"/>
      <point x="67" y="3" type="qcurve" smooth="yes"/>
      <point x="67" y="0"/>
      <point x="66" y="-4"/>
      <point x="65" y="-6" type="qcurve" smooth="yes"/>
      <point x="29" y="-109" type="line"/>
      <point x="26" y="-109" type="line"/>
      <point x="59" y="-4" type="line"/>
      <point x="56" y="-3"/>
      <point x="53" y="1"/>
      <point x="53" y="3" type="qcurve" smooth="yes"/>
      <point x="53" y="6"/>
      <point x="57" y="10"/>
    </contour>
  </outline>
</glyph>
<glyph name="period" format="1">
  <advance width="120"/>
  <unicode hex="002E"/>
  <outline>
    <contour>
      <point x="60" y="10" type="qcurve" smooth="yes"/>
      <point x="63" y="10"/>
      <point x="67" y="6"/>
      <point x="67" y="3" type="qcurve" smooth="yes"/>
      <point x="67" y="0"/>
      <point x="63" y="-4"/>
      <point x="60" y="-4" type="qcurve" smooth="yes"/>
      <point x="57" y="-4"/>
      <point x="53" y="0"/>
      <point x="53" y="3" type="qcurve" smooth="yes"/>
      <point x="53" y="6"/>
      <point x="57" y="10"/>
    </contour>
  </outline>
</glyph>
<glyph name="zero" format="1">
  <advance width="536"/>
  <unicode hex="0030"/>
  <outline>
    <contour>
      <point x="268" y="670" type="qcurve" smooth="yes"/>
      <point x="364" y="670"/>
      <point x="456" y="500"/>
      <point x="456" y="331" type="qcurve" smooth="yes"/>
      <point x="456" y="162"/>
      <point x="364" y="-9"/>
      <point x="268" y="-9" type="qcurve" smooth="yes"/>
      <point x="172" y="-9"/>
      <point x="80" y="162"/>
      <point x="80" y="331" type="qcurve" smooth="yes"/>
      <point x="80" y="500"/>
      <point x="172" y="670"/>
    </contour>
    <contour>
      <point x="268" y="668" type="qcurve" smooth="yes"/>
      <point x="205" y="668"/>
      <point x="122" y="592"/>
      <point x="82" y="443"/>
      <point x="82" y="331" type="qcurve" smooth="yes"/>
      <point x="82" y="220"/>
      <point x="122" y="69"/>
      <point x="205" y="-7"/>
      <point x="268" y="-7" type="qcurve" smooth="yes"/>
      <point x="332" y="-7"/>
      <point x="414" y="69"/>
      <point x="454" y="220"/>
      <point x="454" y="331" type="qcurve" smooth="yes"/>
      <point x="454" y="443"/>
      <point x="414" y="592"/>
      <point x="332" y="668"/>
    </contour>
  </outline>
</glyph>
<glyph name="two" format="1">
  <advance width="463"/>
  <unicode hex="0032"/>
  <outline>
    <contour>
      <point x="220" y="670" type="qcurve" smooth="yes"/>
      <point x="272" y="670"/>
      <point x="346" y="626"/>
      <point x="386" y="552"/>
      <point x="386" y="507" type="qcurve"/>
      <point x="386" y="467"/>
      <point x="366" y="396"/>
      <point x="321" y="319"/>
      <point x="244" y="222"/>
      <point x="131" y="91"/>
      <point x="53" y="2" type="qcurve"/>
      <point x="393" y="2" type="line"/>
      <point x="393" y="0" type="line"/>
      <point x="50" y="0" type="line"/>
      <point x="50" y="2" type="line"/>
      <point x="129" y="92"/>
      <point x="242" y="223"/>
      <point x="319" y="320"/>
      <point x="364" y="397"/>
      <point x="384" y="468"/>
      <point x="384" y="507" type="qcurve" smooth="yes"/>
      <point x="384" y="552"/>
      <point x="345" y="625"/>
      <point x="271" y="668"/>
      <point x="220" y="668" type="qcurve" smooth="yes"/>
      <point x="165" y="668"/>
      <point x="89" y="622"/>
      <point x="54" y="581" type="qcurve"/>
      <point x="52" y="582" type="line"/>
      <point x="87" y="623"/>
      <point x="164" y="670"/>
    </contour>
  </outline>
</glyph>
<glyph name="three" format="1">
  <advance width="469"/>
  <unicode hex="0033"/>
  <outline>
    <contour>
      <point x="216" y="670" type="qcurve" smooth="yes"/>
      <point x="266" y="670"/>
      <point x="337" y="630"/>
      <point x="375" y="559"/>
      <point x="375" y="513" type="qcurve" smooth="yes"/>
      <point x="375" y="460"/>
      <point x="333" y="391"/>
      <point x="268" y="356"/>
      <point x="231" y="353" type="qcurve"/>
      <point x="277" y="351"/>
      <point x="350" y="311"/>
      <point x="394" y="236"/>
      <point x="394" y="178" type="qcurve" smooth="yes"/>
      <point x="394" y="123"/>
      <point x="348" y="39"/>
      <point x="267" y="-9"/>
      <point x="212" y="-9" type="qcurve" smooth="yes"/>
      <point x="154" y="-9"/>
      <point x="73" y="29"/>
      <point x="35" y="72" type="qcurve"/>
      <point x="37" y="73" type="line"/>
      <point x="75" y="30"/>
      <point x="154" y="-7"/>
      <point x="212" y="-7" type="qcurve" smooth="yes"/>
      <point x="266" y="-7"/>
      <point x="347" y="41"/>
      <point x="392" y="124"/>
      <point x="392" y="178" type="qcurve" smooth="yes"/>
      <point x="392" y="264"/>
      <point x="293" y="352"/>
      <point x="212" y="352" type="qcurve" smooth="yes"/>
      <point x="178" y="352" type="line"/>
      <point x="178" y="354" type="line"/>
      <point x="215" y="354" type="line" smooth="yes"/>
      <point x="255" y="354"/>
      <point x="327" y="388"/>
      <point x="373" y="459"/>
      <point x="373" y="513" type="qcurve" smooth="yes"/>
      <point x="373" y="581"/>
      <point x="290" y="668"/>
      <point x="216" y="668" type="qcurve" smooth="yes"/>
      <point x="173" y="668"/>
      <point x="92" y="636"/>
      <point x="56" y="598" type="qcurve"/>
      <point x="54" y="599" type="line"/>
      <point x="90" y="637"/>
      <point x="172" y="670"/>
    </contour>
  </outline>
</glyph>
<glyph name="five" format="1">
  <advance width="470"/>
  <unicode hex="0035"/>
  <outline>
    <contour>
      <point x="91" y="660" type="line"/>
      <point x="379" y="660" type="line"/>
      <point x="379" y="658" type="line"/>
      <point x="93" y="658" type="line"/>
      <point x="93" y="362" type="line"/>
      <point x="119" y="383"/>
      <point x="183" y="409"/>
      <point x="226" y="409" type="qcurve" smooth="yes"/>
      <point x="281" y="409"/>
      <point x="359" y="362"/>
      <point x="400" y="274"/>
      <point x="400" y="213" type="qcurve" smooth="yes"/>
      <point x="400" y="149"/>
      <point x="357" y="48"/>
      <point x="273" y="-9"/>
      <point x="211" y="-9" type="qcurve" smooth="yes"/>
      <point x="162" y="-9"/>
      <point x="79" y="29"/>
      <point x="50" y="63" type="qcurve"/>
      <point x="52" y="64" type="line"/>
      <point x="80" y="31"/>
      <point x="162" y="-7"/>
      <point x="211" y="-7" type="qcurve" smooth="yes"/>
      <point x="273" y="-7"/>
      <point x="356" y="50"/>
      <point x="398" y="150"/>
      <point x="398" y="213" type="qcurve" smooth="yes"/>
      <point x="398" y="303"/>
      <point x="308" y="407"/>
      <point x="226" y="407" type="qcurve" smooth="yes"/>
      <point x="183" y="407"/>
      <point x="123" y="383"/>
      <point x="94" y="360" type="qcurve"/>
      <point x="91" y="360" type="line"/>
    </contour>
  </outline>
</glyph>
<glyph name="six" format="1">
  <advance width="505"/>
  <unicode hex="0036"/>
  <outline>
    <contour>
      <point x="300" y="670" type="qcurve" smooth="yes"/>
      <point x="332" y="670"/>
      <point x="380" y="651"/>
      <point x="399" y="635" type="qcurve"/>
      <point x="398" y="633" type="line"/>
      <point x="379" y="650"/>
      <point x="331" y="668"/>
      <point x="300" y="668" type="qcurve" smooth="yes"/>
      <point x="228" y="668"/>
      <point x="131" y="567"/>
      <point x="82" y="395"/>
      <point x="82" y="288" type="qcurve" smooth="yes"/>
      <point x="82" y="287" type="line" smooth="yes"/>
      <point x="82" y="207"/>
      <point x="120" y="73"/>
      <point x="203" y="-7"/>
      <point x="270" y="-7" type="qcurve" smooth="yes"/>
      <point x="325" y="-7"/>
      <point x="399" y="48"/>
      <point x="438" y="151"/>
      <point x="438" y="222" type="qcurve" smooth="yes"/>
      <point x="438" y="322"/>
      <point x="348" y="421"/>
      <point x="274" y="421" type="qcurve" smooth="yes"/>
      <point x="230" y="421"/>
      <point x="159" y="384"/>
      <point x="104" y="322"/>
      <point x="82" y="286" type="qcurve"/>
      <point x="82" y="289" type="line"/>
      <point x="103" y="324"/>
      <point x="158" y="385"/>
      <point x="229" y="423"/>
      <point x="274" y="423" type="qcurve" smooth="yes"/>
      <point x="324" y="423"/>
      <point x="399" y="378"/>
      <point x="440" y="289"/>
      <point x="440" y="222" type="qcurve" smooth="yes"/>
      <point x="440" y="150"/>
      <point x="401" y="46"/>
      <point x="325" y="-9"/>
      <point x="270" y="-9" type="qcurve" smooth="yes"/>
      <point x="202" y="-9"/>
      <point x="118" y="71"/>
      <point x="80" y="206"/>
      <point x="80" y="287" type="qcurve" smooth="yes"/>
      <point x="80" y="397"/>
      <point x="129" y="570"/>
      <point x="227" y="670"/>
    </contour>
  </outline>
</glyph>
<glyph name="eight" format="1">
  <advance width="523"/>
  <unicode hex="0038"/>
  <outline>
    <contour>
      <point x="262" y="670" type="qcurve" smooth="yes"/>
      <point x="306" y="670"/>
      <point x="380" y="634"/>
      <point x="425" y="564"/>
      <point x="425" y="513" type="qcurve" smooth="yes"/>
      <point x="425" y="455"/>
      <point x="367" y="376"/>
      <point x="297" y="339" type="qcurve"/>
      <point x="295" y="340" type="line"/>
      <point x="363" y="376"/>
      <point x="423" y="453"/>
      <point x="423" y="513" type="qcurve" smooth="yes"/>
      <point x="423" y="564"/>
      <point x="379" y="633"/>
      <point x="306" y="668"/>
      <point x="262" y="668" type="qcurve" smooth="yes"/>
      <point x="219" y="668"/>
      <point x="146" y="630"/>
      <point x="102" y="561"/>
      <point x="102" y="514" type="qcurve" smooth="yes"/>
      <point x="102" y="477"/>
      <point x="131" y="422"/>
      <point x="192" y="381"/>
      <point x="239" y="362" type="qcurve" smooth="yes"/>
      <point x="295" y="340" type="line"/>
      <point x="297" y="339" type="line"/>
      <point x="354" y="317"/>
      <point x="422" y="269"/>
      <point x="453" y="208"/>
      <point x="453" y="164" type="qcurve" smooth="yes"/>
      <point x="453" y="113"/>
      <point x="407" y="35"/>
      <point x="322" y="-9"/>
      <point x="264" y="-9" type="qcurve" smooth="yes"/>
      <point x="204" y="-9"/>
      <point x="117" y="35"/>
      <point x="70" y="115"/>
      <point x="70" y="169" type="qcurve" smooth="yes"/>
      <point x="70" y="240"/>
      <point x="151" y="332"/>
      <point x="227" y="365" type="qcurve"/>
      <point x="229" y="364" type="line"/>
      <point x="151" y="330"/>
      <point x="72" y="238"/>
      <point x="72" y="169" type="qcurve" smooth="yes"/>
      <point x="72" y="90"/>
      <point x="173" y="-7"/>
      <point x="264" y="-7" type="qcurve" smooth="yes"/>
      <point x="350" y="-7"/>
      <point x="451" y="89"/>
      <point x="451" y="164" type="qcurve" smooth="yes"/>
      <point x="451" y="213"/>
      <point x="412" y="277"/>
      <point x="332" y="324"/>
      <point x="270" y="348" type="qcurve" smooth="yes"/>
      <point x="229" y="364" type="line"/>
      <point x="227" y="365" type="line"/>
      <point x="156" y="394"/>
      <point x="100" y="465"/>
      <point x="100" y="514" type="qcurve" smooth="yes"/>
      <point x="100" y="562"/>
      <point x="145" y="632"/>
      <point x="219" y="670"/>
    </contour>
  </outline>
</glyph>
<glyph name="nine" format="1">
  <advance width="499"/>
  <unicode hex="0039"/>
  <outline>
    <contour>
      <point x="423" y="393" type="qcurve"/>
      <point x="423" y="389" type="line"/>
      <point x="390" y="328"/>
      <point x="297" y="261"/>
      <point x="233" y="261" type="qcurve" smooth="yes"/>
      <point x="185" y="261"/>
      <point x="109" y="309"/>
      <point x="65" y="399"/>
      <point x="65" y="460" type="qcurve" smooth="yes"/>
      <point x="65" y="525"/>
      <point x="112" y="619"/>
      <point x="193" y="670"/>
      <point x="244" y="670" type="qcurve" smooth="yes"/>
      <point x="310" y="670"/>
      <point x="389" y="603"/>
      <point x="424" y="479"/>
      <point x="424" y="393" type="qcurve" smooth="yes"/>
      <point x="424" y="302"/>
      <point x="384" y="169"/>
      <point x="307" y="75"/>
      <point x="196" y="11"/>
      <point x="125" y="-11" type="qcurve"/>
      <point x="124" y="-9" type="line"/>
      <point x="219" y="21"/>
      <point x="351" y="115"/>
      <point x="421" y="269"/>
      <point x="422" y="389" type="qcurve" smooth="yes"/>
      <point x="422" y="391" type="line" smooth="yes"/>
      <point x="422" y="478"/>
      <point x="387" y="602"/>
      <point x="309" y="668"/>
      <point x="244" y="668" type="qcurve" smooth="yes"/>
      <point x="194" y="668"/>
      <point x="113" y="618"/>
      <point x="67" y="525"/>
      <point x="67" y="460" type="qcurve" smooth="yes"/>
      <point x="67" y="399"/>
      <point x="110" y="311"/>
      <point x="186" y="263"/>
      <point x="233" y="263" type="qcurve" smooth="yes"/>
      <point x="296" y="263"/>
      <point x="390" y="332"/>
    </contour>
  </outline>
</glyph>
<glyph name="question" format="1">
  <advance width="448"/>
  <unicode hex="003F"/>
  <outline>
    <contour>
      <point x="235" y="690" type="qcurve" smooth="yes"/>
      <point x="276" y="690"/>
      <point x="341" y="656"/>
      <point x="378" y="596"/>
      <point x="378" y="556" type="qcurve" smooth="yes"/>
      <point x="378" y="520"/>
      <point x="351" y="472"/>
      <point x="309" y="436"/>
      <point x="262" y="404"/>
      <point x="220" y="365"/>
      <point x="193" y="311"/>
      <point x="193" y="271" type="qcurve" smooth="yes"/>
      <point x="193" y="188" type="line"/>
      <point x="191" y="188" type="line"/>
      <point x="191" y="271" type="line" smooth="yes"/>
      <point x="191" y="312"/>
      <point x="218" y="366"/>
      <point x="260" y="405"/>
      <point x="307" y="437"/>
      <point x="349" y="472"/>
      <point x="376" y="520"/>
      <point x="376" y="556" type="qcurve" smooth="yes"/>
      <point x="376" y="615"/>
      <point x="297" y="688"/>
      <point x="235" y="688" type="qcurve" smooth="yes"/>
      <point x="184" y="688"/>
      <point x="105" y="648"/>
      <point x="72" y="608" type="qcurve"/>
      <point x="70" y="610" type="line"/>
      <point x="104" y="650"/>
      <point x="184" y="690"/>
    </contour>
    <contour>
      <point x="192" y="11" type="qcurve" smooth="yes"/>
      <point x="195" y="11"/>
      <point x="199" y="7"/>
      <point x="199" y="4" type="qcurve" smooth="yes"/>
      <point x="199" y="1"/>
      <point x="195" y="-3"/>
      <point x="192" y="-3" type="qcurve" smooth="yes"/>
      <point x="189" y="-3"/>
      <point x="185" y="1"/>
      <point x="185" y="4" type="qcurve" smooth="yes"/>
      <point x="185" y="7"/>
      <point x="189" y="11"/>
    </contour>
  </outline>
</glyph>
<glyph name="at" format="1">
  <advance width="1020"/>
  <unicode hex="0040"/>
  <outline>
    <contour>
      <point x="526" y="-192" type="qcurve" smooth="yes"/>
      <point x="438" y="-192"/>
      <point x="285" y="-134"/>
      <point x="172" y="-23"/>
      <point x="108" y="139"/>
      <point x="108" y="244" type="qcurve" smooth="yes"/>
      <point x="108" y="333"/>
      <point x="168" y="494"/>
      <point x="279" y="619"/>
      <point x="434" y="691"/>
      <point x="528" y="691" type="qcurve" smooth="yes"/>
      <point x="625" y="691"/>
      <point x="769" y="628"/>
      <point x="865" y="520"/>
      <point x="912" y="383"/>
      <point x="912" y="309" type="qcurve" smooth="yes"/>
      <point x="912" y="223"/>
      <point x="885" y="108"/>
      <point x="839" y="42"/>
      <point x="784" y="14"/>
      <point x="755" y="14" type="qcurve" smooth="yes"/>
      <point x="723" y="14"/>
      <point x="673" y="48"/>
      <point x="643" y="115"/>
      <point x="641" y="163" type="qcurve"/>
      <point x="620" y="92"/>
      <point x="543" y="16"/>
      <point x="489" y="16" type="qcurve" smooth="yes"/>
      <point x="446" y="16"/>
      <point x="375" y="64"/>
      <point x="334" y="160"/>
      <point x="334" y="231" type="qcurve" smooth="yes"/>
      <point x="334" y="317"/>
      <point x="388" y="424"/>
      <point x="476" y="474"/>
      <point x="525" y="474" type="qcurve" smooth="yes"/>
      <point x="563" y="474"/>
      <point x="623" y="453"/>
      <point x="643" y="442" type="qcurve"/>
      <point x="643" y="175" type="line" smooth="yes"/>
      <point x="643" y="98"/>
      <point x="704" y="16"/>
      <point x="755" y="16" type="qcurve" smooth="yes"/>
      <point x="793" y="16"/>
      <point x="864" y="68"/>
      <point x="910" y="195"/>
      <point x="910" y="309" type="qcurve" smooth="yes"/>
      <point x="910" y="383"/>
      <point x="863" y="520"/>
      <point x="768" y="627"/>
      <point x="625" y="689"/>
      <point x="528" y="689" type="qcurve" smooth="yes"/>
      <point x="434" y="689"/>
      <point x="280" y="618"/>
      <point x="169" y="493"/>
      <point x="110" y="333"/>
      <point x="110" y="244" type="qcurve" smooth="yes"/>
      <point x="110" y="105"/>
      <point x="220" y="-89"/>
      <point x="408" y="-190"/>
      <point x="526" y="-190" type="qcurve" smooth="yes"/>
      <point x="556" y="-190"/>
      <point x="620" y="-182"/>
      <point x="681" y="-169"/>
      <point x="705" y="-159" type="qcurve"/>
      <point x="705" y="-161" type="line"/>
      <point x="681" y="-171"/>
      <point x="620" y="-184"/>
      <point x="556" y="-192"/>
    </contour>
    <contour>
      <point x="489" y="18" type="qcurve" smooth="yes"/>
      <point x="526" y="18"/>
      <point x="584" y="53"/>
      <point x="627" y="120"/>
      <point x="641" y="169" type="qcurve"/>
      <point x="641" y="441" type="line"/>
      <point x="622" y="452"/>
      <point x="563" y="472"/>
      <point x="525" y="472" type="qcurve" smooth="yes"/>
      <point x="476" y="472"/>
      <point x="389" y="423"/>
      <point x="336" y="317"/>
      <point x="336" y="231" type="qcurve" smooth="yes"/>
      <point x="336" y="124"/>
      <point x="424" y="18"/>
    </contour>
  </outline>
</glyph>
<glyph name="B" format="1">
  <advance width="581"/>
  <unicode hex="0042"/>
  <outline>
    <contour>
      <point x="287" y="0" type="qcurve" smooth="yes"/>
      <point x="130" y="0" type="line"/>
      <point x="130" y="680" type="line"/>
      <point x="264" y="680" type="line" smooth="yes"/>
      <point x="334" y="680"/>
      <point x="429" y="641"/>
      <point x="478" y="566"/>
      <point x="478" y="513" type="qcurve" smooth="yes"/>
      <point x="478" y="471"/>
      <point x="439" y="405"/>
      <point x="375" y="365"/>
      <point x="336" y="360" type="qcurve"/>
      <point x="384" y="358"/>
      <point x="466" y="316"/>
      <point x="516" y="239"/>
      <point x="516" y="183" type="qcurve" smooth="yes"/>
      <point x="516" y="115"/>
      <point x="456" y="34"/>
      <point x="352" y="0"/>
    </contour>
    <contour>
      <point x="132" y="359" type="line"/>
      <point x="132" y="2" type="line"/>
      <point x="288" y="2" type="line" smooth="yes"/>
      <point x="352" y="2"/>
      <point x="454" y="35"/>
      <point x="514" y="115"/>
      <point x="514" y="183" type="qcurve" smooth="yes"/>
      <point x="514" y="238"/>
      <point x="463" y="316"/>
      <point x="374" y="359"/>
      <point x="317" y="359" type="qcurve" smooth="yes"/>
    </contour>
    <contour>
      <point x="132" y="678" type="line"/>
      <point x="132" y="361" type="line"/>
      <point x="312" y="361" type="line" smooth="yes"/>
      <point x="360" y="361"/>
      <point x="434" y="402"/>
      <point x="476" y="471"/>
      <point x="476" y="513" type="qcurve" smooth="yes"/>
      <point x="476" y="591"/>
      <point x="369" y="678"/>
      <point x="265" y="678" type="qcurve" smooth="yes"/>
    </contour>
    <contour>
      <point x="281" y="680" type="move" name="top"/>
    </contour>
    <contour>
      <point x="310" y="0" type="move" name="bottom"/>
    </contour>
  </outline>
</glyph>
<glyph name="C" format="1">
  <advance width="529"/>
  <unicode hex="0043"/>
  <outline>
    <contour>
      <point x="342" y="690" type="qcurve" smooth="yes"/>
      <point x="398" y="690"/>
      <point x="468" y="656"/>
      <point x="494" y="633" type="qcurve"/>
      <point x="493" y="631" type="line"/>
      <point x="467" y="654"/>
      <point x="397" y="688"/>
      <point x="342" y="688" type="qcurve" smooth="yes"/>
      <point x="268" y="688"/>
      <point x="152" y="612"/>
      <point x="87" y="457"/>
      <point x="87" y="339" type="qcurve" smooth="yes"/>
      <point x="87" y="227"/>
      <point x="151" y="73"/>
      <point x="266" y="-7"/>
      <point x="341" y="-7" type="qcurve" smooth="yes"/>
      <point x="402" y="-7"/>
      <point x="478" y="32"/>
      <point x="502" y="52" type="qcurve"/>
      <point x="503" y="50" type="line"/>
      <point x="479" y="30"/>
      <point x="403" y="-9"/>
      <point x="341" y="-9" type="qcurve" smooth="yes"/>
      <point x="265" y="-9"/>
      <point x="149" y="71"/>
      <point x="85" y="227"/>
      <point x="85" y="339" type="qcurve" smooth="yes"/>
      <point x="85" y="458"/>
      <point x="151" y="614"/>
      <point x="267" y="690"/>
    </contour>
    <contour>
      <point x="323" y="341" type="move" name="center"/>
    </contour>
    <contour>
      <point x="341" y="0" type="move" name="bottom"/>
    </contour>
    <contour>
      <point x="343" y="680" type="move" name="top"/>
    </contour>
  </outline>
</glyph>
<glyph name="D" format="1">
  <advance width="613"/>
  <unicode hex="0044"/>
  <outline>
    <contour>
      <point x="130" y="680" type="line"/>
      <point x="234" y="680" type="line" smooth="yes"/>
      <point x="288" y="680"/>
      <point x="393" y="654"/>
      <point x="477" y="583"/>
      <point x="528" y="452"/>
      <point x="528" y="348" type="qcurve" smooth="yes"/>
      <point x="528" y="243"/>
      <point x="478" y="108"/>
      <point x="395" y="31"/>
      <point x="293" y="0"/>
      <point x="241" y="0" type="qcurve" smooth="yes"/>
      <point x="130" y="0" type="line"/>
    </contour>
    <contour>
      <point x="234" y="678" type="qcurve" smooth="yes"/>
      <point x="132" y="678" type="line"/>
      <point x="132" y="2" type="line"/>
      <point x="241" y="2" type="line" smooth="yes"/>
      <point x="293" y="2"/>
      <point x="394" y="33"/>
      <point x="477" y="109"/>
      <point x="526" y="244"/>
      <point x="526" y="348" type="qcurve" smooth="yes"/>
      <point x="526" y="452"/>
      <point x="476" y="581"/>
      <point x="391" y="652"/>
      <point x="288" y="678"/>
    </contour>
    <contour>
      <point x="309" y="340" type="move" name="center"/>
    </contour>
    <contour>
      <point x="310" y="0" type="move" name="bottom"/>
    </contour>
    <contour>
      <point x="289" y="680" type="move" name="top"/>
    </contour>
  </outline>
</glyph>
<glyph name="G" format="1">
  <advance width="599"/>
  <unicode hex="0047"/>
  <outline>
    <contour>
      <point x="343" y="690" type="qcurve" smooth="yes"/>
      <point x="390" y="690"/>
      <point x="464" y="662"/>
      <point x="500" y="635" type="qcurve"/>
      <point x="499" y="633" type="line"/>
      <point x="464" y="660"/>
      <point x="389" y="688"/>
      <point x="343" y="688" type="qcurve" smooth="yes"/>
      <point x="296" y="688"/>
      <point x="205" y="647"/>
      <point x="131" y="562"/>
      <point x="87" y="433"/>
      <point x="87" y="345" type="qcurve" smooth="yes"/>
      <point x="87" y="231"/>
      <point x="152" y="74"/>
      <point x="272" y="-7"/>
      <point x="353" y="-7" type="qcurve" smooth="yes"/>
      <point x="406" y="-7"/>
      <point x="489" y="23"/>
      <point x="517" y="40" type="qcurve"/>
      <point x="517" y="340" type="line"/>
      <point x="366" y="340" type="line"/>
      <point x="366" y="342" type="line"/>
      <point x="519" y="342" type="line"/>
      <point x="519" y="39" type="line"/>
      <point x="489" y="21"/>
      <point x="406" y="-9"/>
      <point x="353" y="-9" type="qcurve" smooth="yes"/>
      <point x="272" y="-9"/>
      <point x="151" y="72"/>
      <point x="85" y="230"/>
      <point x="85" y="345" type="qcurve" smooth="yes"/>
      <point x="85" y="434"/>
      <point x="129" y="564"/>
      <point x="204" y="649"/>
      <point x="296" y="690"/>
    </contour>
    <contour>
      <point x="337" y="680" type="move" name="top"/>
    </contour>
    <contour>
      <point x="338" y="0" type="move" name="bottom"/>
    </contour>
  </outline>
</glyph>
<glyph name="J" format="1">
  <advance width="274"/>
  <unicode hex="004A"/>
  <outline>
    <contour>
      <point x="148" y="680" type="line"/>
      <point x="150" y="680" type="line"/>
      <point x="150" y="85" type="line" smooth="yes"/>
      <point x="150" y="51"/>
      <point x="141" y="-2"/>
      <point x="115" y="-42"/>
      <point x="69" y="-76"/>
      <point x="31" y="-91" type="qcurve"/>
      <point x="30" y="-89" type="line"/>
      <point x="80" y="-69"/>
      <point x="130" y="-23"/>
      <point x="148" y="40"/>
      <point x="148" y="85" type="qcurve" smooth="yes"/>
    </contour>
    <contour>
      <point x="150" y="680" type="move" name="top"/>
    </contour>
    <contour>
      <point x="137" y="-188" type="move" name="bottom"/>
    </contour>
  </outline>
</glyph>
<glyph name="M" format="1">
  <advance width="757"/>
  <unicode hex="004D"/>
  <outline>
    <contour>
      <point x="589" y="680" type="line"/>
      <point x="592" y="680" type="line"/>
      <point x="672" y="0" type="line"/>
      <point x="670" y="0" type="line"/>
      <point x="628" y="354" type="line" smooth="yes"/>
      <point x="622" y="411"/>
      <point x="607" y="533"/>
      <point x="594" y="640"/>
      <point x="590" y="676" type="qcurve"/>
      <point x="379" y="85" type="line"/>
      <point x="377" y="85" type="line"/>
      <point x="166" y="676" type="line"/>
      <point x="164" y="658"/>
      <point x="156" y="588"/>
      <point x="145" y="498"/>
      <point x="134" y="403"/>
      <point x="129" y="361" type="qcurve" smooth="yes"/>
      <point x="87" y="0" type="line"/>
      <point x="85" y="0" type="line"/>
      <point x="164" y="680" type="line"/>
      <point x="167" y="680" type="line"/>
      <point x="378" y="88" type="line"/>
    </contour>
    <contour>
      <point x="378" y="680" type="move" name="top"/>
    </contour>
    <contour>
      <point x="379" y="0" type="move" name="bottom"/>
    </contour>
    <contour>
      <point x="681" y="0" type="move" name="bottomright"/>
    </contour>
  </outline>
</glyph>
<glyph name="N" format="1">
  <advance width="654"/>
  <unicode hex="004E"/>
  <outline>
    <contour>
      <point x="522" y="680" type="line"/>
      <point x="524" y="680" type="line"/>
      <point x="524" y="0" type="line"/>
      <point x="521" y="0" type="line"/>
      <point x="132" y="678" type="line"/>
      <point x="132" y="667"/>
      <point x="132" y="636"/>
      <point x="132" y="599"/>
      <point x="132" y="575" type="qcurve" smooth="yes"/>
      <point x="132" y="0" type="line"/>
      <point x="130" y="0" type="line"/>
      <point x="130" y="680" type="line"/>
      <point x="133" y="680" type="line"/>
      <point x="522" y="2" type="line"/>
      <point x="522" y="23"/>
      <point x="522" y="69"/>
      <point x="522" y="116"/>
      <point x="522" y="136" type="qcurve" smooth="yes"/>
    </contour>
    <contour>
      <point x="331" y="680" type="move" name="top"/>
    </contour>
    <contour>
      <point x="321" y="0" type="move" name="bottom"/>
    </contour>
  </outline>
</glyph>
<glyph name="O" format="1">
  <advance width="687"/>
  <unicode hex="004F"/>
  <outline>
    <contour>
      <point x="343" y="690" type="qcurve" smooth="yes"/>
      <point x="424" y="690"/>
      <point x="540" y="608"/>
      <point x="602" y="452"/>
      <point x="602" y="340" type="qcurve" smooth="yes"/>
      <point x="602" y="230"/>
      <point x="542" y="74"/>
      <point x="427" y="-9"/>
      <point x="343" y="-9" type="qcurve" smooth="yes"/>
      <point x="264" y="-9"/>
      <point x="148" y="73"/>
      <point x="85" y="229"/>
      <point x="85" y="338" type="qcurve" smooth="yes"/>
      <point x="85" y="448"/>
      <point x="149" y="605"/>
      <point x="266" y="690"/>
    </contour>
    <contour>
      <point x="343" y="688" type="qcurve" smooth="yes"/>
      <point x="266" y="688"/>
      <point x="151" y="603"/>
      <point x="87" y="447"/>
      <point x="87" y="338" type="qcurve" smooth="yes"/>
      <point x="87" y="230"/>
      <point x="149" y="75"/>
      <point x="264" y="-7"/>
      <point x="343" y="-7" type="qcurve" smooth="yes"/>
      <point x="468" y="-7"/>
      <point x="600" y="177"/>
      <point x="600" y="340" type="qcurve" smooth="yes"/>
      <point x="600" y="506"/>
      <point x="463" y="688"/>
    </contour>
    <contour>
      <point x="422" y="0" type="move" name="ogonek"/>
    </contour>
    <contour>
      <point x="344" y="680" type="move" name="top"/>
    </contour>
    <contour>
      <point x="517" y="680" type="move" name="topright"/>
    </contour>
    <contour>
      <point x="102" y="680" type="move" name="topleft"/>
    </contour>
    <contour>
      <point x="344" y="0" type="move" name="bottom"/>
    </contour>
  </outline>
</glyph>
<glyph name="P" format="1">
  <advance width="552"/>
  <unicode hex="0050"/>
  <outline>
    <contour>
      <point x="132" y="678" type="line"/>
      <point x="132" y="0" type="line"/>
      <point x="130" y="0" type="line"/>
      <point x="130" y="680" type="line"/>
      <point x="252" y="680" type="line" smooth="yes"/>
      <point x="371" y="680"/>
      <point x="487" y="588"/>
      <point x="487" y="485" type="qcurve" smooth="yes"/>
      <point x="487" y="416"/>
      <point x="429" y="330"/>
      <point x="322" y="291"/>
      <point x="249" y="291" type="qcurve" smooth="yes"/>
      <point x="131" y="291" type="line"/>
      <point x="131" y="293" type="line"/>
      <point x="249" y="293" type="line" smooth="yes"/>
      <point x="322" y="293"/>
      <point x="427" y="331"/>
      <point x="485" y="416"/>
      <point x="485" y="485" type="qcurve" smooth="yes"/>
      <point x="485" y="587"/>
      <point x="371" y="678"/>
      <point x="252" y="678" type="qcurve" smooth="yes"/>
    </contour>
    <contour>
      <point x="276" y="680" type="move" name="top"/>
    </contour>
    <contour>
      <point x="276" y="0" type="move" name="bottom"/>
    </contour>
    <contour>
      <point x="80" y="680" type="move" name="topleft"/>
    </contour>
  </outline>
</glyph>
<glyph name="Q" format="1">
  <advance width="674"/>
  <unicode hex="0051"/>
  <outline>
    <contour>
      <point x="616" y="-72" type="qcurve"/>
      <point x="614" y="-73" type="line"/>
      <point x="582" y="-48"/>
      <point x="509" y="-19"/>
      <point x="412" y="-9"/>
      <point x="343" y="-9" type="qcurve" smooth="yes"/>
      <point x="264" y="-9"/>
      <point x="148" y="73"/>
      <point x="85" y="229"/>
      <point x="85" y="338" type="qcurve" smooth="yes"/>
      <point x="85" y="448"/>
      <point x="149" y="605"/>
      <point x="266" y="690"/>
      <point x="343" y="690" type="qcurve" smooth="yes"/>
      <point x="424" y="690"/>
      <point x="540" y="608"/>
      <point x="602" y="452"/>
      <point x="602" y="340" type="qcurve" smooth="yes"/>
      <point x="602" y="237"/>
      <point x="549" y="86"/>
      <point x="447" y="0"/>
      <point x="373" y="-7" type="qcurve"/>
      <point x="453" y="-8"/>
      <point x="569" y="-34"/>
    </contour>
    <contour>
      <point x="343" y="-7" type="qcurve" smooth="yes"/>
      <point x="468" y="-7"/>
      <point x="600" y="177"/>
      <point x="600" y="340" type="qcurve" smooth="yes"/>
      <point x="600" y="506"/>
      <point x="463" y="688"/>
      <point x="343" y="688" type="qcurve" smooth="yes"/>
      <point x="266" y="688"/>
      <point x="151" y="603"/>
      <point x="87" y="447"/>
      <point x="87" y="338" type="qcurve" smooth="yes"/>
      <point x="87" y="230"/>
      <point x="149" y="75"/>
      <point x="264" y="-7"/>
    </contour>
    <contour>
      <point x="337" y="680" type="move" name="top"/>
    </contour>
    <contour>
      <point x="337" y="0" type="move" name="bottom"/>
    </contour>
  </outline>
</glyph>
<glyph name="R" format="1">
  <advance width="561"/>
  <unicode hex="0052"/>
  <outline>
    <contour>
      <point x="132" y="0" type="line"/>
      <point x="130" y="0" type="line"/>
      <point x="130" y="680" type="line"/>
      <point x="267" y="680" type="line" smooth="yes"/>
      <point x="347" y="680"/>
      <point x="441" y="637"/>
      <point x="482" y="559"/>
      <point x="482" y="506" type="qcurve" smooth="yes"/>
      <point x="482" y="445"/>
      <point x="431" y="370"/>
      <point x="354" y="336"/>
      <point x="314" y="334" type="qcurve"/>
      <point x="506" y="0" type="line"/>
      <point x="503" y="0" type="line"/>
      <point x="312" y="334" type="line"/>
      <point x="132" y="334" type="line"/>
    </contour>
    <contour>
      <point x="132" y="678" type="line"/>
      <point x="132" y="336" type="line"/>
      <point x="306" y="336" type="line" smooth="yes"/>
      <point x="349" y="336"/>
      <point x="429" y="370"/>
      <point x="480" y="445"/>
      <point x="480" y="506" type="qcurve" smooth="yes"/>
      <point x="480" y="559"/>
      <point x="440" y="636"/>
      <point x="347" y="678"/>
      <point x="267" y="678" type="qcurve" smooth="yes"/>
    </contour>
    <contour>
      <point x="281" y="680" type="move" name="top"/>
    </contour>
    <contour>
      <point x="301" y="0" type="move" name="bottom"/>
    </contour>
  </outline>
</glyph>
<glyph name="S" format="1">
  <advance width="540"/>
  <unicode hex="0053"/>
  <outline>
    <contour>
      <point x="264" y="690" type="qcurve" smooth="yes"/>
      <point x="326" y="690"/>
      <point x="406" y="654"/>
      <point x="437" y="626" type="qcurve"/>
      <point x="436" y="624" type="line"/>
      <point x="405" y="653"/>
      <point x="325" y="688"/>
      <point x="264" y="688" type="qcurve" smooth="yes"/>
      <point x="212" y="688"/>
      <point x="133" y="648"/>
      <point x="90" y="580"/>
      <point x="90" y="538" type="qcurve" smooth="yes"/>
      <point x="90" y="494"/>
      <point x="123" y="435"/>
      <point x="201" y="392"/>
      <point x="270" y="370" type="qcurve" smooth="yes"/>
      <point x="335" y="350"/>
      <point x="419" y="303"/>
      <point x="460" y="233"/>
      <point x="460" y="178" type="qcurve" smooth="yes"/>
      <point x="460" y="123"/>
      <point x="410" y="39"/>
      <point x="320" y="-9"/>
      <point x="260" y="-9" type="qcurve" smooth="yes"/>
      <point x="191" y="-9"/>
      <point x="102" y="34"/>
      <point x="65" y="69" type="qcurve"/>
      <point x="66" y="71" type="line"/>
      <point x="103" y="36"/>
      <point x="191" y="-7"/>
      <point x="260" y="-7" type="qcurve" smooth="yes"/>
      <point x="319" y="-7"/>
      <point x="408" y="40"/>
      <point x="458" y="123"/>
      <point x="458" y="178" type="qcurve" smooth="yes"/>
      <point x="458" y="233"/>
      <point x="417" y="301"/>
      <point x="333" y="348"/>
      <point x="269" y="368" type="qcurve" smooth="yes"/>
      <point x="201" y="390"/>
      <point x="121" y="433"/>
      <point x="88" y="493"/>
      <point x="88" y="538" type="qcurve" smooth="yes"/>
      <point x="88" y="581"/>
      <point x="132" y="650"/>
      <point x="211" y="690"/>
    </contour>
    <contour>
      <point x="273" y="680" type="move" name="top"/>
    </contour>
    <contour>
      <point x="261" y="0" type="move" name="bottom"/>
    </contour>
  </outline>
</glyph>
<glyph name="U" format="1">
  <advance width="634"/>
  <unicode hex="0055"/>
  <outline>
    <contour>
      <point x="512" y="680" type="line"/>
      <point x="514" y="680" type="line"/>
      <point x="514" y="206" type="line" smooth="yes"/>
      <point x="514" y="145"/>
      <point x="476" y="47"/>
      <point x="389" y="-9"/>
      <point x="317" y="-9" type="qcurve" smooth="yes"/>
      <point x="244" y="-9"/>
      <point x="158" y="47"/>
      <point x="120" y="145"/>
      <point x="120" y="206" type="qcurve" smooth="yes"/>
      <point x="120" y="680" type="line"/>
      <point x="122" y="680" type="line"/>
      <point x="122" y="206" type="line" smooth="yes"/>
      <point x="122" y="145"/>
      <point x="159" y="49"/>
      <point x="245" y="-7"/>
      <point x="317" y="-7" type="qcurve" smooth="yes"/>
      <point x="389" y="-7"/>
      <point x="474" y="49"/>
      <point x="512" y="145"/>
      <point x="512" y="206" type="qcurve" smooth="yes"/>
    </contour>
    <contour>
      <point x="397" y="0" type="move" name="ogonek"/>
    </contour>
    <contour>
      <point x="317" y="680" type="move" name="top"/>
    </contour>
    <contour>
      <point x="524" y="680" type="move" name="topright"/>
    </contour>
    <contour>
      <point x="317" y="0" type="move" name="bottom"/>
    </contour>
  </outline>
</glyph>
<glyph name="b" format="1">
  <advance width="567"/>
  <unicode hex="0062"/>
  <outline>
    <contour>
      <point x="300" y="-9" type="qcurve" smooth="yes"/>
      <point x="241" y="-9"/>
      <point x="157" y="51"/>
      <point x="127" y="98" type="qcurve"/>
      <point x="127" y="0" type="line"/>
      <point x="125" y="0" type="line"/>
      <point x="125" y="730" type="line"/>
      <point x="127" y="730" type="line"/>
      <point x="127" y="421" type="line"/>
      <point x="159" y="467"/>
      <point x="243" y="527"/>
      <point x="304" y="527" type="qcurve" smooth="yes"/>
      <point x="391" y="527"/>
      <point x="482" y="389"/>
      <point x="482" y="264" type="qcurve" smooth="yes"/>
      <point x="482" y="180"/>
      <point x="441" y="57"/>
      <point x="360" y="-9"/>
    </contour>
    <contour>
      <point x="300" y="-7" type="qcurve" smooth="yes"/>
      <point x="389" y="-7"/>
      <point x="480" y="139"/>
      <point x="480" y="264" type="qcurve" smooth="yes"/>
      <point x="480" y="347"/>
      <point x="440" y="463"/>
      <point x="362" y="525"/>
      <point x="304" y="525" type="qcurve" smooth="yes"/>
      <point x="244" y="525"/>
      <point x="162" y="467"/>
      <point x="127" y="418" type="qcurve"/>
      <point x="127" y="101" type="line"/>
      <point x="159" y="52"/>
      <point x="242" y="-7"/>
    </contour>
    <contour>
      <point x="289" y="727" type="move" name="top"/>
    </contour>
    <contour>
      <point x="284" y="0" type="move" name="bottom"/>
    </contour>
  </outline>
</glyph>
<glyph name="c" format="1">
  <advance width="469"/>
  <unicode hex="0063"/>
  <outline>
    <contour>
      <point x="282" y="527" type="qcurve" smooth="yes"/>
      <point x="322" y="527"/>
      <point x="384" y="502"/>
      <point x="410" y="477" type="qcurve"/>
      <point x="408" y="476" type="line"/>
      <point x="382" y="501"/>
      <point x="320" y="525"/>
      <point x="282" y="525" type="qcurve" smooth="yes"/>
      <point x="189" y="525"/>
      <point x="82" y="382"/>
      <point x="82" y="256" type="qcurve" smooth="yes"/>
      <point x="82" y="172"/>
      <point x="134" y="54"/>
      <point x="223" y="-7"/>
      <point x="280" y="-7" type="qcurve" smooth="yes"/>
      <point x="324" y="-7"/>
      <point x="387" y="22"/>
      <point x="412" y="45" type="qcurve"/>
      <point x="414" y="44" type="line"/>
      <point x="389" y="21"/>
      <point x="326" y="-9"/>
      <point x="280" y="-9" type="qcurve" smooth="yes"/>
      <point x="223" y="-9"/>
      <point x="132" y="53"/>
      <point x="80" y="171"/>
      <point x="80" y="256" type="qcurve" smooth="yes"/>
      <point x="80" y="341"/>
      <point x="129" y="462"/>
      <point x="219" y="527"/>
    </contour>
    <contour>
      <point x="269" y="517" type="move" name="top"/>
    </contour>
    <contour>
      <point x="285" y="-1" type="move" name="bottom"/>
    </contour>
  </outline>
</glyph>
<glyph name="e" format="1">
  <advance width="528"/>
  <unicode hex="0065"/>
  <outline>
    <contour>
      <point x="276" y="527" type="qcurve" smooth="yes"/>
      <point x="338" y="527"/>
      <point x="416" y="464"/>
      <point x="453" y="356"/>
      <point x="453" y="288" type="qcurve" smooth="yes"/>
      <point x="453" y="278"/>
      <point x="453" y="263"/>
      <point x="452" y="252" type="qcurve"/>
      <point x="81" y="252" type="line"/>
      <point x="81" y="254" type="line"/>
      <point x="450" y="254" type="line"/>
      <point x="451" y="264"/>
      <point x="451" y="278"/>
      <point x="451" y="288" type="qcurve" smooth="yes"/>
      <point x="451" y="355"/>
      <point x="414" y="462"/>
      <point x="337" y="525"/>
      <point x="276" y="525" type="qcurve" smooth="yes"/>
      <point x="217" y="525"/>
      <point x="129" y="460"/>
      <point x="82" y="339"/>
      <point x="82" y="253" type="qcurve" smooth="yes"/>
      <point x="82" y="170"/>
      <point x="130" y="53"/>
      <point x="218" y="-7"/>
      <point x="276" y="-7" type="qcurve" smooth="yes"/>
      <point x="325" y="-7"/>
      <point x="395" y="24"/>
      <point x="429" y="52" type="qcurve"/>
      <point x="430" y="50" type="line"/>
      <point x="396" y="22"/>
      <point x="326" y="-9"/>
      <point x="276" y="-9" type="qcurve" smooth="yes"/>
      <point x="217" y="-9"/>
      <point x="128" y="52"/>
      <point x="80" y="169"/>
      <point x="80" y="253" type="qcurve" smooth="yes"/>
      <point x="80" y="340"/>
      <point x="128" y="462"/>
      <point x="216" y="527"/>
    </contour>
    <contour>
      <point x="364" y="4" type="move" name="ogonek"/>
    </contour>
    <contour>
      <point x="276" y="0" type="move" name="bottom"/>
    </contour>
    <contour>
      <point x="276" y="517" type="move" name="top"/>
    </contour>
  </outline>
</glyph>
<glyph name="f" format="1">
  <advance width="299"/>
  <unicode hex="0066"/>
  <outline>
    <contour>
      <point x="129" y="0" type="line"/>
      <point x="127" y="0" type="line"/>
      <point x="127" y="515" type="line"/>
      <point x="35" y="515" type="line"/>
      <point x="35" y="517" type="line"/>
      <point x="127" y="517" type="line"/>
      <point x="127" y="618" type="line" smooth="yes"/>
      <point x="127" y="656"/>
      <point x="156" y="707"/>
      <point x="206" y="733"/>
      <point x="238" y="733" type="qcurve" smooth="yes"/>
      <point x="271" y="733"/>
      <point x="327" y="714"/>
      <point x="349" y="700" type="qcurve"/>
      <point x="348" y="698" type="line"/>
      <point x="326" y="712"/>
      <point x="271" y="731"/>
      <point x="238" y="731" type="qcurve" smooth="yes"/>
      <point x="191" y="731"/>
      <point x="129" y="674"/>
      <point x="129" y="618" type="qcurve" smooth="yes"/>
      <point x="129" y="517" type="line"/>
      <point x="280" y="517" type="line"/>
      <point x="280" y="515" type="line"/>
      <point x="129" y="515" type="line"/>
    </contour>
    <contour>
      <point x="240" y="727" type="move" name="top"/>
    </contour>
    <contour>
      <point x="128" y="0" type="move" name="bottom"/>
    </contour>
  </outline>
</glyph>
<glyph name="g" format="1">
  <advance width="487"/>
  <unicode hex="0067"/>
  <outline>
    <contour>
      <point x="252" y="-192" type="qcurve" smooth="yes"/>
      <point x="184" y="-192"/>
      <point x="96" y="-167"/>
      <point x="55" y="-109"/>
      <point x="55" y="-60" type="qcurve"/>
      <point x="57" y="-60" type="line"/>
      <point x="57" y="-109"/>
      <point x="98" y="-165"/>
      <point x="185" y="-190"/>
      <point x="252" y="-190" type="qcurve" smooth="yes"/>
      <point x="319" y="-190"/>
      <point x="406" y="-160"/>
      <point x="450" y="-102"/>
      <point x="450" y="-59" type="qcurve" smooth="yes"/>
      <point x="450" y="-7"/>
      <point x="375" y="54"/>
      <point x="308" y="54" type="qcurve" smooth="yes"/>
      <point x="217" y="54" type="line" smooth="yes"/>
      <point x="162" y="54"/>
      <point x="106" y="94"/>
      <point x="106" y="128" type="qcurve" smooth="yes"/>
      <point x="106" y="158"/>
      <point x="140" y="200"/>
      <point x="162" y="215" type="qcurve"/>
      <point x="125" y="235"/>
      <point x="75" y="304"/>
      <point x="75" y="357" type="qcurve" smooth="yes"/>
      <point x="75" y="409"/>
      <point x="118" y="485"/>
      <point x="193" y="527"/>
      <point x="241" y="527" type="qcurve" smooth="yes"/>
      <point x="300" y="527"/>
      <point x="373" y="529"/>
      <point x="418" y="534"/>
      <point x="448" y="540"/>
      <point x="462" y="544" type="qcurve"/>
      <point x="462" y="542" type="line"/>
      <point x="437" y="535"/>
      <point x="352" y="525"/>
      <point x="272" y="525" type="qcurve"/>
      <point x="346" y="516"/>
      <point x="419" y="423"/>
      <point x="419" y="356" type="qcurve" smooth="yes"/>
      <point x="419" y="304"/>
      <point x="376" y="232"/>
      <point x="300" y="194"/>
      <point x="249" y="194" type="qcurve" smooth="yes"/>
      <point x="225" y="194"/>
      <point x="183" y="205"/>
      <point x="164" y="214" type="qcurve"/>
      <point x="140" y="199"/>
      <point x="108" y="156"/>
      <point x="108" y="128" type="qcurve" smooth="yes"/>
      <point x="108" y="94"/>
      <point x="162" y="56"/>
      <point x="217" y="56" type="qcurve" smooth="yes"/>
      <point x="308" y="56" type="line" smooth="yes"/>
      <point x="377" y="56"/>
      <point x="452" y="-7"/>
      <point x="452" y="-59" type="qcurve" smooth="yes"/>
      <point x="452" y="-124"/>
      <point x="353" y="-192"/>
    </contour>
    <contour>
      <point x="249" y="196" type="qcurve" smooth="yes"/>
      <point x="324" y="196"/>
      <point x="417" y="279"/>
      <point x="417" y="356" type="qcurve" smooth="yes"/>
      <point x="417" y="419"/>
      <point x="366" y="493"/>
      <point x="285" y="525"/>
      <point x="241" y="525" type="qcurve" smooth="yes"/>
      <point x="192" y="525"/>
      <point x="118" y="482"/>
      <point x="77" y="406"/>
      <point x="77" y="357" type="qcurve" smooth="yes"/>
      <point x="77" y="304"/>
      <point x="129" y="232"/>
      <point x="208" y="196"/>
    </contour>
    <contour>
      <point x="244" y="517" type="move" name="top"/>
    </contour>
    <contour>
      <point x="252" y="-188" type="move" name="bottom"/>
    </contour>
  </outline>
</glyph>
<glyph name="h" format="1">
  <advance width="580"/>
  <unicode hex="0068"/>
  <outline>
    <contour>
      <point x="127" y="0" type="line"/>
      <point x="125" y="0" type="line"/>
      <point x="125" y="730" type="line"/>
      <point x="127" y="730" type="line"/>
      <point x="127" y="391" type="line"/>
      <point x="163" y="455"/>
      <point x="261" y="527"/>
      <point x="326" y="527" type="qcurve" smooth="yes"/>
      <point x="397" y="527"/>
      <point x="460" y="441"/>
      <point x="460" y="368" type="qcurve" smooth="yes"/>
      <point x="460" y="0" type="line"/>
      <point x="458" y="0" type="line"/>
      <point x="458" y="368" type="line" smooth="yes"/>
      <point x="458" y="440"/>
      <point x="396" y="525"/>
      <point x="326" y="525" type="qcurve" smooth="yes"/>
      <point x="261" y="525"/>
      <point x="163" y="452"/>
      <point x="127" y="387" type="qcurve"/>
    </contour>
    <contour>
      <point x="293" y="260" type="move" name="center"/>
    </contour>
    <contour>
      <point x="293" y="0" type="move" name="bottom"/>
    </contour>
    <contour>
      <point x="293" y="727" type="move" name="top"/>
    </contour>
  </outline>
</glyph>
<glyph name="m" format="1">
  <advance width="845"/>
  <unicode hex="006D"/>
  <outline>
    <contour>
      <point x="127" y="0" type="line"/>
      <point x="125" y="0" type="line"/>
      <point x="125" y="517" type="line"/>
      <point x="127" y="517" type="line"/>
      <point x="127" y="391" type="line"/>
      <point x="159" y="455"/>
      <point x="243" y="527"/>
      <point x="301" y="527" type="qcurve" smooth="yes"/>
      <point x="360" y="527"/>
      <point x="423" y="453"/>
      <point x="426" y="391" type="qcurve"/>
      <point x="458" y="455"/>
      <point x="542" y="527"/>
      <point x="600" y="527" type="qcurve" smooth="yes"/>
      <point x="664" y="527"/>
      <point x="725" y="441"/>
      <point x="725" y="368" type="qcurve" smooth="yes"/>
      <point x="725" y="0" type="line"/>
      <point x="723" y="0" type="line"/>
      <point x="723" y="368" type="line" smooth="yes"/>
      <point x="723" y="440"/>
      <point x="663" y="525"/>
      <point x="600" y="525" type="qcurve" smooth="yes"/>
      <point x="542" y="525"/>
      <point x="458" y="452"/>
      <point x="426" y="387" type="qcurve"/>
      <point x="426" y="0" type="line"/>
      <point x="424" y="0" type="line"/>
      <point x="424" y="378" type="line" smooth="yes"/>
      <point x="424" y="443"/>
      <point x="364" y="525"/>
      <point x="301" y="525" type="qcurve" smooth="yes"/>
      <point x="243" y="525"/>
      <point x="159" y="452"/>
      <point x="127" y="387" type="qcurve"/>
    </contour>
    <contour>
      <point x="423" y="517" type="move" name="top"/>
    </contour>
    <contour>
      <point x="423" y="0" type="move" name="bottom"/>
    </contour>
  </outline>
</glyph>
<glyph name="n" format="1">
  <advance width="580"/>
  <unicode hex="006E"/>
  <outline>
    <contour>
      <point x="127" y="0" type="line"/>
      <point x="125" y="0" type="line"/>
      <point x="125" y="517" type="line"/>
      <point x="127" y="517" type="line"/>
      <point x="127" y="391" type="line"/>
      <point x="163" y="455"/>
      <point x="261" y="527"/>
      <point x="326" y="527" type="qcurve" smooth="yes"/>
      <point x="397" y="527"/>
      <point x="460" y="442"/>
      <point x="460" y="368" type="qcurve" smooth="yes"/>
      <point x="460" y="0" type="line"/>
      <point x="458" y="0" type="line"/>
      <point x="458" y="368" type="line" smooth="yes"/>
      <point x="458" y="442"/>
      <point x="397" y="525"/>
      <point x="326" y="525" type="qcurve" smooth="yes"/>
      <point x="261" y="525"/>
      <point x="163" y="452"/>
      <point x="127" y="387" type="qcurve"/>
    </contour>
    <contour>
      <point x="295" y="517" type="move" name="top"/>
    </contour>
    <contour>
      <point x="287" y="0" type="move" name="bottom"/>
    </contour>
    <contour>
      <point x="115" y="517" type="move" name="topleft"/>
    </contour>
  </outline>
</glyph>
<glyph name="o" format="1">
  <advance width="559"/>
  <unicode hex="006F"/>
  <outline>
    <contour>
      <point x="279" y="-9" type="qcurve" smooth="yes"/>
      <point x="186" y="-9"/>
      <point x="80" y="133"/>
      <point x="80" y="258" type="qcurve" smooth="yes"/>
      <point x="80" y="345"/>
      <point x="130" y="465"/>
      <point x="221" y="527"/>
      <point x="281" y="527" type="qcurve" smooth="yes"/>
      <point x="373" y="527"/>
      <point x="479" y="387"/>
      <point x="479" y="262" type="qcurve" smooth="yes"/>
      <point x="479" y="176"/>
      <point x="430" y="54"/>
      <point x="341" y="-9"/>
    </contour>
    <contour>
      <point x="279" y="-7" type="qcurve" smooth="yes"/>
      <point x="371" y="-7"/>
      <point x="477" y="134"/>
      <point x="477" y="262" type="qcurve" smooth="yes"/>
      <point x="477" y="386"/>
      <point x="372" y="525"/>
      <point x="281" y="525" type="qcurve" smooth="yes"/>
      <point x="191" y="525"/>
      <point x="82" y="386"/>
      <point x="82" y="258" type="qcurve" smooth="yes"/>
      <point x="82" y="134"/>
      <point x="187" y="-7"/>
    </contour>
    <contour>
      <point x="348" y="0" type="move" name="ogonek"/>
    </contour>
    <contour>
      <point x="280" y="517" type="move" name="top"/>
    </contour>
    <contour>
      <point x="431" y="517" type="move" name="topright"/>
    </contour>
    <contour>
      <point x="280" y="0" type="move" name="bottom"/>
    </contour>
  </outline>
</glyph>
<glyph name="q" format="1">
  <advance width="567"/>
  <unicode hex="0071"/>
  <outline>
    <contour>
      <point x="440" y="425" type="qcurve"/>
      <point x="440" y="517" type="line"/>
      <point x="442" y="517" type="line"/>
      <point x="442" y="-190" type="line"/>
      <point x="440" y="-190" type="line"/>
      <point x="440" y="100" type="line"/>
      <point x="415" y="55"/>
      <point x="336" y="-9"/>
      <point x="267" y="-9" type="qcurve" smooth="yes"/>
      <point x="182" y="-9"/>
      <point x="80" y="130"/>
      <point x="80" y="257" type="qcurve" smooth="yes"/>
      <point x="80" y="337"/>
      <point x="126" y="459"/>
      <point x="214" y="527"/>
      <point x="276" y="527" type="qcurve" smooth="yes"/>
      <point x="319" y="527"/>
      <point x="383" y="496"/>
      <point x="428" y="449"/>
    </contour>
    <contour>
      <point x="267" y="-7" type="qcurve" smooth="yes"/>
      <point x="335" y="-7"/>
      <point x="414" y="57"/>
      <point x="440" y="104" type="qcurve"/>
      <point x="440" y="421" type="line"/>
      <point x="427" y="447"/>
      <point x="383" y="494"/>
      <point x="319" y="525"/>
      <point x="276" y="525" type="qcurve" smooth="yes"/>
      <point x="215" y="525"/>
      <point x="128" y="457"/>
      <point x="82" y="336"/>
      <point x="82" y="257" type="qcurve" smooth="yes"/>
      <point x="82" y="173"/>
      <point x="128" y="55"/>
      <point x="211" y="-7"/>
    </contour>
    <contour>
      <point x="284" y="517" type="move" name="top"/>
    </contour>
    <contour>
      <point x="284" y="-188" type="move" name="bottom"/>
    </contour>
  </outline>
</glyph>
<glyph name="r" format="1">
  <advance width="361"/>
  <unicode hex="0072"/>
  <outline>
    <contour>
      <point x="290" y="527" type="qcurve" smooth="yes"/>
      <point x="305" y="527"/>
      <point x="326" y="524"/>
      <point x="336" y="522" type="qcurve"/>
      <point x="336" y="520" type="line"/>
      <point x="326" y="522"/>
      <point x="305" y="525"/>
      <point x="290" y="525" type="qcurve" smooth="yes"/>
      <point x="229" y="525"/>
      <point x="153" y="454"/>
      <point x="127" y="368" type="qcurve"/>
      <point x="127" y="0" type="line"/>
      <point x="125" y="0" type="line"/>
      <point x="125" y="517" type="line"/>
      <point x="127" y="517" type="line"/>
      <point x="127" y="375" type="line"/>
      <point x="152" y="458"/>
      <point x="229" y="527"/>
    </contour>
    <contour>
      <point x="230" y="517" type="move" name="top"/>
    </contour>
    <contour>
      <point x="126" y="0" type="move" name="bottom"/>
    </contour>
  </outline>
</glyph>
<glyph name="u" format="1">
  <advance width="575"/>
  <unicode hex="0075"/>
  <outline>
    <contour>
      <point x="448" y="517" type="line"/>
      <point x="450" y="517" type="line"/>
      <point x="450" y="0" type="line"/>
      <point x="448" y="0" type="line"/>
      <point x="448" y="116" type="line"/>
      <point x="417" y="59"/>
      <point x="326" y="-9"/>
      <point x="261" y="-9" type="qcurve" smooth="yes"/>
      <point x="196" y="-9"/>
      <point x="120" y="72"/>
      <point x="120" y="150" type="qcurve" smooth="yes"/>
      <point x="120" y="517" type="line"/>
      <point x="122" y="517" type="line"/>
      <point x="122" y="150" type="line" smooth="yes"/>
      <point x="122" y="74"/>
      <point x="197" y="-7"/>
      <point x="261" y="-7" type="qcurve" smooth="yes"/>
      <point x="326" y="-7"/>
      <point x="417" y="64"/>
      <point x="448" y="120" type="qcurve"/>
    </contour>
    <contour>
      <point x="460" y="0" type="move" name="ogonek"/>
    </contour>
    <contour>
      <point x="290" y="517" type="move" name="top"/>
    </contour>
    <contour>
      <point x="460" y="517" type="move" name="topright"/>
    </contour>
    <contour>
      <point x="290" y="0" type="move" name="bottom"/>
    </contour>
  </outline>
</glyph>
<glyph name="y" format="1">
  <advance width="434"/>
  <unicode hex="0079"/>
  <outline>
    <contour>
      <point x="402" y="517" type="line"/>
      <point x="404" y="517" type="line"/>
      <point x="226" y="0" type="line" smooth="yes"/>
      <point x="207" y="-56"/>
      <point x="171" y="-129"/>
      <point x="113" y="-174"/>
      <point x="61" y="-189" type="qcurve"/>
      <point x="61" y="-187" type="line"/>
      <point x="112" y="-172"/>
      <point x="169" y="-128"/>
      <point x="205" y="-56"/>
      <point x="224" y="0" type="qcurve"/>
      <point x="222" y="0" type="line"/>
      <point x="30" y="517" type="line"/>
      <point x="32" y="517" type="line"/>
      <point x="224" y="0" type="line"/>
    </contour>
    <contour>
      <point x="217" y="517" type="move" name="top"/>
    </contour>
    <contour>
      <point x="226" y="-188" type="move" name="bottom"/>
    </contour>
  </outline>
</glyph>
<glyph name="braceleft" format="1">
  <advance width="326"/>
  <unicode hex="007B"/>
  <outline>
    <contour>
      <point x="231" y="808" type="qcurve"/>
      <point x="231" y="806" type="line"/>
      <point x="194" y="806"/>
      <point x="153" y="763"/>
      <point x="153" y="713" type="qcurve" smooth="yes"/>
      <point x="153" y="427" type="line" smooth="yes"/>
      <point x="153" y="390"/>
      <point x="113" y="349"/>
      <point x="77" y="349" type="qcurve"/>
      <point x="113" y="349"/>
      <point x="153" y="308"/>
      <point x="153" y="271" type="qcurve" smooth="yes"/>
      <point x="153" y="-15" type="line" smooth="yes"/>
      <point x="153" y="-65"/>
      <point x="194" y="-108"/>
      <point x="231" y="-108" type="qcurve"/>
      <point x="231" y="-110" type="line"/>
      <point x="207" y="-110"/>
      <point x="171" y="-91"/>
      <point x="151" y="-50"/>
      <point x="151" y="-16" type="qcurve" smooth="yes"/>
      <point x="151" y="271" type="line" smooth="yes"/>
      <point x="151" y="310"/>
      <point x="109" y="348"/>
      <point x="75" y="348" type="qcurve"/>
      <point x="75" y="350" type="line"/>
      <point x="109" y="350"/>
      <point x="151" y="388"/>
      <point x="151" y="427" type="qcurve" smooth="yes"/>
      <point x="151" y="714" type="line" smooth="yes"/>
      <point x="151" y="748"/>
      <point x="171" y="789"/>
      <point x="207" y="808"/>
    </contour>
  </outline>
</glyph>
<glyph name="braceright" format="1">
  <advance width="326"/>
  <unicode hex="007D"/>
  <outline>
    <contour>
      <point x="95" y="806" type="qcurve"/>
      <point x="95" y="808" type="line"/>
      <point x="120" y="808"/>
      <point x="155" y="789"/>
      <point x="175" y="748"/>
      <point x="175" y="714" type="qcurve" smooth="yes"/>
      <point x="175" y="427" type="line" smooth="yes"/>
      <point x="175" y="388"/>
      <point x="217" y="350"/>
      <point x="251" y="350" type="qcurve"/>
      <point x="251" y="348" type="line"/>
      <point x="217" y="348"/>
      <point x="175" y="310"/>
      <point x="175" y="271" type="qcurve" smooth="yes"/>
      <point x="175" y="-16" type="line" smooth="yes"/>
      <point x="175" y="-50"/>
      <point x="155" y="-91"/>
      <point x="120" y="-110"/>
      <point x="95" y="-110" type="qcurve"/>
      <point x="95" y="-108" type="line"/>
      <point x="132" y="-108"/>
      <point x="173" y="-65"/>
      <point x="173" y="-15" type="qcurve" smooth="yes"/>
      <point x="173" y="271" type="line" smooth="yes"/>
      <point x="173" y="308"/>
      <point x="213" y="349"/>
      <point x="249" y="349" type="qcurve"/>
      <point x="213" y="349"/>
      <point x="173" y="390"/>
      <point x="173" y="427" type="qcurve" smooth="yes"/>
      <point x="173" y="713" type="line" smooth="yes"/>
      <point x="173" y="763"/>
      <point x="132" y="806"/>
    </contour>
  </outline>
</glyph>
<glyph name="asciitilde" format="1">
  <advance width="454"/>
  <unicode hex="007E"/>
  <outline>
    <contour>
      <point x="299" y="291" type="qcurve" smooth="yes"/>
      <point x="281" y="291"/>
      <point x="246" y="308"/>
      <point x="211" y="329"/>
      <point x="175" y="346"/>
      <point x="157" y="346" type="qcurve" smooth="yes"/>
      <point x="132" y="346"/>
      <point x="99" y="320"/>
      <point x="87" y="303" type="qcurve"/>
      <point x="85" y="303" type="line"/>
      <point x="92" y="314"/>
      <point x="113" y="335"/>
      <point x="140" y="348"/>
      <point x="157" y="348" type="qcurve" smooth="yes"/>
      <point x="175" y="348"/>
      <point x="211" y="331"/>
      <point x="246" y="310"/>
      <point x="281" y="293"/>
      <point x="299" y="293" type="qcurve" smooth="yes"/>
      <point x="325" y="293"/>
      <point x="357" y="319"/>
      <point x="367" y="336" type="qcurve"/>
      <point x="369" y="336" type="line"/>
      <point x="364" y="325"/>
      <point x="344" y="304"/>
      <point x="317" y="291"/>
    </contour>
    <contour>
      <point x="360" y="332" type="move" name="_center"/>
    </contour>
  </outline>
</glyph>
<glyph name="exclamdown" format="1">
  <advance width="234"/>
  <unicode hex="00A1"/>
  <outline>
    <contour>
      <point x="116" y="254" type="line"/>
      <point x="118" y="254" type="line"/>
      <point x="118" y="-188" type="line"/>
      <point x="116" y="-188" type="line"/>
    </contour>
    <contour>
      <point x="117" y="439" type="qcurve" smooth="yes"/>
      <point x="120" y="439"/>
      <point x="124" y="435"/>
      <point x="124" y="432" type="qcurve" smooth="yes"/>
      <point x="124" y="429"/>
      <point x="120" y="425"/>
      <point x="117" y="425" type="qcurve" smooth="yes"/>
      <point x="114" y="425"/>
      <point x="110" y="429"/>
      <point x="110" y="432" type="qcurve" smooth="yes"/>
      <point x="110" y="435"/>
      <point x="114" y="439"/>
    </contour>
  </outline>
</glyph>
<glyph name="cent" format="1">
  <advance width="469"/>
  <unicode hex="00A2"/>
  <outline>
    <contour>
      <point x="277" y="-144" type="line"/>
      <point x="275" y="-144" type="line"/>
      <point x="275" y="-9" type="line"/>
      <point x="219" y="-8"/>
      <point x="131" y="55"/>
      <point x="80" y="172"/>
      <point x="80" y="256" type="qcurve" smooth="yes"/>
      <point x="80" y="341"/>
      <point x="128" y="462"/>
      <point x="219" y="527"/>
      <point x="281" y="527" type="qcurve"/>
      <point x="281" y="672" type="line"/>
      <point x="283" y="672" type="line"/>
      <point x="283" y="527" type="line"/>
      <point x="323" y="527"/>
      <point x="384" y="502"/>
      <point x="410" y="477" type="qcurve"/>
      <point x="408" y="476" type="line"/>
      <point x="382" y="501"/>
      <point x="320" y="525"/>
      <point x="282" y="525" type="qcurve" smooth="yes"/>
      <point x="189" y="525"/>
      <point x="82" y="382"/>
      <point x="82" y="256" type="qcurve" smooth="yes"/>
      <point x="82" y="172"/>
      <point x="134" y="54"/>
      <point x="223" y="-7"/>
      <point x="280" y="-7" type="qcurve" smooth="yes"/>
      <point x="324" y="-7"/>
      <point x="387" y="22"/>
      <point x="412" y="45" type="qcurve"/>
      <point x="414" y="44" type="line"/>
      <point x="385" y="16"/>
      <point x="320" y="-9"/>
      <point x="277" y="-9" type="qcurve"/>
    </contour>
    <contour>
      <point x="269" y="517" type="move" name="top"/>
    </contour>
    <contour>
      <point x="285" y="-1" type="move" name="bottom"/>
    </contour>
  </outline>
</glyph>
<glyph name="sterling" format="1">
  <advance width="492"/>
  <unicode hex="00A3"/>
  <outline>
    <contour>
      <point x="423" y="0" type="line"/>
      <point x="70" y="0" type="line"/>
      <point x="70" y="2" type="line"/>
      <point x="98" y="13"/>
      <point x="132" y="41"/>
      <point x="149" y="85"/>
      <point x="149" y="118" type="qcurve" smooth="yes"/>
      <point x="149" y="354" type="line"/>
      <point x="93" y="354" type="line"/>
      <point x="93" y="356" type="line"/>
      <point x="149" y="356" type="line"/>
      <point x="149" y="506" type="line" smooth="yes"/>
      <point x="149" y="552"/>
      <point x="181" y="626"/>
      <point x="246" y="670"/>
      <point x="295" y="670" type="qcurve" smooth="yes"/>
      <point x="339" y="670"/>
      <point x="402" y="638"/>
      <point x="427" y="609" type="qcurve"/>
      <point x="425" y="608" type="line"/>
      <point x="401" y="637"/>
      <point x="339" y="668"/>
      <point x="295" y="668" type="qcurve" smooth="yes"/>
      <point x="222" y="668"/>
      <point x="151" y="574"/>
      <point x="151" y="506" type="qcurve" smooth="yes"/>
      <point x="151" y="356" type="line"/>
      <point x="361" y="356" type="line"/>
      <point x="361" y="354" type="line"/>
      <point x="151" y="354" type="line"/>
      <point x="151" y="118" type="line" smooth="yes"/>
      <point x="151" y="69"/>
      <point x="115" y="18"/>
      <point x="75" y="2" type="qcurve"/>
      <point x="423" y="2" type="line"/>
    </contour>
  </outline>
</glyph>
<glyph name="currency" format="1">
  <advance width="560"/>
  <unicode hex="00A4"/>
  <outline>
    <contour>
      <point x="170" y="211" type="qcurve"/>
      <point x="92" y="135" type="line"/>
      <point x="90" y="136" type="line"/>
      <point x="168" y="212" type="line"/>
      <point x="143" y="235"/>
      <point x="114" y="300"/>
      <point x="114" y="339" type="qcurve" smooth="yes"/>
      <point x="114" y="377"/>
      <point x="141" y="441"/>
      <point x="164" y="463" type="qcurve"/>
      <point x="90" y="540" type="line"/>
      <point x="92" y="541" type="line"/>
      <point x="165" y="465" type="line"/>
      <point x="187" y="486"/>
      <point x="245" y="510"/>
      <point x="279" y="510" type="qcurve" smooth="yes"/>
      <point x="314" y="510"/>
      <point x="372" y="486"/>
      <point x="394" y="464" type="qcurve"/>
      <point x="468" y="541" type="line"/>
      <point x="470" y="540" type="line"/>
      <point x="396" y="463" type="line"/>
      <point x="419" y="440"/>
      <point x="444" y="376"/>
      <point x="444" y="339" type="qcurve" smooth="yes"/>
      <point x="444" y="300"/>
      <point x="416" y="236"/>
      <point x="391" y="213" type="qcurve"/>
      <point x="470" y="136" type="line"/>
      <point x="468" y="135" type="line"/>
      <point x="389" y="212" type="line"/>
      <point x="367" y="192"/>
      <point x="311" y="170"/>
      <point x="279" y="170" type="qcurve" smooth="yes"/>
      <point x="248" y="170"/>
      <point x="192" y="192"/>
    </contour>
    <contour>
      <point x="279" y="172" type="qcurve" smooth="yes"/>
      <point x="324" y="172"/>
      <point x="398" y="214"/>
      <point x="442" y="290"/>
      <point x="442" y="339" type="qcurve" smooth="yes"/>
      <point x="442" y="387"/>
      <point x="401" y="463"/>
      <point x="327" y="508"/>
      <point x="279" y="508" type="qcurve" smooth="yes"/>
      <point x="232" y="508"/>
      <point x="158" y="463"/>
      <point x="116" y="387"/>
      <point x="116" y="339" type="qcurve" smooth="yes"/>
      <point x="116" y="290"/>
      <point x="160" y="214"/>
      <point x="235" y="172"/>
    </contour>
  </outline>
</glyph>
<glyph name="section" format="1">
  <advance width="531"/>
  <unicode hex="00A7"/>
  <outline>
    <contour>
      <point x="272" y="670" type="qcurve" smooth="yes"/>
      <point x="313" y="670"/>
      <point x="377" y="650"/>
      <point x="410" y="630" type="qcurve"/>
      <point x="409" y="628" type="line"/>
      <point x="377" y="648"/>
      <point x="313" y="668"/>
      <point x="272" y="668" type="qcurve" smooth="yes"/>
      <point x="237" y="668"/>
      <point x="175" y="640"/>
      <point x="137" y="588"/>
      <point x="137" y="552" type="qcurve" smooth="yes"/>
      <point x="137" y="523"/>
      <point x="161" y="481"/>
      <point x="224" y="446"/>
      <point x="280" y="426" type="qcurve" smooth="yes"/>
      <point x="332" y="408"/>
      <point x="393" y="371"/>
      <point x="421" y="321"/>
      <point x="421" y="284" type="qcurve" smooth="yes"/>
      <point x="421" y="239"/>
      <point x="372" y="176"/>
      <point x="334" y="155" type="qcurve"/>
      <point x="333" y="157" type="line"/>
      <point x="370" y="177"/>
      <point x="419" y="239"/>
      <point x="419" y="284" type="qcurve" smooth="yes"/>
      <point x="419" y="321"/>
      <point x="392" y="370"/>
      <point x="331" y="406"/>
      <point x="280" y="424" type="qcurve" smooth="yes"/>
      <point x="223" y="444"/>
      <point x="160" y="480"/>
      <point x="135" y="523"/>
      <point x="135" y="552" type="qcurve" smooth="yes"/>
      <point x="135" y="589"/>
      <point x="174" y="641"/>
      <point x="237" y="670"/>
    </contour>
    <contour>
      <point x="205" y="456" type="qcurve"/>
      <point x="206" y="454" type="line"/>
      <point x="158" y="423"/>
      <point x="112" y="362"/>
      <point x="112" y="321" type="qcurve" smooth="yes"/>
      <point x="112" y="286"/>
      <point x="141" y="239"/>
      <point x="205" y="205"/>
      <point x="257" y="187" type="qcurve" smooth="yes"/>
      <point x="312" y="170"/>
      <point x="372" y="136"/>
      <point x="397" y="93"/>
      <point x="398" y="61" type="qcurve" smooth="yes"/>
      <point x="398" y="25"/>
      <point x="362" y="-29"/>
      <point x="301" y="-59"/>
      <point x="261" y="-59" type="qcurve" smooth="yes"/>
      <point x="216" y="-59"/>
      <point x="147" y="-39"/>
      <point x="115" y="-18" type="qcurve"/>
      <point x="117" y="-16" type="line"/>
      <point x="147" y="-37"/>
      <point x="216" y="-57"/>
      <point x="261" y="-57" type="qcurve" smooth="yes"/>
      <point x="319" y="-57"/>
      <point x="396" y="6"/>
      <point x="396" y="61" type="qcurve" smooth="yes"/>
      <point x="395" y="93"/>
      <point x="370" y="135"/>
      <point x="311" y="168"/>
      <point x="257" y="185" type="qcurve" smooth="yes"/>
      <point x="205" y="203"/>
      <point x="140" y="237"/>
      <point x="110" y="285"/>
      <point x="110" y="321" type="qcurve" smooth="yes"/>
      <point x="110" y="362"/>
      <point x="156" y="425"/>
    </contour>
  </outline>
</glyph>
<glyph name="dieresis" format="1">
  <advance width="221"/>
  <unicode hex="00A8"/>
  <outline>
    <contour>
      <point x="185" y="691" type="qcurve" smooth="yes"/>
      <point x="188" y="691"/>
      <point x="191" y="687"/>
      <point x="191" y="685" type="qcurve" smooth="yes"/>
      <point x="191" y="683"/>
      <point x="188" y="679"/>
      <point x="185" y="679" type="qcurve" smooth="yes"/>
      <point x="182" y="679"/>
      <point x="179" y="683"/>
      <point x="179" y="685" type="qcurve" smooth="yes"/>
      <point x="179" y="687"/>
      <point x="182" y="691"/>
    </contour>
    <contour>
      <point x="36" y="691" type="qcurve" smooth="yes"/>
      <point x="39" y="691"/>
      <point x="42" y="687"/>
      <point x="42" y="685" type="qcurve" smooth="yes"/>
      <point x="42" y="683"/>
      <point x="39" y="679"/>
      <point x="36" y="679" type="qcurve" smooth="yes"/>
      <point x="33" y="679"/>
      <point x="30" y="683"/>
      <point x="30" y="685" type="qcurve" smooth="yes"/>
      <point x="30" y="687"/>
      <point x="33" y="691"/>
    </contour>
  </outline>
</glyph>
<glyph name="copyright" format="1">
  <advance width="810"/>
  <unicode hex="00A9"/>
  <outline>
    <contour>
      <point x="405" y="711" type="qcurve" smooth="yes"/>
      <point x="463" y="711"/>
      <point x="560" y="671"/>
      <point x="632" y="597"/>
      <point x="672" y="496"/>
      <point x="672" y="435" type="qcurve" smooth="yes"/>
      <point x="672" y="375"/>
      <point x="632" y="274"/>
      <point x="560" y="200"/>
      <point x="463" y="159"/>
      <point x="405" y="159" type="qcurve" smooth="yes"/>
      <point x="347" y="159"/>
      <point x="250" y="199"/>
      <point x="178" y="273"/>
      <point x="138" y="374"/>
      <point x="138" y="435" type="qcurve" smooth="yes"/>
      <point x="138" y="495"/>
      <point x="178" y="596"/>
      <point x="250" y="670"/>
      <point x="347" y="711"/>
    </contour>
    <contour>
      <point x="406" y="602" type="qcurve" smooth="yes"/>
      <point x="432" y="602"/>
      <point x="467" y="587"/>
      <point x="480" y="576" type="qcurve"/>
      <point x="479" y="574" type="line"/>
      <point x="466" y="585"/>
      <point x="432" y="600"/>
      <point x="406" y="600" type="qcurve" smooth="yes"/>
      <point x="379" y="600"/>
      <point x="320" y="566"/>
      <point x="279" y="495"/>
      <point x="279" y="437" type="qcurve" smooth="yes"/>
      <point x="279" y="360"/>
      <point x="352" y="273"/>
      <point x="406" y="273" type="qcurve" smooth="yes"/>
      <point x="436" y="273"/>
      <point x="476" y="291"/>
      <point x="490" y="303" type="qcurve"/>
      <point x="491" y="301" type="line"/>
      <point x="478" y="289"/>
      <point x="436" y="271"/>
      <point x="406" y="271" type="qcurve" smooth="yes"/>
      <point x="352" y="271"/>
      <point x="277" y="360"/>
      <point x="277" y="437" type="qcurve" smooth="yes"/>
      <point x="277" y="496"/>
      <point x="319" y="568"/>
      <point x="379" y="602"/>
    </contour>
    <contour>
      <point x="405" y="709" type="qcurve" smooth="yes"/>
      <point x="328" y="709"/>
      <point x="208" y="639"/>
      <point x="140" y="515"/>
      <point x="140" y="435" type="qcurve" smooth="yes"/>
      <point x="140" y="354"/>
      <point x="208" y="230"/>
      <point x="328" y="161"/>
      <point x="405" y="161" type="qcurve" smooth="yes"/>
      <point x="482" y="161"/>
      <point x="602" y="231"/>
      <point x="670" y="355"/>
      <point x="670" y="435" type="qcurve" smooth="yes"/>
      <point x="670" y="517"/>
      <point x="602" y="640"/>
      <point x="482" y="709"/>
    </contour>
  </outline>
</glyph>
<glyph name="ordfeminine" format="1">
  <advance width="500"/>
  <unicode hex="00AA"/>
  <outline>
    <contour>
      <point x="218" y="278" type="qcurve" smooth="yes"/>
      <point x="160" y="278"/>
      <point x="98" y="344"/>
      <point x="98" y="394" type="qcurve" smooth="yes"/>
      <point x="98" y="451"/>
      <point x="184" y="513"/>
      <point x="257" y="513" type="qcurve" smooth="yes"/>
      <point x="356" y="513" type="line"/>
      <point x="356" y="564" type="line" smooth="yes"/>
      <point x="356" y="617"/>
      <point x="307" y="678"/>
      <point x="245" y="678" type="qcurve" smooth="yes"/>
      <point x="218" y="678"/>
      <point x="161" y="666"/>
      <point x="128" y="653" type="qcurve"/>
      <point x="127" y="655" type="line"/>
      <point x="160" y="668"/>
      <point x="217" y="680"/>
      <point x="245" y="680" type="qcurve" smooth="yes"/>
      <point x="308" y="680"/>
      <point x="358" y="618"/>
      <point x="358" y="564" type="qcurve" smooth="yes"/>
      <point x="358" y="368" type="line" smooth="yes"/>
      <point x="358" y="327"/>
      <point x="375" y="288"/>
      <point x="401" y="280" type="qcurve"/>
      <point x="400" y="278" type="line"/>
      <point x="374" y="286"/>
      <point x="356" y="323"/>
      <point x="356" y="363" type="qcurve"/>
      <point x="335" y="322"/>
      <point x="269" y="278"/>
    </contour>
    <contour>
      <point x="407" y="0" type="line"/>
      <point x="99" y="0" type="line"/>
      <point x="99" y="2" type="line"/>
      <point x="407" y="2" type="line"/>
    </contour>
    <contour>
      <point x="218" y="280" type="qcurve" smooth="yes"/>
      <point x="270" y="280"/>
      <point x="334" y="325"/>
      <point x="356" y="367" type="qcurve"/>
      <point x="356" y="511" type="line"/>
      <point x="257" y="511" type="line" smooth="yes"/>
      <point x="184" y="511"/>
      <point x="100" y="450"/>
      <point x="100" y="394" type="qcurve" smooth="yes"/>
      <point x="100" y="345"/>
      <point x="161" y="280"/>
    </contour>
  </outline>
</glyph>
<glyph name="registered" format="1">
  <advance width="634"/>
  <unicode hex="00AE"/>
  <outline>
    <contour>
      <point x="317" y="294" type="qcurve" smooth="yes"/>
      <point x="254" y="294"/>
      <point x="161" y="349"/>
      <point x="110" y="442"/>
      <point x="110" y="499" type="qcurve" smooth="yes"/>
      <point x="110" y="557"/>
      <point x="157" y="652"/>
      <point x="249" y="709"/>
      <point x="317" y="709" type="qcurve" smooth="yes"/>
      <point x="380" y="709"/>
      <point x="473" y="654"/>
      <point x="524" y="562"/>
      <point x="524" y="504" type="qcurve" smooth="yes"/>
      <point x="524" y="447"/>
      <point x="477" y="351"/>
      <point x="385" y="294"/>
    </contour>
    <contour>
      <point x="317" y="296" type="qcurve" smooth="yes"/>
      <point x="385" y="296"/>
      <point x="476" y="353"/>
      <point x="522" y="448"/>
      <point x="522" y="504" type="qcurve" smooth="yes"/>
      <point x="522" y="561"/>
      <point x="472" y="653"/>
      <point x="380" y="707"/>
      <point x="317" y="707" type="qcurve" smooth="yes"/>
      <point x="249" y="707"/>
      <point x="158" y="650"/>
      <point x="112" y="556"/>
      <point x="112" y="499" type="qcurve" smooth="yes"/>
      <point x="112" y="443"/>
      <point x="162" y="350"/>
      <point x="254" y="296"/>
    </contour>
    <contour>
      <point x="252" y="372" type="line"/>
      <point x="250" y="372" type="line"/>
      <point x="250" y="639" type="line"/>
      <point x="306" y="639" type="line" smooth="yes"/>
      <point x="348" y="639"/>
      <point x="397" y="604"/>
      <point x="397" y="566" type="qcurve" smooth="yes"/>
      <point x="397" y="530"/>
      <point x="356" y="497"/>
      <point x="332" y="495" type="qcurve"/>
      <point x="406" y="371" type="line"/>
      <point x="404" y="371" type="line"/>
      <point x="330" y="495" type="line"/>
      <point x="252" y="495" type="line"/>
    </contour>
    <contour>
      <point x="252" y="637" type="line"/>
      <point x="252" y="497" type="line"/>
      <point x="324" y="497" type="line" smooth="yes"/>
      <point x="353" y="497"/>
      <point x="395" y="531"/>
      <point x="395" y="566" type="qcurve" smooth="yes"/>
      <point x="395" y="602"/>
      <point x="348" y="637"/>
      <point x="306" y="637" type="qcurve" smooth="yes"/>
    </contour>
  </outline>
</glyph>
<glyph name="degree" format="1">
  <advance width="521"/>
  <unicode hex="00B0"/>
  <outline>
    <contour>
      <point x="220" y="423" type="qcurve" smooth="yes"/>
      <point x="279" y="423"/>
      <point x="344" y="496"/>
      <point x="344" y="555" type="qcurve" smooth="yes"/>
      <point x="344" y="613"/>
      <point x="279" y="688"/>
      <point x="220" y="688" type="qcurve" smooth="yes"/>
      <point x="166" y="688"/>
      <point x="97" y="613"/>
      <point x="97" y="556" type="qcurve" smooth="yes"/>
      <point x="97" y="496"/>
      <point x="167" y="423"/>
    </contour>
    <contour>
      <point x="220" y="421" type="qcurve" smooth="yes"/>
      <point x="184" y="421"/>
      <point x="127" y="455"/>
      <point x="95" y="516"/>
      <point x="95" y="556" type="qcurve" smooth="yes"/>
      <point x="95" y="594"/>
      <point x="127" y="655"/>
      <point x="183" y="690"/>
      <point x="220" y="690" type="qcurve" smooth="yes"/>
      <point x="260" y="690"/>
      <point x="316" y="655"/>
      <point x="346" y="594"/>
      <point x="346" y="555" type="qcurve" smooth="yes"/>
      <point x="346" y="516"/>
      <point x="316" y="455"/>
      <point x="260" y="421"/>
    </contour>
  </outline>
</glyph>
<glyph name="paragraph" format="1">
  <advance width="683"/>
  <unicode hex="00B6"/>
  <outline>
    <contour>
      <point x="342" y="680" type="qcurve" smooth="yes"/>
      <point x="493" y="681" type="line"/>
      <point x="493" y="-190" type="line"/>
      <point x="491" y="-190" type="line"/>
      <point x="491" y="679" type="line"/>
      <point x="343" y="678" type="line"/>
      <point x="343" y="-190" type="line"/>
      <point x="341" y="-190" type="line"/>
      <point x="341" y="312" type="line"/>
      <point x="264" y="312"/>
      <point x="171" y="364"/>
      <point x="130" y="448"/>
      <point x="130" y="496" type="qcurve" smooth="yes"/>
      <point x="130" y="555"/>
      <point x="184" y="637"/>
      <point x="280" y="680"/>
    </contour>
  </outline>
</glyph>
<glyph name="ordmasculine" format="1">
  <advance width="500"/>
  <unicode hex="00BA"/>
  <outline>
    <contour>
      <point x="251" y="680" type="qcurve" smooth="yes"/>
      <point x="325" y="680"/>
      <point x="410" y="576"/>
      <point x="410" y="482" type="qcurve" smooth="yes"/>
      <point x="410" y="385"/>
      <point x="323" y="278"/>
      <point x="249" y="278" type="qcurve" smooth="yes"/>
      <point x="175" y="278"/>
      <point x="90" y="385"/>
      <point x="90" y="479" type="qcurve" smooth="yes"/>
      <point x="90" y="576"/>
      <point x="178" y="680"/>
    </contour>
    <contour>
      <point x="251" y="678" type="qcurve" smooth="yes"/>
      <point x="179" y="678"/>
      <point x="92" y="575"/>
      <point x="92" y="479" type="qcurve" smooth="yes"/>
      <point x="92" y="386"/>
      <point x="176" y="280"/>
      <point x="249" y="280" type="qcurve" smooth="yes"/>
      <point x="323" y="280"/>
      <point x="407" y="385"/>
      <point x="407" y="482" type="qcurve" smooth="yes"/>
      <point x="407" y="574"/>
      <point x="324" y="678"/>
    </contour>
    <contour>
      <point x="404" y="0" type="line"/>
      <point x="96" y="0" type="line"/>
      <point x="96" y="2" type="line"/>
      <point x="404" y="2" type="line"/>
    </contour>
  </outline>
</glyph>
<glyph name="questiondown" format="1">
  <advance width="448"/>
  <unicode hex="00BF"/>
  <outline>
    <contour>
      <point x="213" y="-192" type="qcurve" smooth="yes"/>
      <point x="172" y="-192"/>
      <point x="107" y="-159"/>
      <point x="70" y="-103"/>
      <point x="70" y="-68" type="qcurve" smooth="yes"/>
      <point x="70" y="-32"/>
      <point x="97" y="17"/>
      <point x="139" y="52"/>
      <point x="186" y="84"/>
      <point x="228" y="123"/>
      <point x="255" y="177"/>
      <point x="255" y="217" type="qcurve" smooth="yes"/>
      <point x="255" y="255" type="line"/>
      <point x="257" y="255" type="line"/>
      <point x="257" y="217" type="line" smooth="yes"/>
      <point x="257" y="176"/>
      <point x="230" y="122"/>
      <point x="188" y="83"/>
      <point x="141" y="51"/>
      <point x="99" y="16"/>
      <point x="72" y="-32"/>
      <point x="72" y="-68" type="qcurve" smooth="yes"/>
      <point x="72" y="-119"/>
      <point x="152" y="-190"/>
      <point x="213" y="-190" type="qcurve" smooth="yes"/>
      <point x="264" y="-190"/>
      <point x="343" y="-150"/>
      <point x="376" y="-110" type="qcurve"/>
      <point x="378" y="-112" type="line"/>
      <point x="344" y="-152"/>
      <point x="264" y="-192"/>
    </contour>
    <contour>
      <point x="256" y="439" type="qcurve" smooth="yes"/>
      <point x="259" y="439"/>
      <point x="263" y="435"/>
      <point x="263" y="432" type="qcurve" smooth="yes"/>
      <point x="263" y="429"/>
      <point x="259" y="425"/>
      <point x="256" y="425" type="qcurve" smooth="yes"/>
      <point x="253" y="425"/>
      <point x="249" y="429"/>
      <point x="249" y="432" type="qcurve" smooth="yes"/>
      <point x="249" y="435"/>
      <point x="253" y="439"/>
    </contour>
  </outline>
</glyph>
<glyph name="AE" format="1">
  <advance width="750"/>
  <unicode hex="00C6"/>
  <outline>
    <contour>
      <point x="371" y="360" type="line"/>
      <point x="465" y="2" type="line"/>
      <point x="700" y="2" type="line"/>
      <point x="700" y="0" type="line"/>
      <point x="463" y="0" type="line"/>
      <point x="409" y="205" type="line"/>
      <point x="102" y="205" type="line"/>
      <point x="23" y="0" type="line"/>
      <point x="21" y="0" type="line"/>
      <point x="284" y="680" type="line"/>
      <point x="645" y="680" type="line"/>
      <point x="645" y="678" type="line"/>
      <point x="287" y="678" type="line"/>
      <point x="370" y="362" type="line"/>
      <point x="635" y="362" type="line"/>
      <point x="635" y="360" type="line"/>
    </contour>
    <contour>
      <point x="285" y="678" type="line"/>
      <point x="103" y="207" type="line"/>
      <point x="409" y="207" type="line"/>
    </contour>
    <contour>
      <point x="457" y="680" type="move" name="top"/>
    </contour>
    <contour>
      <point x="375" y="0" type="move" name="bottom"/>
    </contour>
  </outline>
</glyph>
<glyph name="Eth" format="1">
  <advance width="607"/>
  <unicode hex="00D0"/>
  <outline>
    <contour>
      <point x="124" y="680" type="line"/>
      <point x="228" y="680" type="line" smooth="yes"/>
      <point x="282" y="680"/>
      <point x="387" y="654"/>
      <point x="471" y="583"/>
      <point x="522" y="452"/>
      <point x="522" y="348" type="qcurve" smooth="yes"/>
      <point x="522" y="243"/>
      <point x="472" y="108"/>
      <point x="389" y="31"/>
      <point x="287" y="0"/>
      <point x="235" y="0" type="qcurve" smooth="yes"/>
      <point x="124" y="0" type="line"/>
      <point x="124" y="352" type="line"/>
      <point x="30" y="352" type="line"/>
      <point x="30" y="354" type="line"/>
      <point x="124" y="354" type="line"/>
    </contour>
    <contour>
      <point x="126" y="2" type="line"/>
      <point x="235" y="2" type="line" smooth="yes"/>
      <point x="287" y="2"/>
      <point x="388" y="33"/>
      <point x="471" y="109"/>
      <point x="520" y="244"/>
      <point x="520" y="348" type="qcurve" smooth="yes"/>
      <point x="520" y="452"/>
      <point x="470" y="581"/>
      <point x="385" y="652"/>
      <point x="282" y="678"/>
      <point x="228" y="678" type="qcurve" smooth="yes"/>
      <point x="126" y="678" type="line"/>
      <point x="126" y="354" type="line"/>
      <point x="322" y="354" type="line"/>
      <point x="322" y="352" type="line"/>
      <point x="126" y="352" type="line"/>
    </contour>
    <contour>
      <point x="303" y="340" type="move" name="center"/>
    </contour>
    <contour>
      <point x="304" y="0" type="move" name="bottom"/>
    </contour>
    <contour>
      <point x="283" y="680" type="move" name="top"/>
    </contour>
  </outline>
</glyph>
<glyph name="Oslash" format="1">
  <advance width="687"/>
  <unicode hex="00D8"/>
  <outline>
    <contour>
      <point x="343" y="690" type="qcurve" smooth="yes"/>
      <point x="424" y="690"/>
      <point x="540" y="608"/>
      <point x="602" y="452"/>
      <point x="602" y="340" type="qcurve" smooth="yes"/>
      <point x="602" y="230"/>
      <point x="542" y="74"/>
      <point x="427" y="-9"/>
      <point x="343" y="-9" type="qcurve" smooth="yes"/>
      <point x="264" y="-9"/>
      <point x="148" y="73"/>
      <point x="85" y="229"/>
      <point x="85" y="338" type="qcurve" smooth="yes"/>
      <point x="85" y="448"/>
      <point x="149" y="605"/>
      <point x="266" y="690"/>
    </contour>
    <contour>
      <point x="343" y="688" type="qcurve" smooth="yes"/>
      <point x="266" y="688"/>
      <point x="151" y="603"/>
      <point x="87" y="447"/>
      <point x="87" y="338" type="qcurve" smooth="yes"/>
      <point x="87" y="230"/>
      <point x="149" y="75"/>
      <point x="264" y="-7"/>
      <point x="343" y="-7" type="qcurve" smooth="yes"/>
      <point x="468" y="-7"/>
      <point x="600" y="177"/>
      <point x="600" y="340" type="qcurve" smooth="yes"/>
      <point x="600" y="423"/>
      <point x="565" y="552"/>
      <point x="499" y="642"/>
      <point x="403" y="688"/>
    </contour>
    <contour>
      <point x="439" y="672" type="line"/>
      <point x="473" y="787" type="line"/>
      <point x="475" y="786" type="line"/>
      <point x="441" y="671" type="line"/>
      <point x="441" y="670" type="line"/>
      <point x="249" y="10" type="line"/>
      <point x="249" y="9" type="line"/>
      <point x="215" y="-103" type="line"/>
      <point x="213" y="-102" type="line"/>
      <point x="247" y="10" type="line"/>
      <point x="247" y="11" type="line"/>
      <point x="439" y="671" type="line"/>
    </contour>
    <contour>
      <point x="335" y="687" type="move" name="top"/>
    </contour>
    <contour>
      <point x="344" y="0" type="move" name="bottom"/>
    </contour>
  </outline>
</glyph>
<glyph name="Thorn" format="1">
  <advance width="552"/>
  <unicode hex="00DE"/>
  <outline>
    <contour>
      <point x="132" y="0" type="line"/>
      <point x="130" y="0" type="line"/>
      <point x="130" y="680" type="line"/>
      <point x="132" y="680" type="line"/>
      <point x="132" y="550" type="line"/>
      <point x="252" y="550" type="line" smooth="yes"/>
      <point x="371" y="550"/>
      <point x="487" y="457"/>
      <point x="487" y="351" type="qcurve" smooth="yes"/>
      <point x="487" y="280"/>
      <point x="429" y="193"/>
      <point x="323" y="154"/>
      <point x="249" y="154" type="qcurve" smooth="yes"/>
      <point x="132" y="154" type="line"/>
    </contour>
    <contour>
      <point x="132" y="548" type="line"/>
      <point x="132" y="156" type="line"/>
      <point x="249" y="156" type="line" smooth="yes"/>
      <point x="322" y="156"/>
      <point x="427" y="195"/>
      <point x="485" y="281"/>
      <point x="485" y="351" type="qcurve" smooth="yes"/>
      <point x="485" y="456"/>
      <point x="371" y="548"/>
      <point x="252" y="548" type="qcurve" smooth="yes"/>
    </contour>
    <contour>
      <point x="276" y="680" type="move" name="top"/>
    </contour>
    <contour>
      <point x="276" y="0" type="move" name="bottom"/>
    </contour>
  </outline>
</glyph>
<glyph name="germandbls" format="1">
  <advance width="570"/>
  <unicode hex="00DF"/>
  <outline>
    <contour>
      <point x="289" y="733" type="qcurve" smooth="yes"/>
      <point x="334" y="733"/>
      <point x="396" y="701"/>
      <point x="429" y="647"/>
      <point x="429" y="612" type="qcurve" smooth="yes"/>
      <point x="429" y="580"/>
      <point x="405" y="535"/>
      <point x="369" y="502"/>
      <point x="333" y="473"/>
      <point x="309" y="441"/>
      <point x="309" y="421" type="qcurve" smooth="yes"/>
      <point x="309" y="392"/>
      <point x="349" y="353"/>
      <point x="407" y="317"/>
      <point x="465" y="270"/>
      <point x="505" y="198"/>
      <point x="505" y="142" type="qcurve" smooth="yes"/>
      <point x="505" y="98"/>
      <point x="473" y="29"/>
      <point x="413" y="-10"/>
      <point x="370" y="-10" type="qcurve" smooth="yes"/>
      <point x="337" y="-10"/>
      <point x="294" y="4"/>
      <point x="279" y="13" type="qcurve"/>
      <point x="280" y="15" type="line"/>
      <point x="296" y="5"/>
      <point x="338" y="-8"/>
      <point x="370" y="-8" type="qcurve" smooth="yes"/>
      <point x="433" y="-8"/>
      <point x="503" y="76"/>
      <point x="503" y="142" type="qcurve" smooth="yes"/>
      <point x="503" y="197"/>
      <point x="463" y="269"/>
      <point x="405" y="315"/>
      <point x="347" y="352"/>
      <point x="307" y="392"/>
      <point x="307" y="421" type="qcurve" smooth="yes"/>
      <point x="307" y="442"/>
      <point x="331" y="473"/>
      <point x="367" y="502"/>
      <point x="403" y="536"/>
      <point x="427" y="581"/>
      <point x="427" y="612" type="qcurve" smooth="yes"/>
      <point x="427" y="662"/>
      <point x="356" y="731"/>
      <point x="289" y="731" type="qcurve" smooth="yes"/>
      <point x="218" y="731"/>
      <point x="127" y="632"/>
      <point x="127" y="541" type="qcurve" smooth="yes"/>
      <point x="127" y="0" type="line"/>
      <point x="125" y="0" type="line"/>
      <point x="125" y="541" type="line" smooth="yes"/>
      <point x="125" y="633"/>
      <point x="217" y="733"/>
    </contour>
  </outline>
</glyph>
<glyph name="ae" format="1">
  <advance width="841"/>
  <unicode hex="00E6"/>
  <outline>
    <contour>
      <point x="589" y="527" type="qcurve" smooth="yes"/>
      <point x="651" y="527"/>
      <point x="729" y="464"/>
      <point x="766" y="356"/>
      <point x="766" y="288" type="qcurve" smooth="yes"/>
      <point x="766" y="278"/>
      <point x="766" y="263"/>
      <point x="765" y="252" type="qcurve"/>
      <point x="394" y="252" type="line"/>
      <point x="394" y="254" type="line"/>
      <point x="763" y="254" type="line"/>
      <point x="764" y="264"/>
      <point x="764" y="278"/>
      <point x="764" y="288" type="qcurve" smooth="yes"/>
      <point x="764" y="355"/>
      <point x="727" y="462"/>
      <point x="650" y="525"/>
      <point x="589" y="525" type="qcurve" smooth="yes"/>
      <point x="530" y="525"/>
      <point x="442" y="460"/>
      <point x="395" y="339"/>
      <point x="395" y="253" type="qcurve" smooth="yes"/>
      <point x="395" y="170"/>
      <point x="443" y="53"/>
      <point x="531" y="-7"/>
      <point x="589" y="-7" type="qcurve" smooth="yes"/>
      <point x="638" y="-7"/>
      <point x="708" y="24"/>
      <point x="742" y="52" type="qcurve"/>
      <point x="743" y="50" type="line"/>
      <point x="709" y="22"/>
      <point x="639" y="-9"/>
      <point x="589" y="-9" type="qcurve" smooth="yes"/>
      <point x="530" y="-9"/>
      <point x="441" y="52"/>
      <point x="393" y="169"/>
      <point x="393" y="253" type="qcurve" smooth="yes"/>
      <point x="394" y="288" type="line" smooth="yes"/>
      <point x="398" y="345"/>
      <point x="428" y="433"/>
      <point x="479" y="495"/>
      <point x="547" y="527"/>
    </contour>
    <contour>
      <point x="269" y="304" type="qcurve" smooth="yes"/>
      <point x="394" y="304" type="line"/>
      <point x="394" y="302" type="line"/>
      <point x="269" y="302" type="line" smooth="yes"/>
      <point x="178" y="302"/>
      <point x="72" y="219"/>
      <point x="72" y="145" type="qcurve" smooth="yes"/>
      <point x="72" y="79"/>
      <point x="148" y="-7"/>
      <point x="220" y="-7" type="qcurve" smooth="yes"/>
      <point x="286" y="-7"/>
      <point x="371" y="57"/>
      <point x="410" y="124" type="qcurve"/>
      <point x="411" y="122" type="line"/>
      <point x="371" y="53"/>
      <point x="285" y="-9"/>
      <point x="220" y="-9" type="qcurve" smooth="yes"/>
      <point x="147" y="-9"/>
      <point x="70" y="78"/>
      <point x="70" y="145" type="qcurve" smooth="yes"/>
      <point x="70" y="221"/>
      <point x="177" y="304"/>
    </contour>
    <contour>
      <point x="254" y="527" type="qcurve" smooth="yes"/>
      <point x="306" y="527"/>
      <point x="368" y="489"/>
      <point x="395" y="420"/>
      <point x="395" y="372" type="qcurve" smooth="yes"/>
      <point x="395" y="253" type="line"/>
      <point x="393" y="253" type="line"/>
      <point x="393" y="372" type="line" smooth="yes"/>
      <point x="393" y="443"/>
      <point x="331" y="525"/>
      <point x="254" y="525" type="qcurve" smooth="yes"/>
      <point x="220" y="525"/>
      <point x="148" y="508"/>
      <point x="107" y="491" type="qcurve"/>
      <point x="106" y="493" type="line"/>
      <point x="147" y="510"/>
      <point x="220" y="527"/>
    </contour>
    <contour>
      <point x="421" y="517" type="move" name="top"/>
    </contour>
    <contour>
      <point x="417" y="0" type="move" name="bottom"/>
    </contour>
  </outline>
</glyph>
<glyph name="eth" format="1">
  <advance width="540"/>
  <unicode hex="00F0"/>
  <outline>
    <contour>
      <point x="264" y="-9" type="qcurve" smooth="yes"/>
      <point x="207" y="-9"/>
      <point x="124" y="51"/>
      <point x="80" y="158"/>
      <point x="80" y="228" type="qcurve" smooth="yes"/>
      <point x="80" y="290"/>
      <point x="122" y="394"/>
      <point x="203" y="457"/>
      <point x="260" y="457" type="qcurve" smooth="yes"/>
      <point x="322" y="457"/>
      <point x="418" y="390"/>
      <point x="453" y="337" type="qcurve"/>
      <point x="451" y="453"/>
      <point x="371" y="615"/>
      <point x="297" y="668" type="qcurve"/>
      <point x="209" y="576" type="line"/>
      <point x="207" y="577" type="line"/>
      <point x="295" y="669" type="line"/>
      <point x="264" y="692"/>
      <point x="189" y="723"/>
      <point x="152" y="732" type="qcurve"/>
      <point x="152" y="734" type="line"/>
      <point x="190" y="725"/>
      <point x="265" y="694"/>
      <point x="297" y="671" type="qcurve"/>
      <point x="359" y="737" type="line"/>
      <point x="361" y="736" type="line"/>
      <point x="299" y="670" type="line"/>
      <point x="350" y="634"/>
      <point x="419" y="534"/>
      <point x="455" y="404"/>
      <point x="455" y="322" type="qcurve" smooth="yes"/>
      <point x="455" y="208"/>
      <point x="411" y="61"/>
      <point x="326" y="-9"/>
    </contour>
    <contour>
      <point x="264" y="-7" type="qcurve" smooth="yes"/>
      <point x="356" y="-7"/>
      <point x="453" y="150"/>
      <point x="453" y="322" type="qcurve" smooth="yes"/>
      <point x="453" y="325"/>
      <point x="453" y="331"/>
      <point x="453" y="334" type="qcurve"/>
      <point x="417" y="388"/>
      <point x="322" y="455"/>
      <point x="260" y="455" type="qcurve" smooth="yes"/>
      <point x="204" y="455"/>
      <point x="124" y="393"/>
      <point x="82" y="290"/>
      <point x="82" y="228" type="qcurve" smooth="yes"/>
      <point x="82" y="158"/>
      <point x="126" y="52"/>
      <point x="208" y="-7"/>
    </contour>
    <contour>
      <point x="286" y="727" type="move" name="top"/>
    </contour>
    <contour>
      <point x="268" y="0" type="move" name="bottom"/>
    </contour>
  </outline>
</glyph>
<glyph name="thorn" format="1">
  <advance width="567"/>
  <unicode hex="00FE"/>
  <outline>
    <contour>
      <point x="306" y="527" type="qcurve" smooth="yes"/>
      <point x="392" y="527"/>
      <point x="482" y="389"/>
      <point x="482" y="264" type="qcurve" smooth="yes"/>
      <point x="482" y="180"/>
      <point x="441" y="57"/>
      <point x="361" y="-9"/>
      <point x="302" y="-9" type="qcurve" smooth="yes"/>
      <point x="243" y="-9"/>
      <point x="157" y="51"/>
      <point x="127" y="98" type="qcurve"/>
      <point x="127" y="-190" type="line"/>
      <point x="125" y="-190" type="line"/>
      <point x="125" y="730" type="line"/>
      <point x="127" y="730" type="line"/>
      <point x="127" y="421" type="line"/>
      <point x="159" y="467"/>
      <point x="244" y="527"/>
    </contour>
    <contour>
      <point x="302" y="-7" type="qcurve" smooth="yes"/>
      <point x="390" y="-7"/>
      <point x="480" y="139"/>
      <point x="480" y="264" type="qcurve" smooth="yes"/>
      <point x="480" y="347"/>
      <point x="441" y="463"/>
      <point x="363" y="525"/>
      <point x="306" y="525" type="qcurve" smooth="yes"/>
      <point x="245" y="525"/>
      <point x="162" y="467"/>
      <point x="127" y="418" type="qcurve"/>
      <point x="127" y="101" type="line"/>
      <point x="159" y="52"/>
      <point x="244" y="-7"/>
    </contour>
    <contour>
      <point x="284" y="727" type="move" name="top"/>
    </contour>
    <contour>
      <point x="284" y="-188" type="move" name="bottom"/>
    </contour>
  </outline>
</glyph>
<glyph name="dcroat" format="1">
  <advance width="577"/>
  <unicode hex="0111"/>
  <outline>
    <contour>
      <point x="273" y="-9" type="qcurve" smooth="yes"/>
      <point x="188" y="-9"/>
      <point x="85" y="130"/>
      <point x="85" y="257" type="qcurve" smooth="yes"/>
      <point x="85" y="337"/>
      <point x="131" y="459"/>
      <point x="219" y="527"/>
      <point x="281" y="527" type="qcurve" smooth="yes"/>
      <point x="324" y="527"/>
      <point x="389" y="496"/>
      <point x="433" y="449"/>
      <point x="445" y="424" type="qcurve"/>
      <point x="445" y="638" type="line"/>
      <point x="265" y="638" type="line"/>
      <point x="265" y="640" type="line"/>
      <point x="445" y="640" type="line"/>
      <point x="445" y="730" type="line"/>
      <point x="447" y="730" type="line"/>
      <point x="447" y="640" type="line"/>
      <point x="522" y="640" type="line"/>
      <point x="522" y="638" type="line"/>
      <point x="447" y="638" type="line"/>
      <point x="447" y="0" type="line"/>
      <point x="445" y="0" type="line"/>
      <point x="445" y="100" type="line"/>
      <point x="420" y="54"/>
      <point x="341" y="-9"/>
    </contour>
    <contour>
      <point x="273" y="-7" type="qcurve" smooth="yes"/>
      <point x="341" y="-7"/>
      <point x="419" y="57"/>
      <point x="445" y="104" type="qcurve"/>
      <point x="445" y="421" type="line"/>
      <point x="432" y="447"/>
      <point x="388" y="494"/>
      <point x="324" y="525"/>
      <point x="281" y="525" type="qcurve" smooth="yes"/>
      <point x="220" y="525"/>
      <point x="133" y="457"/>
      <point x="87" y="336"/>
      <point x="87" y="257" type="qcurve" smooth="yes"/>
      <point x="87" y="173"/>
      <point x="133" y="55"/>
      <point x="217" y="-7"/>
    </contour>
    <contour>
      <point x="288" y="0" type="move" name="bottom"/>
    </contour>
    <contour>
      <point x="280" y="727" type="move" name="top"/>
    </contour>
    <contour>
      <point x="497" y="727" type="move" name="topright"/>
    </contour>
    <contour>
      <point x="289" y="259" type="move" name="center"/>
    </contour>
  </outline>
</glyph>
<glyph name="hbar" format="1">
  <advance width="585"/>
  <unicode hex="0127"/>
  <outline>
    <contour>
      <point x="132" y="0" type="line"/>
      <point x="130" y="0" type="line"/>
      <point x="130" y="638" type="line"/>
      <point x="55" y="638" type="line"/>
      <point x="55" y="640" type="line"/>
      <point x="130" y="640" type="line"/>
      <point x="130" y="730" type="line"/>
      <point x="132" y="730" type="line"/>
      <point x="132" y="640" type="line"/>
      <point x="323" y="640" type="line"/>
      <point x="323" y="638" type="line"/>
      <point x="132" y="638" type="line"/>
      <point x="132" y="391" type="line"/>
      <point x="168" y="455"/>
      <point x="266" y="527"/>
      <point x="331" y="527" type="qcurve" smooth="yes"/>
      <point x="402" y="527"/>
      <point x="465" y="441"/>
      <point x="465" y="368" type="qcurve" smooth="yes"/>
      <point x="465" y="0" type="line"/>
      <point x="463" y="0" type="line"/>
      <point x="463" y="368" type="line" smooth="yes"/>
      <point x="463" y="440"/>
      <point x="401" y="525"/>
      <point x="331" y="525" type="qcurve" smooth="yes"/>
      <point x="266" y="525"/>
      <point x="168" y="452"/>
      <point x="132" y="387" type="qcurve"/>
    </contour>
    <contour>
      <point x="298" y="260" type="move" name="center"/>
    </contour>
    <contour>
      <point x="298" y="0" type="move" name="bottom"/>
    </contour>
    <contour>
      <point x="298" y="727" type="move" name="top"/>
    </contour>
  </outline>
</glyph>
<glyph name="Lslash" format="1">
  <advance width="447"/>
  <unicode hex="0141"/>
  <outline>
    <contour>
      <point x="134" y="326" type="line"/>
      <point x="134" y="2" type="line"/>
      <point x="422" y="2" type="line"/>
      <point x="422" y="0" type="line"/>
      <point x="132" y="0" type="line"/>
      <point x="132" y="325" type="line"/>
      <point x="53" y="276" type="line"/>
      <point x="52" y="278" type="line"/>
      <point x="132" y="327" type="line"/>
      <point x="132" y="680" type="line"/>
      <point x="134" y="680" type="line"/>
      <point x="134" y="328" type="line"/>
      <point x="341" y="456" type="line"/>
      <point x="342" y="454" type="line"/>
    </contour>
    <contour>
      <point x="277" y="0" type="move" name="bottom"/>
    </contour>
    <contour>
      <point x="133" y="680" type="move" name="top"/>
    </contour>
    <contour>
      <point x="184" y="680" type="move" name="topright"/>
    </contour>
    <contour>
      <point x="352" y="355" type="move" name="center"/>
    </contour>
  </outline>
</glyph>
<glyph name="lslash" format="1">
  <advance width="288"/>
  <unicode hex="0142"/>
  <outline>
    <contour>
      <point x="185" y="-9" type="qcurve" smooth="yes"/>
      <point x="155" y="-9"/>
      <point x="126" y="30"/>
      <point x="126" y="64" type="qcurve" smooth="yes"/>
      <point x="126" y="361" type="line"/>
      <point x="56" y="317" type="line"/>
      <point x="55" y="319" type="line"/>
      <point x="126" y="364" type="line"/>
      <point x="126" y="730" type="line"/>
      <point x="128" y="730" type="line"/>
      <point x="128" y="365" type="line"/>
      <point x="237" y="434" type="line"/>
      <point x="238" y="432" type="line"/>
      <point x="128" y="362" type="line"/>
      <point x="128" y="64" type="line" smooth="yes"/>
      <point x="128" y="32"/>
      <point x="156" y="-7"/>
      <point x="185" y="-7" type="qcurve" smooth="yes"/>
      <point x="196" y="-7"/>
      <point x="217" y="-3"/>
      <point x="226" y="1" type="qcurve"/>
      <point x="226" y="-1" type="line"/>
      <point x="217" y="-5"/>
      <point x="196" y="-9"/>
    </contour>
    <contour>
      <point x="180" y="0" type="move" name="bottom"/>
    </contour>
    <contour>
      <point x="127" y="730" type="move" name="top"/>
    </contour>
    <contour>
      <point x="188" y="727" type="move" name="topright"/>
    </contour>
    <contour>
      <point x="262" y="375" type="move" name="center"/>
    </contour>
  </outline>
</glyph>
<glyph name="OE" format="1">
  <advance width="838"/>
  <unicode hex="0152"/>
  <outline>
    <contour>
      <point x="324" y="-9" type="qcurve" smooth="yes"/>
      <point x="251" y="-9"/>
      <point x="144" y="73"/>
      <point x="85" y="229"/>
      <point x="85" y="338" type="qcurve" smooth="yes"/>
      <point x="85" y="448"/>
      <point x="145" y="605"/>
      <point x="253" y="690"/>
      <point x="324" y="690" type="qcurve" smooth="yes"/>
      <point x="365" y="690"/>
      <point x="395" y="680" type="qcurve"/>
      <point x="778" y="680" type="line"/>
      <point x="778" y="678" type="line"/>
      <point x="401" y="678" type="line"/>
      <point x="484" y="651"/>
      <point x="572" y="484"/>
      <point x="572" y="362" type="qcurve"/>
      <point x="735" y="362" type="line"/>
      <point x="735" y="360" type="line"/>
      <point x="572" y="360" type="line"/>
      <point x="572" y="209"/>
      <point x="482" y="28"/>
      <point x="399" y="2" type="qcurve"/>
      <point x="788" y="2" type="line"/>
      <point x="788" y="0" type="line"/>
      <point x="393" y="0" type="line"/>
      <point x="378" y="-4"/>
      <point x="344" y="-9"/>
    </contour>
    <contour>
      <point x="324" y="-7" type="qcurve" smooth="yes"/>
      <point x="404" y="-7"/>
      <point x="514" y="77"/>
      <point x="570" y="241"/>
      <point x="570" y="361" type="qcurve" smooth="yes"/>
      <point x="570" y="461"/>
      <point x="511" y="608"/>
      <point x="401" y="688"/>
      <point x="324" y="688" type="qcurve" smooth="yes"/>
      <point x="254" y="688"/>
      <point x="147" y="603"/>
      <point x="87" y="447"/>
      <point x="87" y="338" type="qcurve" smooth="yes"/>
      <point x="87" y="230"/>
      <point x="145" y="75"/>
      <point x="252" y="-7"/>
    </contour>
    <contour>
      <point x="419" y="680" type="move" name="top"/>
    </contour>
    <contour>
      <point x="419" y="0" type="move" name="bottom"/>
    </contour>
  </outline>
</glyph>
<glyph name="oe" format="1">
  <advance width="925"/>
  <unicode hex="0153"/>
  <outline>
    <contour>
      <point x="281" y="527" type="qcurve" smooth="yes"/>
      <point x="342" y="527"/>
      <point x="431" y="464"/>
      <point x="479" y="346"/>
      <point x="479" y="262" type="qcurve" smooth="yes"/>
      <point x="479" y="176"/>
      <point x="430" y="54"/>
      <point x="341" y="-9"/>
      <point x="279" y="-9" type="qcurve" smooth="yes"/>
      <point x="186" y="-9"/>
      <point x="80" y="133"/>
      <point x="80" y="258" type="qcurve" smooth="yes"/>
      <point x="80" y="345"/>
      <point x="130" y="465"/>
      <point x="221" y="527"/>
    </contour>
    <contour>
      <point x="281" y="525" type="qcurve" smooth="yes"/>
      <point x="191" y="525"/>
      <point x="82" y="386"/>
      <point x="82" y="258" type="qcurve" smooth="yes"/>
      <point x="82" y="134"/>
      <point x="187" y="-7"/>
      <point x="279" y="-7" type="qcurve" smooth="yes"/>
      <point x="371" y="-7"/>
      <point x="477" y="134"/>
      <point x="477" y="262" type="qcurve" smooth="yes"/>
      <point x="477" y="386"/>
      <point x="372" y="525"/>
    </contour>
    <contour>
      <point x="673" y="527" type="qcurve" smooth="yes"/>
      <point x="735" y="527"/>
      <point x="813" y="464"/>
      <point x="850" y="356"/>
      <point x="850" y="288" type="qcurve" smooth="yes"/>
      <point x="850" y="278"/>
      <point x="850" y="263"/>
      <point x="849" y="252" type="qcurve"/>
      <point x="478" y="252" type="line"/>
      <point x="478" y="254" type="line"/>
      <point x="847" y="254" type="line"/>
      <point x="848" y="264"/>
      <point x="848" y="278"/>
      <point x="848" y="288" type="qcurve" smooth="yes"/>
      <point x="848" y="355"/>
      <point x="811" y="462"/>
      <point x="734" y="525"/>
      <point x="673" y="525" type="qcurve" smooth="yes"/>
      <point x="614" y="525"/>
      <point x="526" y="460"/>
      <point x="479" y="339"/>
      <point x="479" y="253" type="qcurve" smooth="yes"/>
      <point x="479" y="170"/>
      <point x="527" y="53"/>
      <point x="615" y="-7"/>
      <point x="673" y="-7" type="qcurve" smooth="yes"/>
      <point x="722" y="-7"/>
      <point x="792" y="24"/>
      <point x="826" y="52" type="qcurve"/>
      <point x="827" y="50" type="line"/>
      <point x="793" y="22"/>
      <point x="723" y="-9"/>
      <point x="673" y="-9" type="qcurve" smooth="yes"/>
      <point x="614" y="-9"/>
      <point x="525" y="52"/>
      <point x="477" y="169"/>
      <point x="477" y="253" type="qcurve" smooth="yes"/>
      <point x="477" y="340"/>
      <point x="525" y="462"/>
      <point x="613" y="527"/>
    </contour>
    <contour>
      <point x="477" y="517" type="move" name="top"/>
    </contour>
    <contour>
      <point x="478" y="0" type="move" name="bottom"/>
    </contour>
  </outline>
</glyph>
<glyph name="tbar" format="1">
  <advance width="322"/>
  <unicode hex="0167"/>
  <outline>
    <contour>
      <point x="313" y="21" type="qcurve"/>
      <point x="314" y="19" type="line"/>
      <point x="295" y="8"/>
      <point x="252" y="-9"/>
      <point x="220" y="-9" type="qcurve" smooth="yes"/>
      <point x="171" y="-9"/>
      <point x="117" y="55"/>
      <point x="117" y="113" type="qcurve" smooth="yes"/>
      <point x="117" y="333" type="line"/>
      <point x="30" y="333" type="line"/>
      <point x="30" y="335" type="line"/>
      <point x="117" y="335" type="line"/>
      <point x="117" y="515" type="line"/>
      <point x="30" y="515" type="line"/>
      <point x="30" y="517" type="line"/>
      <point x="117" y="517" type="line"/>
      <point x="117" y="651" type="line"/>
      <point x="119" y="651" type="line"/>
      <point x="119" y="517" type="line"/>
      <point x="265" y="517" type="line"/>
      <point x="265" y="515" type="line"/>
      <point x="119" y="515" type="line"/>
      <point x="119" y="335" type="line"/>
      <point x="265" y="335" type="line"/>
      <point x="265" y="333" type="line"/>
      <point x="119" y="333" type="line"/>
      <point x="119" y="113" type="line" smooth="yes"/>
      <point x="119" y="56"/>
      <point x="172" y="-7"/>
      <point x="220" y="-7" type="qcurve" smooth="yes"/>
      <point x="252" y="-7"/>
      <point x="296" y="10"/>
    </contour>
    <contour>
      <point x="225" y="0" type="move" name="bottom"/>
    </contour>
    <contour>
      <point x="118" y="651" type="move" name="top"/>
    </contour>
    <contour>
      <point x="157" y="730" type="move" name="topright"/>
    </contour>
    <contour>
      <point x="145" y="259" type="move" name="center"/>
    </contour>
  </outline>
</glyph>
<glyph name="uni0180" format="1">
  <advance width="572"/>
  <unicode hex="0180"/>
  <outline>
    <contour>
      <point x="305" y="-9" type="qcurve" smooth="yes"/>
      <point x="246" y="-9"/>
      <point x="162" y="51"/>
      <point x="132" y="98" type="qcurve"/>
      <point x="132" y="0" type="line"/>
      <point x="130" y="0" type="line"/>
      <point x="130" y="638" type="line"/>
      <point x="55" y="638" type="line"/>
      <point x="55" y="640" type="line"/>
      <point x="130" y="640" type="line"/>
      <point x="130" y="730" type="line"/>
      <point x="132" y="730" type="line"/>
      <point x="132" y="640" type="line"/>
      <point x="323" y="640" type="line"/>
      <point x="323" y="638" type="line"/>
      <point x="132" y="638" type="line"/>
      <point x="132" y="421" type="line"/>
      <point x="164" y="467"/>
      <point x="248" y="527"/>
      <point x="309" y="527" type="qcurve" smooth="yes"/>
      <point x="396" y="527"/>
      <point x="487" y="389"/>
      <point x="487" y="264" type="qcurve" smooth="yes"/>
      <point x="487" y="180"/>
      <point x="446" y="57"/>
      <point x="365" y="-9"/>
    </contour>
    <contour>
      <point x="305" y="-7" type="qcurve" smooth="yes"/>
      <point x="394" y="-7"/>
      <point x="485" y="139"/>
      <point x="485" y="264" type="qcurve" smooth="yes"/>
      <point x="485" y="347"/>
      <point x="445" y="463"/>
      <point x="367" y="525"/>
      <point x="309" y="525" type="qcurve" smooth="yes"/>
      <point x="249" y="525"/>
      <point x="167" y="467"/>
      <point x="132" y="418" type="qcurve"/>
      <point x="132" y="101" type="line"/>
      <point x="164" y="52"/>
      <point x="247" y="-7"/>
    </contour>
    <contour>
      <point x="294" y="727" type="move" name="top"/>
    </contour>
    <contour>
      <point x="289" y="0" type="move" name="bottom"/>
    </contour>
  </outline>
</glyph>
<glyph name="uni0184" format="1">
  <advance width="549"/>
  <unicode hex="0184"/>
  <outline>
    <contour>
      <point x="280" y="0" type="qcurve" smooth="yes"/>
      <point x="130" y="0" type="line"/>
      <point x="130" y="628" type="line"/>
      <point x="115" y="633" type="line"/>
      <point x="121" y="644"/>
      <point x="128" y="664"/>
      <point x="130" y="680" type="qcurve"/>
      <point x="132" y="680" type="line"/>
      <point x="132" y="399" type="line"/>
      <point x="276" y="399" type="line" smooth="yes"/>
      <point x="378" y="399"/>
      <point x="489" y="304"/>
      <point x="489" y="210" type="qcurve" smooth="yes"/>
      <point x="489" y="140"/>
      <point x="438" y="47"/>
      <point x="345" y="0"/>
    </contour>
    <contour>
      <point x="132" y="397" type="line"/>
      <point x="132" y="2" type="line"/>
      <point x="280" y="2" type="line" smooth="yes"/>
      <point x="345" y="2"/>
      <point x="437" y="49"/>
      <point x="487" y="141"/>
      <point x="487" y="210" type="qcurve" smooth="yes"/>
      <point x="487" y="302"/>
      <point x="377" y="397"/>
      <point x="276" y="397" type="qcurve" smooth="yes"/>
    </contour>
    <contour>
      <point x="275" y="680" type="move" name="top"/>
    </contour>
    <contour>
      <point x="275" y="0" type="move" name="bottom"/>
    </contour>
  </outline>
</glyph>
<glyph name="uni0186" format="1">
  <advance width="529"/>
  <unicode hex="0186"/>
  <outline>
    <contour>
      <point x="201" y="690" type="qcurve" smooth="yes"/>
      <point x="275" y="690"/>
      <point x="384" y="614"/>
      <point x="444" y="458"/>
      <point x="444" y="339" type="qcurve" smooth="yes"/>
      <point x="444" y="227"/>
      <point x="380" y="71"/>
      <point x="267" y="-9"/>
      <point x="193" y="-9" type="qcurve" smooth="yes"/>
      <point x="132" y="-9"/>
      <point x="54" y="27"/>
      <point x="26" y="50" type="qcurve"/>
      <point x="27" y="52" type="line"/>
      <point x="55" y="29"/>
      <point x="132" y="-7"/>
      <point x="193" y="-7" type="qcurve" smooth="yes"/>
      <point x="266" y="-7"/>
      <point x="378" y="73"/>
      <point x="442" y="227"/>
      <point x="442" y="339" type="qcurve" smooth="yes"/>
      <point x="442" y="457"/>
      <point x="382" y="612"/>
      <point x="274" y="688"/>
      <point x="201" y="688" type="qcurve" smooth="yes"/>
      <point x="143" y="688"/>
      <point x="67" y="654"/>
      <point x="36" y="631" type="qcurve"/>
      <point x="35" y="633" type="line"/>
      <point x="66" y="656"/>
      <point x="143" y="690"/>
    </contour>
    <contour>
      <point x="206" y="341" type="move" name="center"/>
    </contour>
    <contour>
      <point x="205" y="0" type="move" name="bottom"/>
    </contour>
    <contour>
      <point x="205" y="680" type="move" name="top"/>
    </contour>
  </outline>
</glyph>
<glyph name="uni0187" format="1">
  <advance width="529"/>
  <unicode hex="0187"/>
  <outline>
    <contour>
      <point x="576" y="803" type="qcurve" smooth="yes"/>
      <point x="605" y="803"/>
      <point x="642" y="786"/>
      <point x="655" y="775" type="qcurve"/>
      <point x="654" y="773" type="line"/>
      <point x="640" y="785"/>
      <point x="604" y="801"/>
      <point x="576" y="801" type="qcurve" smooth="yes"/>
      <point x="539" y="801"/>
      <point x="494" y="754"/>
      <point x="494" y="708" type="qcurve" smooth="yes"/>
      <point x="494" y="633" type="line"/>
      <point x="493" y="631" type="line"/>
      <point x="467" y="654"/>
      <point x="397" y="688"/>
      <point x="342" y="688" type="qcurve" smooth="yes"/>
      <point x="268" y="688"/>
      <point x="152" y="612"/>
      <point x="87" y="457"/>
      <point x="87" y="339" type="qcurve" smooth="yes"/>
      <point x="87" y="227"/>
      <point x="151" y="73"/>
      <point x="266" y="-7"/>
      <point x="341" y="-7" type="qcurve" smooth="yes"/>
      <point x="402" y="-7"/>
      <point x="478" y="32"/>
      <point x="502" y="52" type="qcurve"/>
      <point x="503" y="50" type="line"/>
      <point x="479" y="30"/>
      <point x="403" y="-9"/>
      <point x="341" y="-9" type="qcurve" smooth="yes"/>
      <point x="265" y="-9"/>
      <point x="149" y="71"/>
      <point x="85" y="227"/>
      <point x="85" y="339" type="qcurve" smooth="yes"/>
      <point x="85" y="428"/>
      <point x="123" y="560"/>
      <point x="191" y="647"/>
      <point x="285" y="690"/>
      <point x="342" y="690" type="qcurve" smooth="yes"/>
      <point x="396" y="690"/>
      <point x="467" y="657"/>
      <point x="492" y="634" type="qcurve"/>
      <point x="492" y="708" type="line" smooth="yes"/>
      <point x="492" y="755"/>
      <point x="539" y="803"/>
    </contour>
    <contour>
      <point x="265" y="680" type="move" name="top"/>
    </contour>
    <contour>
      <point x="265" y="0" type="move" name="bottom"/>
    </contour>
  </outline>
</glyph>
<glyph name="uni0188" format="1">
  <advance width="469"/>
  <unicode hex="0188"/>
  <outline>
    <contour>
      <point x="280" y="-9" type="qcurve" smooth="yes"/>
      <point x="223" y="-9"/>
      <point x="132" y="53"/>
      <point x="80" y="171"/>
      <point x="80" y="256" type="qcurve" smooth="yes"/>
      <point x="80" y="341"/>
      <point x="129" y="462"/>
      <point x="219" y="527"/>
      <point x="282" y="527" type="qcurve" smooth="yes"/>
      <point x="321" y="527"/>
      <point x="382" y="502"/>
      <point x="408" y="479" type="qcurve"/>
      <point x="408" y="638" type="line" smooth="yes"/>
      <point x="408" y="685"/>
      <point x="455" y="733"/>
      <point x="492" y="733" type="qcurve" smooth="yes"/>
      <point x="521" y="733"/>
      <point x="558" y="716"/>
      <point x="571" y="705" type="qcurve"/>
      <point x="570" y="703" type="line"/>
      <point x="556" y="715"/>
      <point x="520" y="731"/>
      <point x="492" y="731" type="qcurve" smooth="yes"/>
      <point x="455" y="731"/>
      <point x="410" y="684"/>
      <point x="410" y="638" type="qcurve" smooth="yes"/>
      <point x="410" y="477" type="line"/>
      <point x="408" y="476" type="line"/>
      <point x="382" y="501"/>
      <point x="320" y="525"/>
      <point x="282" y="525" type="qcurve" smooth="yes"/>
      <point x="189" y="525"/>
      <point x="82" y="382"/>
      <point x="82" y="256" type="qcurve" smooth="yes"/>
      <point x="82" y="172"/>
      <point x="134" y="54"/>
      <point x="223" y="-7"/>
      <point x="280" y="-7" type="qcurve" smooth="yes"/>
      <point x="324" y="-7"/>
      <point x="387" y="22"/>
      <point x="412" y="45" type="qcurve"/>
      <point x="414" y="44" type="line"/>
      <point x="389" y="21"/>
      <point x="326" y="-9"/>
    </contour>
    <contour>
      <point x="235" y="727" type="move" name="top"/>
    </contour>
    <contour>
      <point x="235" y="0" type="move" name="bottom"/>
    </contour>
  </outline>
</glyph>
<glyph name="uni018B" format="1">
  <advance width="564"/>
  <unicode hex="018B"/>
  <outline>
    <contour>
      <point x="434" y="0" type="line"/>
      <point x="278" y="0" type="line" smooth="yes"/>
      <point x="216" y="0"/>
      <point x="125" y="43"/>
      <point x="75" y="130"/>
      <point x="75" y="194" type="qcurve" smooth="yes"/>
      <point x="75" y="295"/>
      <point x="193" y="399"/>
      <point x="295" y="399" type="qcurve" smooth="yes"/>
      <point x="432" y="399" type="line"/>
      <point x="432" y="678" type="line"/>
      <point x="136" y="678" type="line"/>
      <point x="136" y="680" type="line"/>
      <point x="434" y="680" type="line"/>
    </contour>
    <contour>
      <point x="278" y="2" type="qcurve" smooth="yes"/>
      <point x="432" y="2" type="line"/>
      <point x="432" y="397" type="line"/>
      <point x="295" y="397" type="line" smooth="yes"/>
      <point x="194" y="397"/>
      <point x="77" y="294"/>
      <point x="77" y="194" type="qcurve" smooth="yes"/>
      <point x="77" y="130"/>
      <point x="126" y="45"/>
      <point x="217" y="2"/>
    </contour>
    <contour>
      <point x="282" y="680" type="move" name="top"/>
    </contour>
    <contour>
      <point x="282" y="0" type="move" name="bottom"/>
    </contour>
  </outline>
</glyph>
<glyph name="uni018D" format="1">
  <advance width="554"/>
  <unicode hex="018D"/>
  <outline>
    <contour>
      <point x="132" y="-93" type="qcurve" smooth="yes"/>
      <point x="132" y="-64"/>
      <point x="158" y="-21"/>
      <point x="218" y="15"/>
      <point x="269" y="35" type="qcurve" smooth="yes"/>
      <point x="326" y="57"/>
      <point x="403" y="102"/>
      <point x="451" y="160"/>
      <point x="472" y="237"/>
      <point x="472" y="291" type="qcurve" smooth="yes"/>
      <point x="472" y="413"/>
      <point x="367" y="525"/>
      <point x="279" y="525" type="qcurve" smooth="yes"/>
      <point x="188" y="525"/>
      <point x="82" y="404"/>
      <point x="82" y="285" type="qcurve" smooth="yes"/>
      <point x="82" y="216"/>
      <point x="132" y="116"/>
      <point x="218" y="52"/>
      <point x="272" y="35" type="qcurve"/>
      <point x="270" y="34" type="line"/>
      <point x="188" y="60"/>
      <point x="80" y="181"/>
      <point x="80" y="285" type="qcurve" smooth="yes"/>
      <point x="80" y="404"/>
      <point x="187" y="527"/>
      <point x="279" y="527" type="qcurve" smooth="yes"/>
      <point x="338" y="527"/>
      <point x="426" y="477"/>
      <point x="474" y="373"/>
      <point x="474" y="291" type="qcurve" smooth="yes"/>
      <point x="474" y="219"/>
      <point x="435" y="126"/>
      <point x="347" y="63"/>
      <point x="272" y="34" type="qcurve" smooth="yes"/>
      <point x="221" y="14"/>
      <point x="160" y="-22"/>
      <point x="134" y="-64"/>
      <point x="134" y="-93" type="qcurve" smooth="yes"/>
      <point x="134" y="-137"/>
      <point x="209" y="-190"/>
      <point x="269" y="-190" type="qcurve" smooth="yes"/>
      <point x="318" y="-190"/>
      <point x="386" y="-169"/>
      <point x="417" y="-146" type="qcurve"/>
      <point x="419" y="-147" type="line"/>
      <point x="387" y="-170"/>
      <point x="318" y="-192"/>
      <point x="269" y="-192" type="qcurve" smooth="yes"/>
      <point x="229" y="-192"/>
      <point x="167" y="-167"/>
      <point x="132" y="-123"/>
    </contour>
    <contour>
      <point x="277" y="517" type="move" name="top"/>
    </contour>
    <contour>
      <point x="277" y="-188" type="move" name="bottom"/>
    </contour>
  </outline>
</glyph>
<glyph name="uni0190" format="1">
  <advance width="507"/>
  <unicode hex="0190"/>
  <outline>
    <contour>
      <point x="260" y="690" type="qcurve" smooth="yes"/>
      <point x="319" y="690"/>
      <point x="405" y="646"/>
      <point x="442" y="605" type="qcurve"/>
      <point x="440" y="603" type="line"/>
      <point x="403" y="644"/>
      <point x="319" y="688"/>
      <point x="260" y="688" type="qcurve" smooth="yes"/>
      <point x="176" y="688"/>
      <point x="89" y="597"/>
      <point x="89" y="531" type="qcurve" smooth="yes"/>
      <point x="89" y="480"/>
      <point x="135" y="409"/>
      <point x="214" y="373"/>
      <point x="262" y="373" type="qcurve" smooth="yes"/>
      <point x="316" y="373" type="line"/>
      <point x="316" y="371" type="line"/>
      <point x="259" y="371" type="line" smooth="yes"/>
      <point x="174" y="371"/>
      <point x="67" y="276"/>
      <point x="67" y="195" type="qcurve" smooth="yes"/>
      <point x="67" y="101"/>
      <point x="178" y="-7"/>
      <point x="268" y="-7" type="qcurve" smooth="yes"/>
      <point x="332" y="-7"/>
      <point x="425" y="40"/>
      <point x="465" y="85" type="qcurve"/>
      <point x="467" y="84" type="line"/>
      <point x="426" y="38"/>
      <point x="333" y="-9"/>
      <point x="268" y="-9" type="qcurve" smooth="yes"/>
      <point x="208" y="-9"/>
      <point x="116" y="40"/>
      <point x="65" y="132"/>
      <point x="65" y="195" type="qcurve" smooth="yes"/>
      <point x="65" y="250"/>
      <point x="112" y="328"/>
      <point x="194" y="370"/>
      <point x="244" y="372" type="qcurve"/>
      <point x="204" y="375"/>
      <point x="132" y="410"/>
      <point x="87" y="479"/>
      <point x="87" y="531" type="qcurve" smooth="yes"/>
      <point x="87" y="576"/>
      <point x="126" y="648"/>
      <point x="204" y="690"/>
    </contour>
    <contour>
      <point x="254" y="680" type="move" name="top"/>
    </contour>
    <contour>
      <point x="254" y="0" type="move" name="bottom"/>
    </contour>
  </outline>
</glyph>
<glyph name="florin" format="1">
  <advance width="294"/>
  <unicode hex="0192"/>
  <outline>
    <contour>
      <point x="233" y="731" type="qcurve" smooth="yes"/>
      <point x="186" y="731"/>
      <point x="124" y="674"/>
      <point x="124" y="618" type="qcurve" smooth="yes"/>
      <point x="124" y="517" type="line"/>
      <point x="275" y="517" type="line"/>
      <point x="275" y="515" type="line"/>
      <point x="124" y="515" type="line"/>
      <point x="124" y="1" type="line" smooth="yes"/>
      <point x="124" y="-59"/>
      <point x="104" y="-129"/>
      <point x="61" y="-173"/>
      <point x="26" y="-191" type="qcurve"/>
      <point x="25" y="-189" type="line"/>
      <point x="59" y="-171"/>
      <point x="102" y="-128"/>
      <point x="122" y="-58"/>
      <point x="122" y="1" type="qcurve" smooth="yes"/>
      <point x="122" y="515" type="line"/>
      <point x="30" y="515" type="line"/>
      <point x="30" y="517" type="line"/>
      <point x="122" y="517" type="line"/>
      <point x="122" y="618" type="line" smooth="yes"/>
      <point x="122" y="656"/>
      <point x="151" y="707"/>
      <point x="201" y="733"/>
      <point x="233" y="733" type="qcurve" smooth="yes"/>
      <point x="266" y="733"/>
      <point x="322" y="715"/>
      <point x="344" y="703" type="qcurve"/>
      <point x="343" y="701" type="line"/>
      <point x="321" y="713"/>
      <point x="266" y="731"/>
    </contour>
  </outline>
</glyph>
<glyph name="uni0193" format="1">
  <advance width="535"/>
  <unicode hex="0193"/>
  <outline>
    <contour>
      <point x="353" y="-9" type="qcurve" smooth="yes"/>
      <point x="272" y="-9"/>
      <point x="151" y="72"/>
      <point x="85" y="230"/>
      <point x="85" y="345" type="qcurve" smooth="yes"/>
      <point x="85" y="434"/>
      <point x="129" y="564"/>
      <point x="204" y="649"/>
      <point x="296" y="690"/>
      <point x="343" y="690" type="qcurve" smooth="yes"/>
      <point x="390" y="690"/>
      <point x="464" y="662"/>
      <point x="498" y="636" type="qcurve"/>
      <point x="498" y="708" type="line" smooth="yes"/>
      <point x="498" y="755"/>
      <point x="545" y="803"/>
      <point x="582" y="803" type="qcurve" smooth="yes"/>
      <point x="611" y="803"/>
      <point x="648" y="786"/>
      <point x="661" y="775" type="qcurve"/>
      <point x="660" y="773" type="line"/>
      <point x="646" y="785"/>
      <point x="610" y="801"/>
      <point x="582" y="801" type="qcurve" smooth="yes"/>
      <point x="545" y="801"/>
      <point x="500" y="754"/>
      <point x="500" y="708" type="qcurve" smooth="yes"/>
      <point x="500" y="635" type="line"/>
      <point x="499" y="633" type="line"/>
      <point x="464" y="660"/>
      <point x="389" y="688"/>
      <point x="343" y="688" type="qcurve" smooth="yes"/>
      <point x="296" y="688"/>
      <point x="205" y="647"/>
      <point x="131" y="562"/>
      <point x="87" y="433"/>
      <point x="87" y="345" type="qcurve" smooth="yes"/>
      <point x="87" y="231"/>
      <point x="152" y="74"/>
      <point x="272" y="-7"/>
      <point x="353" y="-7" type="qcurve" smooth="yes"/>
      <point x="406" y="-7"/>
      <point x="489" y="23"/>
      <point x="517" y="40" type="qcurve"/>
      <point x="517" y="340" type="line"/>
      <point x="366" y="340" type="line"/>
      <point x="366" y="342" type="line"/>
      <point x="519" y="342" type="line"/>
      <point x="519" y="39" type="line"/>
      <point x="489" y="21"/>
      <point x="406" y="-9"/>
    </contour>
    <contour>
      <point x="268" y="680" type="move" name="top"/>
    </contour>
    <contour>
      <point x="268" y="0" type="move" name="bottom"/>
    </contour>
  </outline>
</glyph>
<glyph name="uni0194" format="1">
  <advance width="523"/>
  <unicode hex="0194"/>
  <outline>
    <contour>
      <point x="264" y="-193" type="qcurve" smooth="yes"/>
      <point x="233" y="-193"/>
      <point x="205" y="-153"/>
      <point x="205" y="-127" type="qcurve" smooth="yes"/>
      <point x="205" y="-93"/>
      <point x="239" y="-6"/>
      <point x="263" y="58" type="qcurve"/>
      <point x="35" y="680" type="line"/>
      <point x="37" y="680" type="line"/>
      <point x="264" y="60" type="line"/>
      <point x="486" y="680" type="line"/>
      <point x="488" y="680" type="line"/>
      <point x="265" y="58" type="line"/>
      <point x="291" y="-7"/>
      <point x="324" y="-92"/>
      <point x="324" y="-127" type="qcurve" smooth="yes"/>
      <point x="324" y="-153"/>
      <point x="296" y="-193"/>
    </contour>
    <contour>
      <point x="264" y="-191" type="qcurve" smooth="yes"/>
      <point x="296" y="-191"/>
      <point x="322" y="-152"/>
      <point x="322" y="-127" type="qcurve" smooth="yes"/>
      <point x="322" y="-92"/>
      <point x="290" y="-9"/>
      <point x="264" y="56" type="qcurve"/>
      <point x="241" y="-8"/>
      <point x="207" y="-93"/>
      <point x="207" y="-127" type="qcurve" smooth="yes"/>
      <point x="207" y="-153"/>
      <point x="234" y="-191"/>
    </contour>
    <contour>
      <point x="262" y="680" type="move" name="top"/>
    </contour>
    <contour>
      <point x="262" y="-188" type="move" name="bottom"/>
    </contour>
  </outline>
</glyph>
<glyph name="uni0195" format="1">
  <advance width="891"/>
  <unicode hex="0195"/>
  <outline>
    <contour>
      <point x="762" y="517" type="qcurve"/>
      <point x="764" y="517" type="line"/>
      <point x="774" y="465"/>
      <point x="791" y="339"/>
      <point x="791" y="268" type="qcurve" smooth="yes"/>
      <point x="791" y="194"/>
      <point x="763" y="89"/>
      <point x="713" y="22"/>
      <point x="645" y="-9"/>
      <point x="605" y="-9" type="qcurve" smooth="yes"/>
      <point x="564" y="-9"/>
      <point x="497" y="27"/>
      <point x="458" y="99"/>
      <point x="458" y="153" type="qcurve" smooth="yes"/>
      <point x="458" y="368" type="line" smooth="yes"/>
      <point x="458" y="440"/>
      <point x="396" y="525"/>
      <point x="326" y="525" type="qcurve" smooth="yes"/>
      <point x="261" y="525"/>
      <point x="163" y="452"/>
      <point x="127" y="387" type="qcurve"/>
      <point x="127" y="0" type="line"/>
      <point x="125" y="0" type="line"/>
      <point x="125" y="730" type="line"/>
      <point x="127" y="730" type="line"/>
      <point x="127" y="391" type="line"/>
      <point x="163" y="455"/>
      <point x="261" y="527"/>
      <point x="326" y="527" type="qcurve" smooth="yes"/>
      <point x="397" y="527"/>
      <point x="460" y="441"/>
      <point x="460" y="368" type="qcurve" smooth="yes"/>
      <point x="460" y="153" type="line" smooth="yes"/>
      <point x="460" y="74"/>
      <point x="544" y="-7"/>
      <point x="605" y="-7" type="qcurve" smooth="yes"/>
      <point x="658" y="-7"/>
      <point x="741" y="49"/>
      <point x="789" y="170"/>
      <point x="789" y="268" type="qcurve" smooth="yes"/>
      <point x="789" y="339"/>
      <point x="772" y="465"/>
    </contour>
    <contour>
      <point x="446" y="727" type="move" name="top"/>
    </contour>
    <contour>
      <point x="446" y="0" type="move" name="bottom"/>
    </contour>
  </outline>
</glyph>
<glyph name="uni0196" format="1">
  <advance width="323"/>
  <unicode hex="0196"/>
  <outline>
    <contour>
      <point x="282" y="21" type="qcurve"/>
      <point x="283" y="19" type="line"/>
      <point x="270" y="8"/>
      <point x="233" y="-9"/>
      <point x="204" y="-9" type="qcurve" smooth="yes"/>
      <point x="167" y="-9"/>
      <point x="120" y="40"/>
      <point x="120" y="86" type="qcurve" smooth="yes"/>
      <point x="120" y="680" type="line"/>
      <point x="122" y="680" type="line"/>
      <point x="122" y="86" type="line" smooth="yes"/>
      <point x="122" y="40"/>
      <point x="167" y="-7"/>
      <point x="204" y="-7" type="qcurve" smooth="yes"/>
      <point x="232" y="-7"/>
      <point x="268" y="9"/>
    </contour>
    <contour>
      <point x="121" y="680" type="move" name="top"/>
    </contour>
    <contour>
      <point x="192" y="0" type="move" name="bottom"/>
    </contour>
  </outline>
</glyph>
<glyph name="uni0198" format="1">
  <advance width="541"/>
  <unicode hex="0198"/>
  <outline>
    <contour>
      <point x="130" y="680" type="line"/>
      <point x="132" y="680" type="line"/>
      <point x="132" y="1" type="line"/>
      <point x="130" y="1" type="line"/>
    </contour>
    <contour>
      <point x="364" y="634" type="qcurve" smooth="yes"/>
      <point x="138" y="366" type="line"/>
      <point x="489" y="0" type="line"/>
      <point x="486" y="0" type="line"/>
      <point x="135" y="366" type="line"/>
      <point x="362" y="635" type="line" smooth="yes"/>
      <point x="379" y="655"/>
      <point x="409" y="679"/>
      <point x="440" y="690"/>
      <point x="458" y="690" type="qcurve" smooth="yes"/>
      <point x="481" y="690"/>
      <point x="514" y="671"/>
      <point x="526" y="657" type="qcurve"/>
      <point x="524" y="656" type="line"/>
      <point x="512" y="670"/>
      <point x="481" y="688"/>
      <point x="458" y="688" type="qcurve" smooth="yes"/>
      <point x="440" y="688"/>
      <point x="410" y="678"/>
      <point x="381" y="654"/>
    </contour>
    <contour>
      <point x="271" y="680" type="move" name="top"/>
    </contour>
    <contour>
      <point x="271" y="0" type="move" name="bottom"/>
    </contour>
  </outline>
</glyph>
<glyph name="uni0199" format="1">
  <advance width="448"/>
  <unicode hex="0199"/>
  <outline>
    <contour>
      <point x="127" y="0" type="line"/>
      <point x="125" y="0" type="line"/>
      <point x="125" y="618" type="line" smooth="yes"/>
      <point x="125" y="656"/>
      <point x="154" y="707"/>
      <point x="204" y="733"/>
      <point x="236" y="733" type="qcurve" smooth="yes"/>
      <point x="269" y="733"/>
      <point x="325" y="714"/>
      <point x="347" y="700" type="qcurve"/>
      <point x="346" y="698" type="line"/>
      <point x="324" y="712"/>
      <point x="269" y="731"/>
      <point x="236" y="731" type="qcurve" smooth="yes"/>
      <point x="189" y="731"/>
      <point x="127" y="674"/>
      <point x="127" y="618" type="qcurve" smooth="yes"/>
    </contour>
    <contour>
      <point x="423" y="0" type="line"/>
      <point x="420" y="0" type="line"/>
      <point x="133" y="283" type="line"/>
      <point x="393" y="517" type="line"/>
      <point x="396" y="517" type="line"/>
      <point x="136" y="283" type="line"/>
    </contour>
  </outline>
</glyph>
<glyph name="uni019B" format="1">
  <advance width="444"/>
  <unicode hex="019B"/>
  <outline>
    <contour>
      <point x="235" y="515" type="qcurve"/>
      <point x="52" y="-3" type="line"/>
      <point x="50" y="-2" type="line"/>
      <point x="234" y="517" type="line"/>
      <point x="235" y="517" type="line"/>
      <point x="222" y="577"/>
      <point x="193" y="661"/>
      <point x="139" y="715"/>
      <point x="89" y="730" type="qcurve"/>
      <point x="89" y="732" type="line"/>
      <point x="127" y="721"/>
      <point x="176" y="685"/>
      <point x="207" y="632"/>
      <point x="228" y="561"/>
      <point x="237" y="515" type="qcurve" smooth="yes"/>
      <point x="259" y="408"/>
      <point x="300" y="255"/>
      <point x="339" y="150"/>
      <point x="379" y="78"/>
      <point x="421" y="25"/>
      <point x="444" y="0" type="qcurve"/>
      <point x="442" y="-1" type="line"/>
      <point x="419" y="24"/>
      <point x="377" y="77"/>
      <point x="337" y="149"/>
      <point x="298" y="254"/>
      <point x="257" y="407"/>
    </contour>
    <contour>
      <point x="183" y="669" type="line"/>
      <point x="94" y="576" type="line"/>
      <point x="92" y="577" type="line"/>
      <point x="181" y="670" type="line"/>
      <point x="182" y="671" type="line"/>
      <point x="244" y="737" type="line"/>
      <point x="246" y="736" type="line"/>
      <point x="184" y="670" type="line"/>
    </contour>
    <contour>
      <point x="222" y="727" type="move" name="top"/>
    </contour>
    <contour>
      <point x="222" y="0" type="move" name="bottom"/>
    </contour>
  </outline>
</glyph>
<glyph name="uni019C" format="1">
  <advance width="918"/>
  <unicode hex="019C"/>
  <outline>
    <contour>
      <point x="266" y="-10" type="qcurve" smooth="yes"/>
      <point x="201" y="-10"/>
      <point x="120" y="80"/>
      <point x="120" y="169" type="qcurve" smooth="yes"/>
      <point x="120" y="680" type="line"/>
      <point x="122" y="680" type="line"/>
      <point x="122" y="169" type="line" smooth="yes"/>
      <point x="122" y="81"/>
      <point x="202" y="-8"/>
      <point x="266" y="-8" type="qcurve" smooth="yes"/>
      <point x="330" y="-8"/>
      <point x="417" y="65"/>
      <point x="455" y="132" type="qcurve"/>
      <point x="454" y="140"/>
      <point x="453" y="159"/>
      <point x="453" y="169" type="qcurve" smooth="yes"/>
      <point x="453" y="680" type="line"/>
      <point x="455" y="680" type="line"/>
      <point x="455" y="169" type="line" smooth="yes"/>
      <point x="455" y="81"/>
      <point x="535" y="-8"/>
      <point x="599" y="-8" type="qcurve" smooth="yes"/>
      <point x="663" y="-8"/>
      <point x="750" y="66"/>
      <point x="786" y="130" type="qcurve"/>
      <point x="786" y="680" type="line"/>
      <point x="788" y="680" type="line"/>
      <point x="788" y="0" type="line"/>
      <point x="786" y="0" type="line"/>
      <point x="786" y="126" type="line"/>
      <point x="750" y="62"/>
      <point x="663" y="-10"/>
      <point x="599" y="-10" type="qcurve" smooth="yes"/>
      <point x="542" y="-10"/>
      <point x="465" y="59"/>
      <point x="456" y="128" type="qcurve"/>
      <point x="418" y="63"/>
      <point x="330" y="-10"/>
    </contour>
    <contour>
      <point x="459" y="680" type="move" name="top"/>
    </contour>
    <contour>
      <point x="459" y="0" type="move" name="bottom"/>
    </contour>
  </outline>
</glyph>
<glyph name="uni019D" format="1">
  <advance width="654"/>
  <unicode hex="019D"/>
  <outline>
    <contour>
      <point x="48" y="-192" type="qcurve" smooth="yes"/>
      <point x="20" y="-192"/>
      <point x="-18" y="-175"/>
      <point x="-31" y="-164" type="qcurve"/>
      <point x="-30" y="-162" type="line"/>
      <point x="-16" y="-174"/>
      <point x="20" y="-190"/>
      <point x="48" y="-190" type="qcurve" smooth="yes"/>
      <point x="85" y="-190"/>
      <point x="130" y="-143"/>
      <point x="130" y="-97" type="qcurve" smooth="yes"/>
      <point x="130" y="680" type="line"/>
      <point x="133" y="680" type="line"/>
      <point x="522" y="2" type="line"/>
      <point x="522" y="25"/>
      <point x="522" y="69"/>
      <point x="522" y="114"/>
      <point x="522" y="136" type="qcurve" smooth="yes"/>
      <point x="522" y="680" type="line"/>
      <point x="524" y="680" type="line"/>
      <point x="524" y="0" type="line"/>
      <point x="521" y="0" type="line"/>
      <point x="132" y="678" type="line"/>
      <point x="132" y="661"/>
      <point x="132" y="627"/>
      <point x="132" y="592"/>
      <point x="132" y="575" type="qcurve" smooth="yes"/>
      <point x="132" y="-97" type="line" smooth="yes"/>
      <point x="132" y="-144"/>
      <point x="86" y="-192"/>
    </contour>
    <contour>
      <point x="331" y="680" type="move" name="top"/>
    </contour>
    <contour>
      <point x="321" y="0" type="move" name="bottom"/>
    </contour>
  </outline>
</glyph>
<glyph name="uni01A2" format="1">
  <advance width="873"/>
  <unicode hex="01A2"/>
  <outline>
    <contour>
      <point x="743" y="-188" type="line"/>
      <point x="741" y="-188" type="line"/>
      <point x="741" y="575" type="line" smooth="yes"/>
      <point x="741" y="628"/>
      <point x="691" y="688"/>
      <point x="639" y="688" type="qcurve" smooth="yes"/>
      <point x="596" y="688"/>
      <point x="527" y="664"/>
      <point x="489" y="643" type="qcurve"/>
      <point x="543" y="601"/>
      <point x="602" y="448"/>
      <point x="602" y="340" type="qcurve" smooth="yes"/>
      <point x="602" y="230"/>
      <point x="542" y="74"/>
      <point x="427" y="-9"/>
      <point x="343" y="-9" type="qcurve" smooth="yes"/>
      <point x="264" y="-9"/>
      <point x="148" y="73"/>
      <point x="85" y="229"/>
      <point x="85" y="338" type="qcurve" smooth="yes"/>
      <point x="85" y="448"/>
      <point x="149" y="605"/>
      <point x="266" y="690"/>
      <point x="343" y="690" type="qcurve" smooth="yes"/>
      <point x="427" y="690"/>
      <point x="488" y="644" type="qcurve"/>
      <point x="526" y="666"/>
      <point x="596" y="690"/>
      <point x="639" y="690" type="qcurve" smooth="yes"/>
      <point x="692" y="690"/>
      <point x="743" y="629"/>
      <point x="743" y="575" type="qcurve" smooth="yes"/>
    </contour>
    <contour>
      <point x="343" y="-7" type="qcurve" smooth="yes"/>
      <point x="468" y="-7"/>
      <point x="600" y="177"/>
      <point x="600" y="340" type="qcurve" smooth="yes"/>
      <point x="600" y="506"/>
      <point x="463" y="688"/>
      <point x="343" y="688" type="qcurve" smooth="yes"/>
      <point x="266" y="688"/>
      <point x="151" y="603"/>
      <point x="87" y="447"/>
      <point x="87" y="338" type="qcurve" smooth="yes"/>
      <point x="87" y="230"/>
      <point x="149" y="75"/>
      <point x="264" y="-7"/>
    </contour>
    <contour>
      <point x="437" y="680" type="move" name="top"/>
    </contour>
    <contour>
      <point x="437" y="-188" type="move" name="bottom"/>
    </contour>
  </outline>
</glyph>
<glyph name="uni01A3" format="1">
  <advance width="728"/>
  <unicode hex="01A3"/>
  <outline>
    <contour>
      <point x="603" y="-191" type="line"/>
      <point x="601" y="-191" type="line"/>
      <point x="601" y="412" type="line" smooth="yes"/>
      <point x="601" y="465"/>
      <point x="550" y="525"/>
      <point x="494" y="525" type="qcurve" smooth="yes"/>
      <point x="466" y="525"/>
      <point x="412" y="511"/>
      <point x="383" y="497" type="qcurve"/>
      <point x="381" y="498" type="line"/>
      <point x="410" y="512"/>
      <point x="465" y="527"/>
      <point x="494" y="527" type="qcurve" smooth="yes"/>
      <point x="550" y="527"/>
      <point x="603" y="466"/>
      <point x="603" y="412" type="qcurve" smooth="yes"/>
    </contour>
    <contour>
      <point x="281" y="527" type="qcurve" smooth="yes"/>
      <point x="342" y="527"/>
      <point x="431" y="464"/>
      <point x="479" y="346"/>
      <point x="479" y="262" type="qcurve" smooth="yes"/>
      <point x="479" y="176"/>
      <point x="430" y="54"/>
      <point x="341" y="-9"/>
      <point x="279" y="-9" type="qcurve" smooth="yes"/>
      <point x="186" y="-9"/>
      <point x="80" y="133"/>
      <point x="80" y="258" type="qcurve" smooth="yes"/>
      <point x="80" y="345"/>
      <point x="130" y="465"/>
      <point x="221" y="527"/>
    </contour>
    <contour>
      <point x="281" y="525" type="qcurve" smooth="yes"/>
      <point x="191" y="525"/>
      <point x="82" y="386"/>
      <point x="82" y="258" type="qcurve" smooth="yes"/>
      <point x="82" y="134"/>
      <point x="187" y="-7"/>
      <point x="279" y="-7" type="qcurve" smooth="yes"/>
      <point x="371" y="-7"/>
      <point x="477" y="134"/>
      <point x="477" y="262" type="qcurve" smooth="yes"/>
      <point x="477" y="386"/>
      <point x="372" y="525"/>
    </contour>
    <contour>
      <point x="364" y="517" type="move" name="top"/>
    </contour>
    <contour>
      <point x="364" y="-188" type="move" name="bottom"/>
    </contour>
  </outline>
</glyph>
<glyph name="uni01A5" format="1">
  <advance width="567"/>
  <unicode hex="01A5"/>
  <outline>
    <contour>
      <point x="306" y="527" type="qcurve" smooth="yes"/>
      <point x="392" y="527"/>
      <point x="482" y="389"/>
      <point x="482" y="264" type="qcurve" smooth="yes"/>
      <point x="482" y="180"/>
      <point x="441" y="57"/>
      <point x="361" y="-9"/>
      <point x="302" y="-9" type="qcurve" smooth="yes"/>
      <point x="243" y="-9"/>
      <point x="157" y="51"/>
      <point x="127" y="98" type="qcurve"/>
      <point x="127" y="-190" type="line"/>
      <point x="125" y="-190" type="line"/>
      <point x="125" y="618" type="line" smooth="yes"/>
      <point x="125" y="656"/>
      <point x="154" y="707"/>
      <point x="204" y="733"/>
      <point x="236" y="733" type="qcurve" smooth="yes"/>
      <point x="269" y="733"/>
      <point x="325" y="714"/>
      <point x="347" y="700" type="qcurve"/>
      <point x="346" y="698" type="line"/>
      <point x="324" y="712"/>
      <point x="269" y="731"/>
      <point x="236" y="731" type="qcurve" smooth="yes"/>
      <point x="189" y="731"/>
      <point x="127" y="674"/>
      <point x="127" y="618" type="qcurve" smooth="yes"/>
      <point x="127" y="421" type="line"/>
      <point x="159" y="467"/>
      <point x="244" y="527"/>
    </contour>
    <contour>
      <point x="302" y="-7" type="qcurve" smooth="yes"/>
      <point x="390" y="-7"/>
      <point x="480" y="139"/>
      <point x="480" y="264" type="qcurve" smooth="yes"/>
      <point x="480" y="347"/>
      <point x="441" y="463"/>
      <point x="363" y="525"/>
      <point x="306" y="525" type="qcurve" smooth="yes"/>
      <point x="245" y="525"/>
      <point x="162" y="467"/>
      <point x="127" y="418" type="qcurve"/>
      <point x="127" y="101" type="line"/>
      <point x="159" y="52"/>
      <point x="244" y="-7"/>
    </contour>
    <contour>
      <point x="284" y="727" type="move" name="top"/>
    </contour>
    <contour>
      <point x="284" y="-188" type="move" name="bottom"/>
    </contour>
  </outline>
</glyph>
<glyph name="uni01A6" format="1">
  <advance width="561"/>
  <unicode hex="01A6"/>
  <outline>
    <contour>
      <point x="506" y="-140" type="line"/>
      <point x="503" y="-140" type="line"/>
      <point x="312" y="194" type="line"/>
      <point x="132" y="194" type="line"/>
      <point x="132" y="0" type="line"/>
      <point x="130" y="0" type="line"/>
      <point x="130" y="680" type="line"/>
      <point x="132" y="680" type="line"/>
      <point x="132" y="540" type="line"/>
      <point x="267" y="540" type="line" smooth="yes"/>
      <point x="347" y="540"/>
      <point x="441" y="497"/>
      <point x="482" y="419"/>
      <point x="482" y="366" type="qcurve" smooth="yes"/>
      <point x="482" y="305"/>
      <point x="431" y="230"/>
      <point x="354" y="196"/>
      <point x="314" y="194" type="qcurve"/>
    </contour>
    <contour>
      <point x="132" y="538" type="line"/>
      <point x="132" y="196" type="line"/>
      <point x="306" y="196" type="line" smooth="yes"/>
      <point x="349" y="196"/>
      <point x="429" y="230"/>
      <point x="480" y="305"/>
      <point x="480" y="366" type="qcurve" smooth="yes"/>
      <point x="480" y="419"/>
      <point x="440" y="496"/>
      <point x="347" y="538"/>
      <point x="267" y="538" type="qcurve" smooth="yes"/>
    </contour>
    <contour>
      <point x="281" y="680" type="move" name="top"/>
    </contour>
    <contour>
      <point x="281" y="-188" type="move" name="bottom"/>
    </contour>
  </outline>
</glyph>
<glyph name="uni01A7" format="1">
  <advance width="540"/>
  <unicode hex="01A7"/>
  <outline>
    <contour>
      <point x="283" y="690" type="qcurve" smooth="yes"/>
      <point x="335" y="690"/>
      <point x="411" y="653"/>
      <point x="452" y="588"/>
      <point x="452" y="545" type="qcurve" smooth="yes"/>
      <point x="452" y="499"/>
      <point x="419" y="437"/>
      <point x="340" y="390"/>
      <point x="271" y="368" type="qcurve" smooth="yes"/>
      <point x="207" y="348"/>
      <point x="123" y="299"/>
      <point x="82" y="227"/>
      <point x="82" y="171" type="qcurve" smooth="yes"/>
      <point x="82" y="118"/>
      <point x="131" y="38"/>
      <point x="216" y="-7"/>
      <point x="270" y="-7" type="qcurve" smooth="yes"/>
      <point x="347" y="-7"/>
      <point x="437" y="36"/>
      <point x="474" y="71" type="qcurve"/>
      <point x="475" y="69" type="line"/>
      <point x="438" y="34"/>
      <point x="347" y="-9"/>
      <point x="270" y="-9" type="qcurve" smooth="yes"/>
      <point x="215" y="-9"/>
      <point x="129" y="36"/>
      <point x="80" y="118"/>
      <point x="80" y="171" type="qcurve" smooth="yes"/>
      <point x="80" y="228"/>
      <point x="121" y="301"/>
      <point x="206" y="350"/>
      <point x="270" y="370" type="qcurve" smooth="yes"/>
      <point x="339" y="392"/>
      <point x="418" y="438"/>
      <point x="450" y="500"/>
      <point x="450" y="545" type="qcurve" smooth="yes"/>
      <point x="450" y="607"/>
      <point x="360" y="688"/>
      <point x="283" y="688" type="qcurve" smooth="yes"/>
      <point x="223" y="688"/>
      <point x="140" y="653"/>
      <point x="104" y="624" type="qcurve"/>
      <point x="103" y="626" type="line"/>
      <point x="139" y="654"/>
      <point x="222" y="690"/>
    </contour>
    <contour>
      <point x="270" y="680" type="move" name="top"/>
    </contour>
    <contour>
      <point x="270" y="0" type="move" name="bottom"/>
    </contour>
  </outline>
</glyph>
<glyph name="uni01A8" format="1">
  <advance width="457"/>
  <unicode hex="01A8"/>
  <outline>
    <contour>
      <point x="241" y="527" type="qcurve" smooth="yes"/>
      <point x="282" y="527"/>
      <point x="344" y="498"/>
      <point x="380" y="446"/>
      <point x="380" y="411" type="qcurve" smooth="yes"/>
      <point x="380" y="357"/>
      <point x="310" y="298"/>
      <point x="227" y="274" type="qcurve" smooth="yes"/>
      <point x="171" y="258"/>
      <point x="103" y="221"/>
      <point x="72" y="168"/>
      <point x="72" y="127" type="qcurve" smooth="yes"/>
      <point x="72" y="66"/>
      <point x="158" y="-7"/>
      <point x="225" y="-7" type="qcurve" smooth="yes"/>
      <point x="287" y="-7"/>
      <point x="365" y="31"/>
      <point x="396" y="59" type="qcurve"/>
      <point x="397" y="57" type="line"/>
      <point x="366" y="29"/>
      <point x="287" y="-9"/>
      <point x="225" y="-9" type="qcurve" smooth="yes"/>
      <point x="180" y="-9"/>
      <point x="110" y="24"/>
      <point x="70" y="86"/>
      <point x="70" y="127" type="qcurve" smooth="yes"/>
      <point x="70" y="188"/>
      <point x="141" y="251"/>
      <point x="226" y="276" type="qcurve" smooth="yes"/>
      <point x="281" y="292"/>
      <point x="348" y="328"/>
      <point x="378" y="376"/>
      <point x="378" y="411" type="qcurve" smooth="yes"/>
      <point x="378" y="462"/>
      <point x="301" y="525"/>
      <point x="241" y="525" type="qcurve" smooth="yes"/>
      <point x="190" y="525"/>
      <point x="120" y="499"/>
      <point x="86" y="473" type="qcurve"/>
      <point x="85" y="475" type="line"/>
      <point x="118" y="501"/>
      <point x="189" y="527"/>
    </contour>
    <contour>
      <point x="229" y="517" type="move" name="top"/>
    </contour>
    <contour>
      <point x="229" y="0" type="move" name="bottom"/>
    </contour>
  </outline>
</glyph>
<glyph name="uni01AA" format="1">
  <advance width="256"/>
  <unicode hex="01AA"/>
  <outline>
    <contour>
      <point x="211" y="-192" type="qcurve" smooth="yes"/>
      <point x="174" y="-192"/>
      <point x="127" y="-144"/>
      <point x="127" y="-97" type="qcurve" smooth="yes"/>
      <point x="127" y="553" type="line"/>
      <point x="114" y="543"/>
      <point x="75" y="526"/>
      <point x="50" y="526" type="qcurve" smooth="yes"/>
      <point x="25" y="526"/>
      <point x="-13" y="548"/>
      <point x="-34" y="593"/>
      <point x="-34" y="626" type="qcurve" smooth="yes"/>
      <point x="-34" y="658"/>
      <point x="-12" y="706"/>
      <point x="27" y="733"/>
      <point x="53" y="733" type="qcurve" smooth="yes"/>
      <point x="77" y="733"/>
      <point x="111" y="712"/>
      <point x="129" y="673"/>
      <point x="129" y="646" type="qcurve" smooth="yes"/>
      <point x="129" y="-97" type="line" smooth="yes"/>
      <point x="129" y="-143"/>
      <point x="174" y="-190"/>
      <point x="211" y="-190" type="qcurve" smooth="yes"/>
      <point x="239" y="-190"/>
      <point x="275" y="-174"/>
      <point x="289" y="-162" type="qcurve"/>
      <point x="290" y="-164" type="line"/>
      <point x="277" y="-175"/>
      <point x="240" y="-192"/>
    </contour>
    <contour>
      <point x="50" y="528" type="qcurve" smooth="yes"/>
      <point x="74" y="528"/>
      <point x="113" y="544"/>
      <point x="127" y="555" type="qcurve"/>
      <point x="127" y="646" type="line" smooth="yes"/>
      <point x="127" y="686"/>
      <point x="88" y="731"/>
      <point x="53" y="731" type="qcurve" smooth="yes"/>
      <point x="15" y="731"/>
      <point x="-32" y="673"/>
      <point x="-32" y="626" type="qcurve" smooth="yes"/>
      <point x="-32" y="577"/>
      <point x="13" y="528"/>
    </contour>
    <contour>
      <point x="128" y="727" type="move" name="top"/>
    </contour>
    <contour>
      <point x="128" y="-188" type="move" name="bottom"/>
    </contour>
  </outline>
</glyph>
<glyph name="uni01AB" format="1">
  <advance width="322"/>
  <unicode hex="01AB"/>
  <outline>
    <contour>
      <point x="227" y="-192" type="qcurve" smooth="yes"/>
      <point x="199" y="-192"/>
      <point x="162" y="-177"/>
      <point x="151" y="-172" type="qcurve"/>
      <point x="152" y="-170" type="line"/>
      <point x="164" y="-176"/>
      <point x="199" y="-190"/>
      <point x="227" y="-190" type="qcurve" smooth="yes"/>
      <point x="264" y="-190"/>
      <point x="312" y="-143"/>
      <point x="312" y="-97" type="qcurve" smooth="yes"/>
      <point x="312" y="19" type="line"/>
      <point x="314" y="19" type="line"/>
      <point x="314" y="-97" type="line" smooth="yes"/>
      <point x="314" y="-144"/>
      <point x="265" y="-192"/>
    </contour>
    <contour>
      <point x="117" y="651" type="line"/>
      <point x="119" y="651" type="line"/>
      <point x="119" y="113" type="line" smooth="yes"/>
      <point x="119" y="56"/>
      <point x="172" y="-7"/>
      <point x="220" y="-7" type="qcurve" smooth="yes"/>
      <point x="252" y="-7"/>
      <point x="296" y="10"/>
      <point x="313" y="21" type="qcurve"/>
      <point x="314" y="19" type="line"/>
      <point x="314" y="19"/>
      <point x="313" y="18"/>
      <point x="313" y="19" type="qcurve"/>
      <point x="295" y="8"/>
      <point x="251" y="-9"/>
      <point x="220" y="-9" type="qcurve" smooth="yes"/>
      <point x="171" y="-9"/>
      <point x="117" y="55"/>
      <point x="117" y="113" type="qcurve" smooth="yes"/>
    </contour>
    <contour>
      <point x="30" y="517" type="line"/>
      <point x="265" y="517" type="line"/>
      <point x="265" y="515" type="line"/>
      <point x="30" y="515" type="line"/>
    </contour>
    <contour>
      <point x="118" y="651" type="move" name="top"/>
    </contour>
    <contour>
      <point x="161" y="-188" type="move" name="bottom"/>
    </contour>
  </outline>
</glyph>
<glyph name="uni01AC" format="1">
  <advance width="492"/>
  <unicode hex="01AC"/>
  <outline>
    <contour>
      <point x="257" y="0" type="line"/>
      <point x="255" y="0" type="line"/>
      <point x="255" y="678" type="line"/>
      <point x="128" y="678" type="line" smooth="yes"/>
      <point x="80" y="678"/>
      <point x="32" y="635"/>
      <point x="32" y="595" type="qcurve" smooth="yes"/>
      <point x="32" y="569"/>
      <point x="48" y="535"/>
      <point x="60" y="518" type="qcurve"/>
      <point x="58" y="517" type="line"/>
      <point x="47" y="533"/>
      <point x="30" y="568"/>
      <point x="30" y="595" type="qcurve" smooth="yes"/>
      <point x="30" y="636"/>
      <point x="79" y="680"/>
      <point x="128" y="680" type="qcurve" smooth="yes"/>
      <point x="472" y="680" type="line"/>
      <point x="472" y="678" type="line"/>
      <point x="257" y="678" type="line"/>
    </contour>
    <contour>
      <point x="246" y="680" type="move" name="top"/>
    </contour>
    <contour>
      <point x="246" y="0" type="move" name="bottom"/>
    </contour>
  </outline>
</glyph>
<glyph name="uni01AD" format="1">
  <advance width="322"/>
  <unicode hex="01AD"/>
  <outline>
    <contour>
      <point x="220" y="-9" type="qcurve" smooth="yes"/>
      <point x="171" y="-9"/>
      <point x="117" y="55"/>
      <point x="117" y="113" type="qcurve" smooth="yes"/>
      <point x="117" y="525" type="line"/>
      <point x="119" y="525" type="line"/>
      <point x="119" y="113" type="line" smooth="yes"/>
      <point x="119" y="56"/>
      <point x="172" y="-7"/>
      <point x="220" y="-7" type="qcurve" smooth="yes"/>
      <point x="252" y="-7"/>
      <point x="296" y="10"/>
      <point x="313" y="21" type="qcurve"/>
      <point x="314" y="19" type="line"/>
      <point x="295" y="8"/>
      <point x="252" y="-9"/>
    </contour>
    <contour>
      <point x="265" y="515" type="line"/>
      <point x="30" y="515" type="line"/>
      <point x="30" y="517" type="line"/>
      <point x="265" y="517" type="line"/>
    </contour>
    <contour>
      <point x="119" y="520" type="line"/>
      <point x="117" y="520" type="line"/>
      <point x="117" y="611" type="line" smooth="yes"/>
      <point x="117" y="650"/>
      <point x="141" y="705"/>
      <point x="188" y="733"/>
      <point x="220" y="733" type="qcurve" smooth="yes"/>
      <point x="252" y="733"/>
      <point x="295" y="716"/>
      <point x="314" y="705" type="qcurve"/>
      <point x="313" y="703" type="line"/>
      <point x="296" y="714"/>
      <point x="252" y="731"/>
      <point x="220" y="731" type="qcurve" smooth="yes"/>
      <point x="172" y="731"/>
      <point x="119" y="668"/>
      <point x="119" y="611" type="qcurve" smooth="yes"/>
    </contour>
    <contour>
      <point x="161" y="727" type="move" name="top"/>
    </contour>
    <contour>
      <point x="161" y="0" type="move" name="bottom"/>
    </contour>
  </outline>
</glyph>
<glyph name="uni01B1" format="1">
  <advance width="687"/>
  <unicode hex="01B1"/>
  <outline>
    <contour>
      <point x="344" y="-10" type="qcurve" smooth="yes"/>
      <point x="265" y="-10"/>
      <point x="148" y="72"/>
      <point x="85" y="219"/>
      <point x="85" y="315" type="qcurve" smooth="yes"/>
      <point x="85" y="418"/>
      <point x="133" y="562"/>
      <point x="208" y="654"/>
      <point x="250" y="678" type="qcurve"/>
      <point x="114" y="678" type="line"/>
      <point x="114" y="680" type="line"/>
      <point x="252" y="680" type="line"/>
      <point x="252" y="677" type="line"/>
      <point x="211" y="653"/>
      <point x="135" y="560"/>
      <point x="87" y="417"/>
      <point x="87" y="315" type="qcurve" smooth="yes"/>
      <point x="87" y="220"/>
      <point x="150" y="74"/>
      <point x="265" y="-8"/>
      <point x="344" y="-8" type="qcurve" smooth="yes"/>
      <point x="424" y="-8"/>
      <point x="538" y="74"/>
      <point x="600" y="221"/>
      <point x="600" y="317" type="qcurve" smooth="yes"/>
      <point x="600" y="420"/>
      <point x="550" y="563"/>
      <point x="475" y="654"/>
      <point x="436" y="677" type="qcurve"/>
      <point x="436" y="680" type="line"/>
      <point x="574" y="680" type="line"/>
      <point x="574" y="678" type="line"/>
      <point x="438" y="678" type="line"/>
      <point x="478" y="655"/>
      <point x="553" y="565"/>
      <point x="602" y="421"/>
      <point x="602" y="317" type="qcurve" smooth="yes"/>
      <point x="602" y="220"/>
      <point x="540" y="73"/>
      <point x="424" y="-10"/>
    </contour>
    <contour>
      <point x="344" y="680" type="move" name="top"/>
    </contour>
    <contour>
      <point x="344" y="0" type="move" name="bottom"/>
    </contour>
  </outline>
</glyph>
<glyph name="uni01B2" format="1">
  <advance width="624"/>
  <unicode hex="01B2"/>
  <outline>
    <contour>
      <point x="296" y="-9" type="qcurve" smooth="yes"/>
      <point x="239" y="-9"/>
      <point x="160" y="37"/>
      <point x="120" y="123"/>
      <point x="120" y="182" type="qcurve" smooth="yes"/>
      <point x="120" y="680" type="line"/>
      <point x="122" y="680" type="line"/>
      <point x="122" y="182" type="line" smooth="yes"/>
      <point x="122" y="94"/>
      <point x="211" y="-7"/>
      <point x="296" y="-7" type="qcurve" smooth="yes"/>
      <point x="362" y="-7"/>
      <point x="459" y="53"/>
      <point x="512" y="183"/>
      <point x="512" y="286" type="qcurve" smooth="yes"/>
      <point x="512" y="607" type="line" smooth="yes"/>
      <point x="512" y="647"/>
      <point x="483" y="688"/>
      <point x="450" y="688" type="qcurve" smooth="yes"/>
      <point x="435" y="688"/>
      <point x="411" y="682"/>
      <point x="402" y="677" type="qcurve"/>
      <point x="401" y="679" type="line"/>
      <point x="412" y="684"/>
      <point x="435" y="690"/>
      <point x="450" y="690" type="qcurve" smooth="yes"/>
      <point x="484" y="690"/>
      <point x="514" y="648"/>
      <point x="514" y="607" type="qcurve" smooth="yes"/>
      <point x="514" y="286" type="line" smooth="yes"/>
      <point x="514" y="182"/>
      <point x="460" y="52"/>
      <point x="362" y="-9"/>
    </contour>
    <contour>
      <point x="302" y="680" type="move" name="top"/>
    </contour>
    <contour>
      <point x="302" y="0" type="move" name="bottom"/>
    </contour>
  </outline>
</glyph>
<glyph name="uni01B3" format="1">
  <advance width="505"/>
  <unicode hex="01B3"/>
  <outline>
    <contour>
      <point x="241" y="0" type="line"/>
      <point x="239" y="0" type="line"/>
      <point x="239" y="271" type="line"/>
      <point x="25" y="680" type="line"/>
      <point x="27" y="680" type="line"/>
      <point x="240" y="273" type="line"/>
      <point x="403" y="613" type="line" smooth="yes"/>
      <point x="423" y="654"/>
      <point x="464" y="690"/>
      <point x="496" y="690" type="qcurve" smooth="yes"/>
      <point x="524" y="690"/>
      <point x="559" y="669"/>
      <point x="575" y="652" type="qcurve"/>
      <point x="574" y="650" type="line"/>
      <point x="558" y="668"/>
      <point x="523" y="688"/>
      <point x="496" y="688" type="qcurve" smooth="yes"/>
      <point x="465" y="688"/>
      <point x="425" y="653"/>
      <point x="405" y="612" type="qcurve" smooth="yes"/>
      <point x="241" y="271" type="line"/>
    </contour>
    <contour>
      <point x="253" y="680" type="move" name="top"/>
    </contour>
    <contour>
      <point x="253" y="0" type="move" name="bottom"/>
    </contour>
    <contour>
      <point x="15" y="680" type="move" name="topleft"/>
    </contour>
  </outline>
</glyph>
<glyph name="uni01B4" format="1">
  <advance width="444"/>
  <unicode hex="01B4"/>
  <outline>
    <contour>
      <point x="61" y="-189" type="qcurve"/>
      <point x="61" y="-187" type="line"/>
      <point x="112" y="-172"/>
      <point x="169" y="-128"/>
      <point x="205" y="-56"/>
      <point x="224" y="0" type="qcurve"/>
      <point x="222" y="0" type="line"/>
      <point x="30" y="517" type="line"/>
      <point x="32" y="517" type="line"/>
      <point x="224" y="0" type="line"/>
      <point x="386" y="492" type="line" smooth="yes"/>
      <point x="398" y="529"/>
      <point x="427" y="565"/>
      <point x="458" y="565" type="qcurve" smooth="yes"/>
      <point x="468" y="565"/>
      <point x="487" y="561"/>
      <point x="496" y="557" type="qcurve"/>
      <point x="496" y="555" type="line"/>
      <point x="487" y="559"/>
      <point x="468" y="563"/>
      <point x="458" y="563" type="qcurve" smooth="yes"/>
      <point x="428" y="563"/>
      <point x="399" y="527"/>
      <point x="388" y="492" type="qcurve" smooth="yes"/>
      <point x="226" y="0" type="line" smooth="yes"/>
      <point x="207" y="-56"/>
      <point x="171" y="-129"/>
      <point x="113" y="-174"/>
    </contour>
    <contour>
      <point x="222" y="517" type="move" name="top"/>
    </contour>
    <contour>
      <point x="222" y="-188" type="move" name="bottom"/>
    </contour>
  </outline>
</glyph>
<glyph name="uni01B5" format="1">
  <advance width="504"/>
  <unicode hex="01B5"/>
  <outline>
    <contour>
      <point x="437" y="0" type="line"/>
      <point x="45" y="0" type="line"/>
      <point x="45" y="2" type="line"/>
      <point x="249" y="341" type="line"/>
      <point x="126" y="341" type="line"/>
      <point x="126" y="343" type="line"/>
      <point x="250" y="343" type="line"/>
      <point x="451" y="678" type="line"/>
      <point x="82" y="678" type="line"/>
      <point x="82" y="680" type="line"/>
      <point x="454" y="680" type="line"/>
      <point x="454" y="678" type="line"/>
      <point x="253" y="343" type="line"/>
      <point x="379" y="343" type="line"/>
      <point x="379" y="341" type="line"/>
      <point x="252" y="341" type="line"/>
      <point x="48" y="2" type="line"/>
      <point x="437" y="2" type="line"/>
    </contour>
    <contour>
      <point x="252" y="680" type="move" name="top"/>
    </contour>
    <contour>
      <point x="252" y="0" type="move" name="bottom"/>
    </contour>
  </outline>
</glyph>
<glyph name="uni01B6" format="1">
  <advance width="410"/>
  <unicode hex="01B6"/>
  <outline>
    <contour>
      <point x="66" y="517" type="line"/>
      <point x="370" y="517" type="line"/>
      <point x="370" y="515" type="line"/>
      <point x="38" y="2" type="line"/>
      <point x="359" y="2" type="line"/>
      <point x="359" y="0" type="line"/>
      <point x="35" y="0" type="line"/>
      <point x="35" y="2" type="line"/>
      <point x="367" y="515" type="line"/>
      <point x="66" y="515" type="line"/>
    </contour>
    <contour>
      <point x="325" y="266" type="line"/>
      <point x="95" y="266" type="line"/>
      <point x="95" y="268" type="line"/>
      <point x="325" y="268" type="line"/>
    </contour>
    <contour>
      <point x="205" y="517" type="move" name="top"/>
    </contour>
    <contour>
      <point x="205" y="0" type="move" name="bottom"/>
    </contour>
  </outline>
</glyph>
<glyph name="uni01B7" format="1">
  <advance width="464"/>
  <unicode hex="01B7"/>
  <outline>
    <contour>
      <point x="217" y="-9" type="qcurve" smooth="yes"/>
      <point x="150" y="-9"/>
      <point x="64" y="33"/>
      <point x="30" y="69" type="qcurve"/>
      <point x="32" y="70" type="line"/>
      <point x="66" y="34"/>
      <point x="151" y="-7"/>
      <point x="217" y="-7" type="qcurve" smooth="yes"/>
      <point x="312" y="-7"/>
      <point x="412" y="97"/>
      <point x="412" y="179" type="qcurve" smooth="yes"/>
      <point x="412" y="268"/>
      <point x="305" y="361"/>
      <point x="202" y="361" type="qcurve" smooth="yes"/>
      <point x="131" y="361" type="line"/>
      <point x="131" y="363" type="line"/>
      <point x="383" y="678" type="line"/>
      <point x="37" y="678" type="line"/>
      <point x="37" y="680" type="line"/>
      <point x="386" y="680" type="line"/>
      <point x="386" y="678" type="line"/>
      <point x="134" y="363" type="line"/>
      <point x="202" y="363" type="line" smooth="yes"/>
      <point x="306" y="363"/>
      <point x="414" y="269"/>
      <point x="414" y="179" type="qcurve" smooth="yes"/>
      <point x="414" y="124"/>
      <point x="368" y="39"/>
      <point x="281" y="-9"/>
    </contour>
    <contour>
      <point x="211" y="680" type="move" name="top"/>
    </contour>
    <contour>
      <point x="232" y="0" type="move" name="bottom"/>
    </contour>
  </outline>
</glyph>
<glyph name="uni01B8" format="1">
  <advance width="464"/>
  <unicode hex="01B8"/>
  <outline>
    <contour>
      <point x="240" y="-9" type="qcurve" smooth="yes"/>
      <point x="182" y="-9"/>
      <point x="96" y="36"/>
      <point x="50" y="119"/>
      <point x="50" y="174" type="qcurve" smooth="yes"/>
      <point x="50" y="232"/>
      <point x="98" y="316"/>
      <point x="193" y="363"/>
      <point x="262" y="363" type="qcurve" smooth="yes"/>
      <point x="330" y="363" type="line"/>
      <point x="78" y="678" type="line"/>
      <point x="78" y="680" type="line"/>
      <point x="427" y="680" type="line"/>
      <point x="427" y="678" type="line"/>
      <point x="81" y="678" type="line"/>
      <point x="333" y="363" type="line"/>
      <point x="333" y="361" type="line"/>
      <point x="262" y="361" type="line" smooth="yes"/>
      <point x="159" y="361"/>
      <point x="52" y="260"/>
      <point x="52" y="174" type="qcurve" smooth="yes"/>
      <point x="52" y="92"/>
      <point x="153" y="-7"/>
      <point x="240" y="-7" type="qcurve" smooth="yes"/>
      <point x="311" y="-7"/>
      <point x="398" y="34"/>
      <point x="432" y="70" type="qcurve"/>
      <point x="434" y="69" type="line"/>
      <point x="400" y="33"/>
      <point x="312" y="-9"/>
    </contour>
    <contour>
      <point x="232" y="680" type="move" name="top"/>
    </contour>
    <contour>
      <point x="232" y="0" type="move" name="bottom"/>
    </contour>
  </outline>
</glyph>
<glyph name="uni01B9" format="1">
  <advance width="438"/>
  <unicode hex="01B9"/>
  <outline>
    <contour>
      <point x="224" y="-192" type="qcurve" smooth="yes"/>
      <point x="168" y="-192"/>
      <point x="85" y="-144"/>
      <point x="40" y="-60"/>
      <point x="40" y="-4" type="qcurve" smooth="yes"/>
      <point x="40" y="57"/>
      <point x="88" y="143"/>
      <point x="183" y="190"/>
      <point x="252" y="190" type="qcurve" smooth="yes"/>
      <point x="300" y="190" type="line"/>
      <point x="302" y="188" type="line"/>
      <point x="252" y="188" type="line" smooth="yes"/>
      <point x="149" y="188"/>
      <point x="42" y="86"/>
      <point x="42" y="-4" type="qcurve" smooth="yes"/>
      <point x="42" y="-59"/>
      <point x="87" y="-142"/>
      <point x="169" y="-190"/>
      <point x="224" y="-190" type="qcurve" smooth="yes"/>
      <point x="288" y="-190"/>
      <point x="372" y="-149"/>
      <point x="406" y="-113" type="qcurve"/>
      <point x="408" y="-114" type="line"/>
      <point x="374" y="-150"/>
      <point x="289" y="-192"/>
    </contour>
    <contour>
      <point x="72" y="515" type="line"/>
      <point x="302" y="190" type="line"/>
      <point x="302" y="188" type="line"/>
      <point x="299" y="190" type="line"/>
      <point x="69" y="515" type="line"/>
      <point x="69" y="517" type="line"/>
      <point x="392" y="517" type="line"/>
      <point x="392" y="515" type="line"/>
    </contour>
    <contour>
      <point x="219" y="517" type="move" name="top"/>
    </contour>
    <contour>
      <point x="219" y="-188" type="move" name="bottom"/>
    </contour>
  </outline>
</glyph>
<glyph name="uni01BA" format="1">
  <advance width="442"/>
  <unicode hex="01BA"/>
  <outline>
    <contour>
      <point x="154" y="-188" type="qcurve"/>
      <point x="153" y="-190" type="line"/>
      <point x="103" y="-178"/>
      <point x="51" y="-132"/>
      <point x="51" y="-98" type="qcurve" smooth="yes"/>
      <point x="51" y="-58"/>
      <point x="122" y="-12"/>
      <point x="216" y="-4" type="qcurve" smooth="yes"/>
      <point x="314" y="4"/>
      <point x="390" y="74"/>
      <point x="390" y="138" type="qcurve" smooth="yes"/>
      <point x="390" y="205"/>
      <point x="310" y="261"/>
      <point x="236" y="261" type="qcurve" smooth="yes"/>
      <point x="118" y="261" type="line"/>
      <point x="118" y="263" type="line"/>
      <point x="360" y="515" type="line"/>
      <point x="50" y="515" type="line"/>
      <point x="50" y="517" type="line"/>
      <point x="363" y="517" type="line"/>
      <point x="363" y="515" type="line"/>
      <point x="121" y="263" type="line"/>
      <point x="236" y="263" type="line" smooth="yes"/>
      <point x="311" y="263"/>
      <point x="392" y="206"/>
      <point x="392" y="138" type="qcurve" smooth="yes"/>
      <point x="392" y="95"/>
      <point x="359" y="35"/>
      <point x="282" y="-1"/>
      <point x="216" y="-6" type="qcurve" smooth="yes"/>
      <point x="155" y="-11"/>
      <point x="83" y="-35"/>
      <point x="53" y="-72"/>
      <point x="53" y="-98" type="qcurve" smooth="yes"/>
      <point x="53" y="-132"/>
      <point x="105" y="-177"/>
    </contour>
    <contour>
      <point x="207" y="517" type="move" name="top"/>
    </contour>
    <contour>
      <point x="221" y="-188" type="move" name="bottom"/>
    </contour>
  </outline>
</glyph>
<glyph name="uni01BD" format="1">
  <advance width="421"/>
  <unicode hex="01BD"/>
  <outline>
    <contour>
      <point x="95" y="517" type="line"/>
      <point x="335" y="517" type="line"/>
      <point x="335" y="515" type="line"/>
      <point x="97" y="515" type="line"/>
      <point x="97" y="283" type="line"/>
      <point x="121" y="300"/>
      <point x="174" y="320"/>
      <point x="213" y="320" type="qcurve" smooth="yes"/>
      <point x="257" y="320"/>
      <point x="319" y="283"/>
      <point x="351" y="214"/>
      <point x="351" y="166" type="qcurve" smooth="yes"/>
      <point x="351" y="114"/>
      <point x="316" y="36"/>
      <point x="246" y="-9"/>
      <point x="194" y="-9" type="qcurve" smooth="yes"/>
      <point x="167" y="-9"/>
      <point x="118" y="5"/>
      <point x="77" y="31"/>
      <point x="60" y="48" type="qcurve"/>
      <point x="62" y="49" type="line"/>
      <point x="85" y="24"/>
      <point x="154" y="-7"/>
      <point x="194" y="-7" type="qcurve" smooth="yes"/>
      <point x="271" y="-7"/>
      <point x="349" y="90"/>
      <point x="349" y="166" type="qcurve" smooth="yes"/>
      <point x="349" y="237"/>
      <point x="278" y="318"/>
      <point x="213" y="318" type="qcurve" smooth="yes"/>
      <point x="175" y="318"/>
      <point x="122" y="298"/>
      <point x="97" y="281" type="qcurve"/>
      <point x="95" y="281" type="line"/>
    </contour>
    <contour>
      <point x="211" y="517" type="move" name="top"/>
    </contour>
    <contour>
      <point x="211" y="0" type="move" name="bottom"/>
    </contour>
  </outline>
</glyph>
<glyph name="uni01BE" format="1">
  <advance width="489"/>
  <unicode hex="01BE"/>
  <outline>
    <contour>
      <point x="226" y="-6" type="qcurve" smooth="yes"/>
      <point x="167" y="-6"/>
      <point x="86" y="41"/>
      <point x="55" y="73" type="qcurve"/>
      <point x="57" y="75" type="line"/>
      <point x="88" y="43"/>
      <point x="167" y="-4"/>
      <point x="226" y="-4" type="qcurve" smooth="yes"/>
      <point x="313" y="-4"/>
      <point x="407" y="109"/>
      <point x="407" y="196" type="qcurve" smooth="yes"/>
      <point x="407" y="261"/>
      <point x="360" y="341"/>
      <point x="286" y="384"/>
      <point x="245" y="392" type="qcurve" smooth="yes"/>
      <point x="178" y="406" type="line"/>
      <point x="178" y="583" type="line"/>
      <point x="106" y="583" type="line"/>
      <point x="106" y="585" type="line"/>
      <point x="178" y="585" type="line"/>
      <point x="178" y="730" type="line"/>
      <point x="180" y="730" type="line"/>
      <point x="180" y="585" type="line"/>
      <point x="301" y="585" type="line"/>
      <point x="301" y="583" type="line"/>
      <point x="180" y="583" type="line"/>
      <point x="180" y="408" type="line"/>
      <point x="242" y="395" type="line" smooth="yes"/>
      <point x="275" y="388"/>
      <point x="335" y="361"/>
      <point x="382" y="315"/>
      <point x="409" y="245"/>
      <point x="409" y="196" type="qcurve" smooth="yes"/>
      <point x="409" y="137"/>
      <point x="366" y="46"/>
      <point x="285" y="-6"/>
    </contour>
    <contour>
      <point x="179" y="727" type="move" name="top"/>
    </contour>
    <contour>
      <point x="226" y="0" type="move" name="bottom"/>
    </contour>
  </outline>
</glyph>
<glyph name="uni01BF" format="1">
  <advance width="562"/>
  <unicode hex="01BF"/>
  <outline>
    <contour>
      <point x="125" y="517" type="line"/>
      <point x="127" y="517" type="line"/>
      <point x="127" y="421" type="line"/>
      <point x="127" y="419" type="line"/>
      <point x="127" y="-190" type="line"/>
      <point x="125" y="-190" type="line"/>
    </contour>
    <contour>
      <point x="126" y="418" type="qcurve"/>
      <point x="126" y="421" type="line"/>
      <point x="161" y="468"/>
      <point x="250" y="527"/>
      <point x="317" y="527" type="qcurve" smooth="yes"/>
      <point x="367" y="527"/>
      <point x="441" y="484"/>
      <point x="482" y="406"/>
      <point x="482" y="353" type="qcurve" smooth="yes"/>
      <point x="482" y="300"/>
      <point x="447" y="211"/>
      <point x="377" y="132"/>
      <point x="269" y="59"/>
      <point x="196" y="22" type="qcurve" smooth="yes"/>
      <point x="126" y="-14" type="line"/>
      <point x="126" y="-12" type="line"/>
      <point x="196" y="24" type="line" smooth="yes"/>
      <point x="293" y="73"/>
      <point x="418" y="171"/>
      <point x="480" y="283"/>
      <point x="480" y="353" type="qcurve" smooth="yes"/>
      <point x="480" y="432"/>
      <point x="391" y="525"/>
      <point x="317" y="525" type="qcurve" smooth="yes"/>
      <point x="251" y="525"/>
      <point x="163" y="466"/>
    </contour>
    <contour>
      <point x="281" y="517" type="move" name="top"/>
    </contour>
    <contour>
      <point x="281" y="-188" type="move" name="bottom"/>
    </contour>
  </outline>
</glyph>
<glyph name="uni01C3" format="1">
  <advance width="274"/>
  <unicode hex="01C3"/>
  <outline>
    <contour>
      <point x="136" y="730" type="line"/>
      <point x="138" y="730" type="line"/>
      <point x="138" y="188" type="line"/>
      <point x="136" y="188" type="line"/>
    </contour>
    <contour>
      <point x="137" y="11" type="qcurve" smooth="yes"/>
      <point x="140" y="11"/>
      <point x="144" y="7"/>
      <point x="144" y="4" type="qcurve" smooth="yes"/>
      <point x="144" y="1"/>
      <point x="140" y="-3"/>
      <point x="137" y="-3" type="qcurve" smooth="yes"/>
      <point x="134" y="-3"/>
      <point x="130" y="1"/>
      <point x="130" y="4" type="qcurve" smooth="yes"/>
      <point x="130" y="7"/>
      <point x="134" y="11"/>
    </contour>
  </outline>
</glyph>
<glyph name="uni01F6" format="1">
  <advance width="955"/>
  <unicode hex="01F6"/>
  <outline>
    <contour>
      <point x="669" y="-9" type="qcurve" smooth="yes"/>
      <point x="628" y="-9"/>
      <point x="561" y="27"/>
      <point x="522" y="99"/>
      <point x="522" y="153" type="qcurve" smooth="yes"/>
      <point x="522" y="360" type="line"/>
      <point x="132" y="360" type="line"/>
      <point x="132" y="0" type="line"/>
      <point x="130" y="0" type="line"/>
      <point x="130" y="680" type="line"/>
      <point x="132" y="680" type="line"/>
      <point x="132" y="362" type="line"/>
      <point x="522" y="362" type="line"/>
      <point x="522" y="680" type="line"/>
      <point x="524" y="680" type="line"/>
      <point x="524" y="153" type="line" smooth="yes"/>
      <point x="524" y="74"/>
      <point x="608" y="-7"/>
      <point x="669" y="-7" type="qcurve" smooth="yes"/>
      <point x="722" y="-7"/>
      <point x="805" y="49"/>
      <point x="853" y="170"/>
      <point x="853" y="268" type="qcurve" smooth="yes"/>
      <point x="853" y="339"/>
      <point x="836" y="465"/>
      <point x="826" y="517" type="qcurve"/>
      <point x="828" y="517" type="line"/>
      <point x="838" y="465"/>
      <point x="855" y="339"/>
      <point x="855" y="268" type="qcurve" smooth="yes"/>
      <point x="855" y="194"/>
      <point x="827" y="89"/>
      <point x="777" y="22"/>
      <point x="709" y="-9"/>
    </contour>
    <contour>
      <point x="478" y="680" type="move" name="top"/>
    </contour>
    <contour>
      <point x="478" y="0" type="move" name="bottom"/>
    </contour>
  </outline>
</glyph>
<glyph name="uni01F7" format="1">
  <advance width="552"/>
  <unicode hex="01F7"/>
  <outline>
    <contour>
      <point x="132" y="0" type="line"/>
      <point x="130" y="0" type="line"/>
      <point x="130" y="680" type="line"/>
      <point x="132" y="680" type="line"/>
      <point x="132" y="601" type="line"/>
      <point x="163" y="636"/>
      <point x="251" y="690"/>
      <point x="317" y="690" type="qcurve" smooth="yes"/>
      <point x="368" y="690"/>
      <point x="444" y="647"/>
      <point x="487" y="569"/>
      <point x="487" y="515" type="qcurve" smooth="yes"/>
      <point x="487" y="463"/>
      <point x="452" y="386"/>
      <point x="388" y="331"/>
      <point x="301" y="289"/>
      <point x="249" y="271" type="qcurve" smooth="yes"/>
      <point x="132" y="231" type="line"/>
    </contour>
    <contour>
      <point x="132" y="598" type="qcurve"/>
      <point x="132" y="233" type="line"/>
      <point x="249" y="273" type="line" smooth="yes"/>
      <point x="318" y="296"/>
      <point x="424" y="356"/>
      <point x="485" y="446"/>
      <point x="485" y="515" type="qcurve" smooth="yes"/>
      <point x="485" y="595"/>
      <point x="392" y="688"/>
      <point x="317" y="688" type="qcurve" smooth="yes"/>
      <point x="252" y="688"/>
      <point x="164" y="634"/>
    </contour>
    <contour>
      <point x="276" y="680" type="move" name="top"/>
    </contour>
    <contour>
      <point x="276" y="0" type="move" name="bottom"/>
    </contour>
  </outline>
</glyph>
<glyph name="uni021C" format="1">
  <advance width="482"/>
  <unicode hex="021C"/>
  <outline>
    <contour>
      <point x="228" y="690" type="qcurve" smooth="yes"/>
      <point x="282" y="690"/>
      <point x="356" y="648"/>
      <point x="395" y="574"/>
      <point x="395" y="526" type="qcurve" smooth="yes"/>
      <point x="395" y="471"/>
      <point x="350" y="400"/>
      <point x="279" y="365"/>
      <point x="238" y="362" type="qcurve"/>
      <point x="289" y="360"/>
      <point x="370" y="324"/>
      <point x="417" y="256"/>
      <point x="417" y="205" type="qcurve" smooth="yes"/>
      <point x="417" y="142"/>
      <point x="354" y="39"/>
      <point x="201" y="-44"/>
      <point x="67" y="-79" type="qcurve"/>
      <point x="67" y="-77" type="line"/>
      <point x="167" y="-51"/>
      <point x="301" y="9"/>
      <point x="381" y="78"/>
      <point x="415" y="158"/>
      <point x="415" y="205" type="qcurve" smooth="yes"/>
      <point x="415" y="280"/>
      <point x="309" y="361"/>
      <point x="223" y="361" type="qcurve" smooth="yes"/>
      <point x="166" y="361" type="line"/>
      <point x="166" y="363" type="line"/>
      <point x="220" y="363" type="line" smooth="yes"/>
      <point x="269" y="363"/>
      <point x="347" y="400"/>
      <point x="393" y="472"/>
      <point x="393" y="526" type="qcurve" smooth="yes"/>
      <point x="393" y="596"/>
      <point x="308" y="688"/>
      <point x="228" y="688" type="qcurve" smooth="yes"/>
      <point x="168" y="688"/>
      <point x="82" y="644"/>
      <point x="41" y="603" type="qcurve"/>
      <point x="40" y="605" type="line"/>
      <point x="80" y="646"/>
      <point x="168" y="690"/>
    </contour>
    <contour>
      <point x="241" y="680" type="move" name="top"/>
    </contour>
    <contour>
      <point x="241" y="-188" type="move" name="bottom"/>
    </contour>
  </outline>
</glyph>
